<svg width="1440" height="312" xmlns="http://www.w3.org/2000/svg" xmlns:xlink="http://www.w3.org/1999/xlink"><defs><path id="a" d="M0 0h1440v312H0z"/></defs><g fill="none" fill-rule="evenodd"><mask id="b" fill="#fff"><use xlink:href="#a"/></mask><g mask="url(#b)" fill="#2CCBBB"><path d="M1497.084 350.867c-42.33-50.34-90.916-76.408-145.757-78.205-82.26-2.697-194.9 40.739-258.547-2.697-63.647-43.435-167.098-47.502-228.452-29.41-61.353 18.092-150.562-17.054-202.586-68.746-52.024-51.693-113.762-58.435-200.554-38.63-86.791 19.804-131.86-16.733-165.892-73.705C261.266 2.503 226.21-4.408 163.837 6.116 101.464 16.639 76.8 68.259-8.624 68.259c-56.95 0-64.635-14.119-23.058-42.356v336.424l1528.766-11.46z"/><path d="M1507.56 311.187c-1.231.752-3.299-.293-5.922-1.959a446.405 446.405 0 0 1-4.409-2.899c-1.634-1.045-3.393-2.172-5.28-3.296-1.901-1.1-3.742-2.088-5.45-3.005a445.643 445.643 0 0 1-4.68-2.44c-2.733-1.48-4.653-2.776-4.594-4.216.048-1.367 2.247-2.649 6.007-2.86 1.871-.118 4.092.102 6.49.681a29.438 29.438 0 0 1 7.395 3.04 29.42 29.42 0 0 1 6.257 4.98c1.673 1.811 2.947 3.644 3.757 5.335 1.646 3.387 1.598 5.93.428 6.639zm-97.904-2.376c-1.796-2.172 5.377-11.064 16.019-19.86 10.642-8.795 20.725-14.164 22.52-11.992 1.796 2.172-5.377 11.063-16.019 19.859-10.642 8.796-20.724 14.165-22.52 11.993zm-26.65 16.482c.25-1.439 3.46-2.07 8.181-2.904a57.686 57.686 0 0 1 1.846-.317c.639-.104 1.299-.266 1.978-.387 1.365-.219 2.798-.58 4.303-.88 2.998-.706 6.24-1.554 9.586-2.648 3.334-1.133 6.437-2.397 9.261-3.628 1.384-.664 2.748-1.234 3.97-1.876.617-.312 1.243-.577 1.816-.877.57-.304 1.126-.587 1.668-.853 4.277-2.163 7.225-3.584 8.288-2.58.51.486.435 1.499-.186 2.962a12.103 12.103 0 0 1-1.389 2.453c-.624.884-1.35 1.904-2.297 2.872-.464.497-.959 1.01-1.485 1.539-.53.524-1.128 1.008-1.735 1.534-1.202 1.07-2.611 2.038-4.105 3.057a48.794 48.794 0 0 1-10.58 5.08 48.994 48.994 0 0 1-11.513 2.278c-1.808.08-3.516.15-5.12.016-.8-.057-1.57-.086-2.307-.188a64.92 64.92 0 0 1-2.113-.342c-1.338-.207-2.53-.588-3.56-.92a12.048 12.048 0 0 1-2.581-1.13c-1.375-.799-2.042-1.565-1.926-2.26zm123.219 16.253c-1.384.499-3.53-2.047-6.718-5.713a55.427 55.427 0 0 1-1.243-1.437c-.425-.5-.921-.98-1.386-1.503-.91-1.063-2-2.095-3.069-3.224-2.236-2.177-4.752-4.46-7.564-6.66-2.842-2.161-5.69-4.012-8.366-5.624-1.363-.746-2.637-1.538-3.896-2.147-.625-.318-1.216-.675-1.807-.96a56.24 56.24 0 0 1-1.705-.835c-4.357-2.152-7.365-3.58-7.233-5.045.068-.7.93-1.262 2.51-1.662.395-.1.833-.189 1.316-.268.48-.065.995-.086 1.554-.11 1.112-.028 2.403-.068 3.786.132.695.082 1.426.18 2.187.293.76.12 1.526.33 2.332.52 1.625.353 3.282.963 5.036 1.61a46.428 46.428 0 0 1 10.519 6.013 46.479 46.479 0 0 1 8.49 8.645c1.07 1.531 2.08 2.979 2.836 4.46.389.732.786 1.419 1.094 2.123.305.708.585 1.389.841 2.042.545 1.285.835 2.545 1.09 3.628.12.547.231 1.05.29 1.531.046.486.07.933.074 1.341.015 1.63-.307 2.606-.968 2.85zm17.532-43.45c1.543-2.358 10.734.918 20.53 7.32 9.796 6.403 16.488 13.504 14.946 15.864-1.542 2.358-10.732-.92-20.528-7.321-9.797-6.401-16.49-13.503-14.948-15.863zm-92.71-49.931c.094-1.374 3.62-2.473 9.355-2.583 2.865-.062 6.26.177 9.996.734a80.208 80.208 0 0 1 11.935 2.85 80.114 80.114 0 0 1 11.334 4.698c3.352 1.738 6.242 3.539 8.524 5.27 4.58 3.453 6.792 6.413 6.06 7.58-.76 1.221-4.259.474-9.404-1.187a461.08 461.08 0 0 1-8.892-3.025c-3.321-1.13-6.947-2.376-10.77-3.628-3.832-1.232-7.499-2.349-10.851-3.383-3.358-1.003-6.4-1.94-8.976-2.768-5.14-1.675-8.411-3.124-8.31-4.558zm-61.995 50.667c-1.709-2.242 6.03-11.01 17.28-19.582 11.252-8.572 21.759-13.703 23.466-11.462 1.709 2.242-6.029 11.007-17.281 19.58-11.252 8.572-21.758 13.705-23.465 11.464zm96.046 69.2c-1.238.654-3.48-.824-5.991-3.885-2.51-3.054-5.25-7.71-7.408-13.219-2.154-5.51-3.304-10.788-3.534-14.734-.234-3.952.41-6.56 1.762-6.92 1.37-.367 3.183 1.546 5.14 4.817 1.96 3.276 4.096 7.9 6.137 13.118 2.044 5.216 3.612 10.062 4.398 13.797.783 3.73.75 6.367-.504 7.027zm51.552 31.653c-1.331.521-3.864-2.562-7.171-7.735-3.307-5.178-7.462-12.416-12.056-20.393-4.604-7.973-8.785-15.195-11.612-20.65-2.818-5.454-4.219-9.19-3.101-10.08 1.085-.867 4.512 1.314 8.946 5.845 4.43 4.521 9.793 11.449 14.608 19.786 4.804 8.344 8.112 16.455 9.806 22.555 1.7 6.108 1.872 10.166.58 10.672zm17.011-26.853c-1.431-.12-2.446-2.599-3.43-6.284a204.164 204.164 0 0 1-1.537-6.371l-1.825-7.623-2.009-7.576a204.603 204.603 0 0 1-1.669-6.34c-.884-3.71-1.164-6.372.038-7.158 1.151-.757 3.64.59 6.377 3.854 1.372 1.622 2.747 3.736 4.014 6.223a43.689 43.689 0 0 1 3.144 8.5 43.65 43.65 0 0 1 1.263 8.975c.067 2.792-.142 5.304-.58 7.383-.86 4.171-2.413 6.538-3.786 6.417zm12.317 17.438c-1.34-.484-1.64-3.323-1.354-7.493.29-4.179 1.105-9.71 2.112-15.785.998-6.074 2.005-11.573 3.073-15.625 1.07-4.04 2.265-6.634 3.69-6.66 1.391-.027 2.752 2.579 3.52 6.934.771 4.342.868 10.435-.214 17.014-1.09 6.578-3.14 12.316-5.266 16.18-2.126 3.878-4.252 5.908-5.56 5.435zm-54.246 44.004c-.386-1.383 2.023-3.326 5.915-5.731a240.206 240.206 0 0 1 6.827-4.009c2.545-1.47 5.331-3.083 8.259-4.775l8.184-4.9a237.959 237.959 0 0 1 6.82-4.022c3.994-2.233 6.863-3.395 7.883-2.387.985.968-.122 3.991-3.174 7.855-1.517 1.934-3.546 4.032-5.988 6.15a61.766 61.766 0 0 1-8.55 6.1 61.832 61.832 0 0 1-9.485 4.512c-3.037 1.107-5.857 1.86-8.285 2.248-4.858.79-8.037.29-8.406-1.041zm-29.798 11.297c-1.305-.427-1.814-3.208-.905-7.37.443-2.078 1.293-4.456 2.526-6.965a40.78 40.78 0 0 1 4.988-7.58 40.725 40.725 0 0 1 6.592-6.236c2.255-1.652 4.448-2.904 6.416-3.704 3.94-1.623 6.767-1.607 7.415-.396.682 1.267-.813 3.456-3.261 6.296a329.802 329.802 0 0 1-4.29 4.803c-1.579 1.786-3.297 3.72-5.05 5.791-1.737 2.091-3.34 4.12-4.822 5.987a323.631 323.631 0 0 1-3.978 5.062c-2.37 2.909-4.263 4.763-5.631 4.312zm34.933 51.81c-1.05.89-3.713-.179-6.855-3.159-1.574-1.48-3.21-3.457-4.775-5.827a44.173 44.173 0 0 1-4.148-8.236 44.2 44.2 0 0 1-2.284-8.935c-.376-2.814-.442-5.38-.228-7.53.412-4.31 1.718-6.867 3.094-6.885 1.438-.025 2.698 2.377 4.068 5.998.675 1.817 1.43 3.943 2.223 6.274.825 2.328 1.708 4.858 2.685 7.499.997 2.633 1.994 5.12 2.9 7.415.935 2.282 1.762 4.38 2.447 6.192 1.346 3.63 1.973 6.268.873 7.194zm19.064 4.928c-1.298-.63-1.242-3.512-.775-7.644l.882-7.114c.298-2.643.614-5.518.855-8.545.214-3.03.33-5.918.431-8.577l.19-7.164c.154-4.157.53-7.014 1.908-7.443 1.306-.414 3.423 1.797 5.186 6.121.89 2.153 1.617 4.828 2.098 7.861.443 3.034.616 6.426.363 9.966a46.55 46.55 0 0 1-1.847 9.8c-.928 2.928-2.046 5.464-3.247 7.46-2.39 4.012-4.813 5.882-6.044 5.28zm-89.564 12.844c-.237-2.808 10.434-6.002 23.835-7.133 13.402-1.132 24.458.227 24.695 3.036.237 2.808-10.435 6.002-23.836 7.133-13.401 1.132-24.457-.228-24.694-3.036zm47.142 63.47c-1.355.101-2.978-3.237-3.627-8.985-.155-1.432-.27-3.011-.243-4.704-.036-1.699.111-3.502.279-5.405a61.598 61.598 0 0 1 2.62-12.129 61.536 61.536 0 0 1 5.104-11.31c.998-1.628 1.951-3.165 2.988-4.51a37.899 37.899 0 0 1 2.994-3.638c3.94-4.237 7.229-5.955 8.259-5.069 1.107.943-.142 4.235-2.242 9.052-.522 1.21-1.117 2.504-1.7 3.917-.635 1.382-1.217 2.9-1.89 4.454-1.26 3.155-2.585 6.61-3.82 10.299-1.2 3.7-2.191 7.266-3.052 10.553-.383 1.649-.817 3.216-1.129 4.704-.372 1.482-.662 2.878-.962 4.16-1.176 5.123-2.129 8.512-3.579 8.611zm17.215 26.688c-1.37-.41-1.519-4.2-1.025-9.979.498-5.785 1.564-13.582 2.738-22.184 1.162-8.603 2.213-16.402 3.273-22.111 1.065-5.701 2.22-9.313 3.648-9.344 1.388-.033 2.789 3.571 3.566 9.531.78 5.95.847 14.256-.375 23.297-1.232 9.04-3.51 17.027-5.848 22.553-2.338 5.538-4.647 8.637-5.977 8.237zm-53.164-11.184c.296-1.367 2.474-2.223 5.81-2.3 3.33-.082 7.806.66 12.439 2.398 4.633 1.74 8.492 4.128 10.945 6.38 2.46 2.255 3.538 4.331 2.861 5.556-.687 1.242-2.958 1.423-6.064.91-3.113-.517-7.08-1.695-11.328-3.293-4.251-1.592-8.013-3.316-10.697-4.975-2.676-1.66-4.267-3.29-3.966-4.676zm-1.627 38.438c-.706-1.186.522-3.469 3.515-5.865 1.489-1.2 3.426-2.376 5.703-3.42a36.756 36.756 0 0 1 7.749-2.46 36.812 36.812 0 0 1 8.102-.646c2.505.109 4.742.468 6.573 1.018 3.676 1.089 5.675 2.74 5.468 4.106-.21 1.417-2.475 2.322-5.765 3.103-1.649.382-3.566.775-5.662 1.156l-6.755 1.278-6.737 1.364c-2.086.438-4.01.797-5.682 1.066-3.34.519-5.779.534-6.509-.7zm-49.998 3.962c.946-1.138 5.522 1.203 12.664 4.726.892.441 1.825.902 2.797 1.38.968.483 2.01.92 3.059 1.42 2.082 1.027 4.382 1.96 6.753 3.017 4.806 1.987 10.125 4.009 15.825 5.806 5.716 1.745 11.246 3.09 16.332 4.174 2.553.471 4.977 1.005 7.274 1.337 1.148.18 2.254.411 3.326.561l3.087.447c7.881 1.139 12.979 1.8 13.115 3.272.06.703-1.147 1.45-3.437 2.201-.573.187-1.213.376-1.917.563-.704.173-1.473.307-2.304.456-1.66.278-3.564.611-5.677.72l-3.325.203c-1.16.053-2.36.012-3.611.006-2.504.018-5.162-.224-7.968-.472a100.693 100.693 0 0 1-17.92-3.722 100.59 100.59 0 0 1-16.877-7.078c-2.454-1.383-4.781-2.688-6.836-4.121-1.033-.703-2.046-1.35-2.972-2.05l-2.627-2.05c-1.68-1.285-3.06-2.64-4.272-3.807-.6-.592-1.158-1.14-1.64-1.681a35.952 35.952 0 0 1-1.262-1.55c-1.462-1.915-2.034-3.214-1.587-3.758zm4.07 32.5c1.003-2.635 12.766-.6 26.275 4.543 13.508 5.142 23.647 11.447 22.644 14.08-1.002 2.634-12.767.6-26.275-4.543-13.509-5.143-23.647-11.446-22.644-14.08zm-17.879-51.68c-.119-1.382 2.518-2.936 7.052-3.947 4.516-1.013 10.934-1.376 17.898-.422 6.961.963 13.043 3.046 17.118 5.243 4.093 2.196 6.211 4.405 5.723 5.703-.502 1.34-3.454 1.55-7.788 1.21-4.345-.346-10.1-1.167-16.445-2.046-6.346-.869-12.11-1.633-16.386-2.472-4.265-.845-7.05-1.843-7.172-3.27zm110.499 51.904c-1.41-.173-2.453-1.961-3.221-4.582-.766-2.632-1.3-6.107-1.624-9.944-.333-3.835-.398-7.35-.091-10.075.312-2.715 1.036-4.65 2.396-5.062 1.336-.405 3.08.858 4.632 3.426 1.552 2.554 2.85 6.426 3.23 10.84.376 4.416-.246 8.453-1.34 11.233-1.093 2.795-2.597 4.336-3.982 4.164zm-65.083-75.766c-1.02-.995-.065-3.754 2.013-7.512 2.086-3.765 5.249-8.572 8.837-13.797 3.58-5.23 6.922-9.916 9.679-13.22 2.757-3.292 4.985-5.178 6.282-4.586 1.267.577 1.34 3.575.114 7.93-1.218 4.345-3.804 10.015-7.657 15.646-3.86 5.625-8.216 10.082-11.83 12.785-3.62 2.714-6.443 3.727-7.438 2.754zm-16.84-16.813c-1.345-.344-2.034-2.968-1.678-6.986.35-4.003 1.833-9.373 4.636-14.762 2.813-5.386 6.362-9.68 9.445-12.258 3.088-2.594 5.634-3.533 6.686-2.627 1.083.931.525 3.481-.893 6.93-1.43 3.456-3.67 7.855-6.186 12.67-2.506 4.823-4.83 9.18-6.843 12.331-2.013 3.14-3.783 5.057-5.167 4.702zm29.501-118.38c2.52-1.262 6.412 1.406 8.69 5.96 2.281 4.552 2.087 9.266-.433 10.527-2.52 1.262-6.411-1.405-8.69-5.959-2.28-4.552-2.087-9.266.433-10.528zm6.356-14.854c-2.66-.91-.84-13.258 4.407-27.456 5.238-14.201 11.879-24.77 14.492-23.734 2.627 1.04.274 13.192-4.919 27.268-5.2 14.074-11.309 24.838-13.98 23.922zm-26.735-33.313c.537-5.938 1.374-13.96 1.842-22.83.249-4.869.362-9.49.411-13.656.046-4.167-.216-11.604.695-13.323l3.446-6.5 2.573 7.902c.99 3.037 1.926 6.902 2.515 11.35.585 4.445.821 9.47.553 14.75-.506 9.634-2.612 18.196-5.026 24.02-2.399 5.852-4.897 9.026-6.2 8.585-1.366-.457-1.323-4.364-.81-10.298zm12.744 77.8c-.795 1.12-4.087.435-8.536-2.223-2.226-1.315-4.685-3.166-7.204-5.467a59.12 59.12 0 0 1-7.35-8.294 58.962 58.962 0 0 1-5.608-9.56c-1.408-3.107-2.406-6.018-2.969-8.542-1.148-5.054-.779-8.396.53-8.804 1.377-.434 3.424 2.035 6.1 5.955l4.561 6.832c1.72 2.53 3.598 5.283 5.643 8.124 2.067 2.826 4.104 5.465 5.978 7.883l5.082 6.452c2.897 3.76 4.611 6.471 3.773 7.644zm-41.002 38.731c-1.376-.114-2.543-2.16-2.8-5.557-.136-1.692.003-3.696.436-5.87a29.305 29.305 0 0 1 2.35-6.79 29.309 29.309 0 0 1 3.972-5.989c1.466-1.664 2.974-2.988 4.403-3.908 2.855-1.857 5.188-2.171 6.115-1.148.963 1.06.453 3.192-.67 5.882a82 82 0 0 1-2.083 4.477l-2.588 5.21-2.572 5.22a82.665 82.665 0 0 1-2.295 4.373c-1.456 2.525-2.841 4.223-4.268 4.1zm-7.625 32.975c-.826-1.177.656-3.701 3.21-7.108a339.875 339.875 0 0 1 4.516-5.798c1.673-2.158 3.501-4.5 5.372-6.998 1.852-2.512 3.568-4.939 5.152-7.164a339.5 339.5 0 0 1 4.25-5.992c2.525-3.43 4.514-5.577 5.881-5.126 1.308.428 1.722 3.477.712 8.058-.493 2.286-1.394 4.919-2.674 7.72a51.39 51.39 0 0 1-5.13 8.591 51.369 51.369 0 0 1-6.747 7.388c-2.313 2.036-4.574 3.655-6.622 4.789-4.094 2.286-7.134 2.77-7.92 1.64zm-34.04 39.24c-.946-1-.051-3.689 2.686-6.958 1.359-1.636 3.201-3.362 5.433-5.046a43.79 43.79 0 0 1 7.826-4.595 43.843 43.843 0 0 1 8.624-2.826c2.738-.557 5.253-.796 7.379-.73 4.263.11 6.871 1.219 6.993 2.592.134 1.43-2.13 2.867-5.59 4.485-1.737.8-3.774 1.695-6.013 2.639l-7.197 3.143-7.12 3.315a204.352 204.352 0 0 1-5.957 2.76c-3.505 1.524-6.08 2.268-7.064 1.222zm-27.439 17.595c1.047-.998 3.392-.289 6.508.902l5.304 2.05c1.972.71 4.105 1.457 6.382 2.143 2.285.657 4.482 1.184 6.523 1.657l5.568 1.153c3.266.69 5.62 1.363 5.958 2.77.33 1.32-1.6 3.211-5.458 4.428-.959.298-2.03.568-3.196.72-1.168.206-2.421.257-3.752.29a31.299 31.299 0 0 1-8.527-1.229c-2.941-.88-5.6-2.16-7.831-3.588-1.1-.751-2.126-1.472-2.996-2.278a19.116 19.116 0 0 1-2.297-2.337c-2.581-3.114-3.178-5.748-2.186-6.68zm34.75 35.986c-1.391-2.45.515-6.16 4.258-8.285s7.905-1.86 9.297.59c1.39 2.45-.516 6.16-4.258 8.284-3.743 2.126-7.906 1.862-9.297-.589zm-78.99-17.22c.87-1.152 3.94-.348 8.342 1.27 2.199.82 4.767 1.799 7.582 2.885 2.83 1.055 5.916 2.202 9.185 3.326 3.277 1.1 6.422 2.07 9.31 2.958 2.894.852 5.527 1.642 7.77 2.33 4.476 1.397 7.402 2.63 7.39 4.073-.006 1.373-3.056 2.705-8.161 3.102-2.548.206-5.588.116-8.931-.303a58.432 58.432 0 0 1-10.66-2.498 58.266 58.266 0 0 1-9.976-4.513c-2.908-1.705-5.374-3.483-7.267-5.2-3.808-3.425-5.414-6.34-4.584-7.43zm93.963-416.253c-.233-1.358 2.524-3.187 7.428-4.523 2.446-.674 5.42-1.166 8.753-1.416a62.3 62.3 0 0 1 10.852.25 62.112 62.112 0 0 1 10.628 2.199c3.19.992 5.978 2.144 8.21 3.351 4.475 2.405 6.75 4.808 6.219 6.078-.553 1.327-3.728 1.326-8.402.802a363.222 363.222 0 0 1-8.075-1.054c-3.01-.392-6.287-.832-9.737-1.235-3.453-.384-6.746-.692-9.765-.988a350.965 350.965 0 0 1-8.105-.793c-4.673-.541-7.767-1.255-8.006-2.671zm-11.122 60.887c-1.16-.783-.82-3.601.833-7.488 1.648-3.885 4.64-8.818 8.664-13.701 4.025-4.88 8.298-8.76 11.796-11.119 3.502-2.365 6.202-3.238 7.192-2.247 1.986 2.037-3.445 10.522-11.114 19.857-7.7 9.309-14.992 16.258-17.371 14.698zm9.695 51.867c-2.355 1.546-8.613-3.82-13.976-11.988-5.363-8.168-7.8-16.043-5.446-17.59 2.355-1.546 8.613 3.82 13.977 11.988 5.363 8.168 7.8 16.043 5.445 17.59zm9.428 53.912c-1.327-.578-1.44-3.331-1.286-7.246l.298-6.722c.067-2.493.119-5.196.068-8.036-.083-2.84-.264-5.539-.448-8.025l-.619-6.7c-.338-3.903-.357-6.659.941-7.3 1.221-.61 3.617 1.136 5.906 5.018.566.968 1.137 2.059 1.625 3.278.54 1.207.96 2.545 1.388 3.966a40.721 40.721 0 0 1 1.41 9.52 40.76 40.76 0 0 1-.957 9.576c-.36 1.44-.716 2.795-1.198 4.028-.43 1.24-.949 2.356-1.467 3.35-2.103 3.987-4.413 5.846-5.661 5.293zm-10.758 50.92c-1-1.054.435-4.052 2.788-8.371.586-1.085 1.248-2.24 1.907-3.508.705-1.231 1.371-2.596 2.125-3.983 1.434-2.827 2.95-5.926 4.4-9.248 1.418-3.336 2.628-6.567 3.697-9.549.49-1.502 1.025-2.923 1.434-4.282.469-1.35.855-2.623 1.24-3.796 1.522-4.676 2.715-7.78 4.169-7.776 1.358-.005 2.74 3.239 2.987 8.703a34.25 34.25 0 0 1-.082 4.45c-.084 1.604-.352 3.292-.649 5.074a55.644 55.644 0 0 1-3.422 11.214 55.537 55.537 0 0 1-5.798 10.19c-1.091 1.439-2.132 2.795-3.241 3.957a34.298 34.298 0 0 1-3.178 3.117c-4.14 3.575-7.446 4.8-8.377 3.808zm12.212 58.543c-1.087.86-3.558-.13-6.459-2.81-2.894-2.663-6.127-7.075-8.47-12.55-2.334-5.48-3.285-10.866-3.207-14.798.072-3.948 1.065-6.42 2.439-6.609 1.415-.198 2.947 1.834 4.603 5.03 1.654 3.207 3.51 7.57 5.55 12.37 2.056 4.793 3.924 9.15 5.096 12.565 1.161 3.405 1.57 5.916.448 6.802zm-70.843 27.292c.205-1.415 2.755-2.293 6.569-2.969 3.825-.67 8.929-1.218 14.543-1.862 5.614-.657 10.707-1.29 14.585-1.513 3.867-.214 6.55.057 7.073 1.39.508 1.287-1.316 3.43-4.981 5.516-1.827 1.048-4.116 2.037-6.743 2.882a48.72 48.72 0 0 1-8.758 1.863c-3.162.359-6.206.39-8.953.19-2.751-.223-5.205-.661-7.223-1.264-4.046-1.193-6.311-2.862-6.112-4.233zm28.04 28.026c-.643-1.267.415-3.207 2.427-5.441 2.022-2.238 4.979-4.81 8.386-7.431 3.402-2.63 6.641-4.835 9.32-6.22 2.674-1.378 4.818-1.907 5.88-.964 1.046.927.771 3.198-.772 6.06-1.531 2.854-4.377 6.257-8.197 9.206-3.823 2.944-7.837 4.83-10.987 5.585-3.16.764-5.427.452-6.057-.795zm-52.731 29.881c.35-1.41 3.832-1.767 9.056-2.012 1.309-.064 2.726-.101 4.245-.198 1.512-.038 3.123-.177 4.809-.253 3.369-.24 7.042-.548 10.883-1.022 3.838-.51 7.469-1.14 10.79-1.756 1.65-.352 3.243-.625 4.717-.97 1.494-.29 2.873-.61 4.158-.877 5.116-1.083 8.576-1.614 9.27-.338.658 1.191-1.68 4.04-6.574 7.03a38.31 38.31 0 0 1-4.122 2.195c-1.511.744-3.19 1.375-4.967 2.029a62.484 62.484 0 0 1-11.975 2.808c-4.34.54-8.526.585-12.294.304-1.885-.186-3.668-.371-5.319-.71a38.338 38.338 0 0 1-4.542-1.085c-5.491-1.659-8.471-3.825-8.135-5.145zm-45.897 19.362c.808-1.237 4.311-.307 9.532.926.657.145 1.34.306 2.04.484.704.173 1.46.283 2.215.45 1.508.36 3.154.574 4.85.886 3.424.489 7.175.883 11.136.996 3.961.059 7.725-.172 11.168-.513 1.707-.239 3.363-.38 4.883-.677.763-.133 1.523-.21 2.233-.35.707-.15 1.396-.281 2.06-.397 5.27-1.006 8.809-1.783 9.563-.514.355.608-.084 1.605-1.253 2.922-.291.329-.629.678-1.012 1.044-.388.353-.835.69-1.318 1.06-.975.715-2.1 1.556-3.452 2.246-.67.366-1.379.738-2.126 1.118-.748.373-1.56.67-2.392 1.014-1.662.717-3.512 1.231-5.471 1.78a52.23 52.23 0 0 1-13.104 1.47 52.206 52.206 0 0 1-13.029-2.035c-1.932-.633-3.758-1.228-5.388-2.017-.818-.379-1.615-.712-2.347-1.115a87.057 87.057 0 0 1-2.074-1.208c-1.323-.751-2.41-1.639-3.352-2.396-.467-.389-.9-.746-1.273-1.114a18.598 18.598 0 0 1-.964-1.089c-1.111-1.365-1.507-2.38-1.125-2.971zm28.027-45.924c-.744-1.16.736-3.7 4.2-6.49 1.722-1.402 3.953-2.806 6.572-4.097a47.076 47.076 0 0 1 8.92-3.21 47.076 47.076 0 0 1 9.389-1.294c2.918-.07 5.546.138 7.722.58 4.364.866 6.852 2.43 6.731 3.8-.122 1.434-2.722 2.436-6.611 3.415a252.6 252.6 0 0 1-6.732 1.542c-2.499.572-5.219 1.18-8.063 1.868-2.839.71-5.529 1.434-8.007 2.087-2.468.68-4.731 1.274-6.68 1.755-3.9.937-6.668 1.255-7.441.044zm57.383-313.665c-1.359-.04-2.654-2.615-2.731-6.977a21.713 21.713 0 0 1 .222-3.533c.137-1.273.458-2.592.811-3.985a35.204 35.204 0 0 1 3.74-8.532 35.244 35.244 0 0 1 5.925-7.187c1.084-.946 2.115-1.826 3.19-2.522a21.437 21.437 0 0 1 3.053-1.793c3.928-1.901 6.81-1.906 7.459-.714.702 1.27-.763 3.452-2.98 6.372-.555.734-1.173 1.5-1.792 2.355-.659.81-1.286 1.734-1.99 2.647-1.347 1.889-2.776 3.95-4.172 6.187-1.367 2.256-2.562 4.46-3.638 6.514-.496 1.041-1.039 2.019-1.466 2.973-.483.938-.887 1.835-1.292 2.661-1.605 3.295-2.89 5.588-4.34 5.534zm-20.925 20.579c-.5-1.334 1.875-3.554 5.935-6.27 4.067-2.714 9.802-5.975 16.205-9.417 6.397-3.45 12.276-6.441 16.781-8.342 4.501-1.894 7.663-2.654 8.501-1.503.82 1.126-.872 3.975-4.501 7.51-3.619 3.53-9.21 7.69-15.944 11.32-6.737 3.624-13.29 6.001-18.23 7.08-4.948 1.083-8.258.927-8.747-.378zm-52.227-48.835c-.58-1.247 1.78-3.826 6.459-6.524 2.333-1.355 5.254-2.68 8.606-3.865a68.64 68.64 0 0 1 11.205-2.805 68.509 68.509 0 0 1 11.523-.82c3.554.084 6.742.434 9.38.996 5.287 1.108 8.334 2.824 8.17 4.19-.17 1.43-3.427 2.268-8.4 3.023-2.491.366-5.42.765-8.643 1.18-3.222.45-6.74.932-10.422 1.507-3.68.6-7.173 1.236-10.375 1.811-3.192.608-6.1 1.14-8.58 1.566-4.962.831-8.32 1.047-8.923-.26zm-31.156 25.685c-.052-2.818 12.821-5.344 28.756-5.644 15.934-.298 28.894 1.744 28.949 4.561.052 2.817-12.823 5.344-28.758 5.644-15.934.299-28.895-1.742-28.947-4.56zm63.323 43.831c-1.374-.012-2.684-3.271-3.07-8.692-.201-2.706-.108-5.93.308-9.485a67.04 67.04 0 0 1 2.467-11.36 67.07 67.07 0 0 1 4.46-10.736c1.686-3.154 3.45-5.857 5.161-7.962 3.409-4.23 6.346-6.159 7.482-5.385 1.193.806.433 4.091-1.164 8.873a702 702 0 0 1-2.87 8.255c-1.054 3.083-2.203 6.448-3.332 10.008-1.104 3.567-2.081 6.985-2.978 10.119-.86 3.14-1.658 5.99-2.356 8.415-1.416 4.837-2.667 7.97-4.108 7.95zm17.875 43.713c-1.27-.539-1.173-4.185.555-9.57.855-2.691 2.162-5.783 3.874-9.087a79.16 79.16 0 0 1 6.46-10.221 79.122 79.122 0 0 1 7.989-9.078c2.688-2.574 5.287-4.699 7.629-6.277 4.679-3.174 8.151-4.295 9.025-3.227.913 1.11-.873 4.157-4.041 8.445-1.592 2.14-3.5 4.63-5.627 7.353l-6.806 8.9-6.622 9.035a406.212 406.212 0 0 1-5.47 7.47c-3.223 4.248-5.644 6.82-6.966 6.257zm26.89 56.184c-2.817-.046-4.894-12.466-4.638-27.739.257-15.272 2.747-27.614 5.566-27.568 2.818.05 4.894 12.466 4.638 27.739-.255 15.273-2.748 27.617-5.566 27.568zm5.586 36.424c-1.15-.886-.17-4.109 1.557-8.8.43-1.178.924-2.439 1.403-3.81.53-1.344 1.004-2.813 1.565-4.32 1.038-3.053 2.13-6.393 3.134-9.945.97-3.56 1.755-6.984 2.438-10.136.297-1.58.647-3.084.885-4.509.297-1.422.522-2.758.762-3.988.936-4.91 1.757-8.178 3.2-8.344 1.351-.165 3.101 2.936 4.015 8.385.222 1.359.41 2.858.47 4.472.116 1.618.064 3.344-.003 5.167a58.041 58.041 0 0 1-1.935 11.682 58.078 58.078 0 0 1-4.362 11.009c-.882 1.597-1.725 3.102-2.66 4.43a35.874 35.874 0 0 1-2.707 3.59c-3.591 4.198-6.688 5.953-7.762 5.117zm-36.384 46.643c-.439-1.37 2.283-3.517 6.685-6.31 2.208-1.387 4.82-2.989 7.71-4.728 2.876-1.77 6.022-3.691 9.29-5.765 3.258-2.094 6.325-4.138 9.14-6.002a461.62 461.62 0 0 1 7.537-5.006c4.383-2.816 7.476-4.382 8.535-3.407 1.016.93-.249 4.29-3.633 8.703-1.683 2.208-3.928 4.63-6.627 7.101a74.067 74.067 0 0 1-9.46 7.212 74.08 74.08 0 0 1-10.521 5.545c-3.38 1.41-6.52 2.427-9.232 3.024-5.427 1.213-9.007.946-9.424-.367zm-22.459-18.09c-1.223-.614-1.285-3.518.365-7.594.414-1.013.92-2.103 1.572-3.204.613-1.134 1.397-2.256 2.24-3.43a40.27 40.27 0 0 1 6.5-6.767 40.295 40.295 0 0 1 7.934-5.01c1.32-.59 2.576-1.133 3.81-1.507a24.477 24.477 0 0 1 3.454-.897c4.325-.798 7.158-.154 7.512 1.166.381 1.394-1.634 3.198-4.711 5.484l-5.324 3.874c-1.951 1.461-4.062 3.052-6.223 4.797-2.143 1.768-4.126 3.515-5.949 5.134l-4.863 4.438c-2.856 2.556-5.028 4.168-6.317 3.515zm-105.86-201.31c-1.028-.914.29-4.414 3.801-9.05 1.746-2.32 4.073-4.873 6.874-7.487a78.508 78.508 0 0 1 9.823-7.65 78.602 78.602 0 0 1 10.942-5.937c3.516-1.52 6.787-2.63 9.613-3.3 5.654-1.363 9.389-1.169 9.815.14.45 1.368-2.407 3.58-7.016 6.51a683.583 683.583 0 0 1-8.068 4.99c-3.007 1.876-6.291 3.922-9.7 6.138-3.393 2.235-6.583 4.425-9.506 6.429a688.42 688.42 0 0 1-7.803 5.394c-4.529 3.052-7.702 4.783-8.775 3.823zm-55.256 55.872c-.694.125-1.463-.558-2.27-1.988a16.127 16.127 0 0 1-.61-1.21c-.188-.45-.339-.948-.506-1.488-.31-1.077-.688-2.33-.832-3.733a65.29 65.29 0 0 1-.256-2.218c-.07-.775-.047-1.576-.057-2.413-.05-1.684.166-3.456.392-5.334a43.814 43.814 0 0 1 3.602-11.707 43.783 43.783 0 0 1 6.85-10.156c1.32-1.354 2.562-2.634 3.903-3.652.66-.519 1.268-1.041 1.915-1.473a65.645 65.645 0 0 1 1.886-1.192c1.182-.77 2.395-1.264 3.429-1.7.525-.208 1.006-.403 1.476-.538.477-.123.92-.217 1.324-.284 1.62-.273 2.634-.101 2.973.516.7 1.302-1.51 3.788-4.562 7.532-.377.478-.776.966-1.195 1.462-.416.5-.795 1.074-1.224 1.622-.88 1.073-1.68 2.335-2.584 3.584-1.7 2.594-3.43 5.492-4.985 8.68-1.504 3.213-2.673 6.379-3.624 9.33-.405 1.487-.885 2.902-1.167 4.261-.156.679-.365 1.334-.494 1.972a55.365 55.365 0 0 1-.387 1.847c-.997 4.726-1.545 8.01-2.997 8.28zm-9.61 53.412c-.92-1.141 1.646-4.699 5.659-10.09.503-.672 1.029-1.374 1.576-2.108.552-.726 1.079-1.518 1.66-2.305 1.18-1.558 2.328-3.304 3.593-5.083 2.438-3.632 5.017-7.66 7.512-12.017 2.457-4.38 4.586-8.662 6.45-12.62.876-1.998 1.785-3.88 2.514-5.693.377-.903.786-1.763 1.125-2.608l.998-2.436c2.564-6.212 4.298-10.242 5.75-10.039 1.334.179 2.13 4.688 1.23 11.869-.12.894-.26 1.83-.416 2.804-.16.973-.405 1.965-.632 3.003-.431 2.085-1.105 4.253-1.818 6.537a84.45 84.45 0 0 1-6.322 14.214 84.374 84.374 0 0 1-8.946 12.729c-1.595 1.785-3.108 3.475-4.674 4.917-.775.728-1.5 1.45-2.252 2.087a119.1 119.1 0 0 1-2.192 1.797c-5.698 4.462-9.975 6.095-10.814 5.042zm120.68-70.551c-.694 2.731-16.01 1.204-34.213-3.411-18.201-4.615-32.395-10.571-31.701-13.303.692-2.731 16.009-1.204 34.21 3.411 18.202 4.615 32.396 10.571 31.703 13.303zm39.42 15.651c-.691.14-1.605-.732-2.638-2.33-.259-.4-.524-.846-.794-1.335-.304-.477-.63-.992-.98-1.544-.698-1.098-1.325-2.386-2.25-3.7a93.905 93.905 0 0 1-1.321-2.094c-.454-.725-1.026-1.427-1.543-2.184-.996-1.539-2.291-3.025-3.538-4.643-2.668-3.118-5.78-6.347-9.385-9.379-3.656-2.97-7.416-5.418-10.98-7.45-1.824-.919-3.527-1.91-5.227-2.599-.84-.364-1.638-.793-2.434-1.103-.8-.3-1.57-.601-2.307-.901-1.465-.663-2.847-1.034-4.057-1.514l-1.703-.67a24.658 24.658 0 0 1-1.459-.528c-1.764-.714-2.792-1.448-2.786-2.152.006-.704 1.06-1.317 3.063-1.812.5-.125 1.06-.24 1.675-.348.613-.086 1.276-.106 1.995-.142 1.431-.038 3.1-.13 4.889.133.901.1 1.847.22 2.836.359.986.146 1.975.428 3.02.67 2.113.442 4.249 1.265 6.52 2.11a55.646 55.646 0 0 1 13.455 8.081 55.708 55.708 0 0 1 10.47 11.69c1.261 2.07 2.47 4.014 3.304 6.004.434.982.898 1.9 1.228 2.84.321.946.616 1.854.885 2.72.596 1.706.82 3.362 1.053 4.776.1.712.205 1.366.237 1.985.01.625.001 1.196-.027 1.71-.108 2.06-.511 3.211-1.201 3.35zm-23.306 35.414c-.337-1.393 1.978-3.214 5.695-5.396a188.433 188.433 0 0 1 6.521-3.6l7.899-4.227c2.785-1.528 5.435-2.98 7.857-4.307a188.146 188.146 0 0 1 6.577-3.497c3.859-1.922 6.648-2.864 7.63-1.822.951 1.003-.141 3.868-3.117 7.453-1.48 1.794-3.452 3.723-5.822 5.654a56.692 56.692 0 0 1-8.264 5.491 56.785 56.785 0 0 1-9.114 3.924c-2.912.929-5.605 1.527-7.916 1.787-4.629.534-7.624-.115-7.946-1.46zm-64.922 10.558c-.65-.27-.877-1.393-.696-3.257.046-.467.117-.98.213-1.536.11-.55.278-1.125.458-1.75.376-1.236.798-2.673 1.5-4.139.333-.743.694-1.52 1.082-2.326.394-.804.884-1.586 1.364-2.422.938-1.688 2.158-3.342 3.444-5.093a59.118 59.118 0 0 1 9.97-9.966 59.186 59.186 0 0 1 12.138-7.169c2.018-.808 3.922-1.575 5.792-2.063.928-.257 1.809-.535 2.685-.715.878-.176 1.72-.331 2.523-.468 1.596-.315 3.091-.365 4.383-.421.649-.018 1.248-.037 1.808-.007.563.047 1.077.106 1.54.178 1.852.29 2.883.789 2.98 1.485.2 1.466-3.339 3.089-8.572 5.656-.653.332-1.336.668-2.048 1.004-.71.342-1.421.769-2.172 1.153-1.518.741-3.056 1.692-4.7 2.603-3.228 1.95-6.673 4.203-10.106 6.83-3.4 2.67-6.442 5.443-9.136 8.083-1.293 1.365-2.597 2.617-3.693 3.9-.56.632-1.15 1.215-1.659 1.817a79.155 79.155 0 0 1-1.482 1.732c-3.794 4.428-6.248 7.448-7.616 6.89zm64.341 8.621c.23-1.423 3.4-2.133 8.175-2.764l8.274-1.015c3.079-.407 6.432-.86 9.941-1.43 3.505-.598 6.825-1.255 9.87-1.868l8.156-1.719c4.72-.95 7.95-1.306 8.63-.031.65 1.206-1.465 3.876-5.893 6.708-2.204 1.422-4.998 2.815-8.227 4.06a60.036 60.036 0 0 1-10.86 2.916 60.006 60.006 0 0 1-11.219.759c-3.459-.132-6.553-.545-9.099-1.175-5.106-1.246-7.972-3.088-7.748-4.44zm-1.844 31.82c-.916 1.012-4.113-.042-8.167-3.29a32.847 32.847 0 0 1-3.124-2.845c-1.092-1.065-2.13-2.31-3.217-3.636a53.694 53.694 0 0 1-5.894-9.43 53.773 53.773 0 0 1-3.735-10.479c-.363-1.673-.695-3.26-.852-4.778a32.83 32.83 0 0 1-.292-4.215c-.029-5.196 1.13-8.356 2.492-8.444 1.445-.1 2.844 2.756 4.597 7.09l3.017 7.502c1.173 2.771 2.476 5.775 3.96 8.879 1.512 3.09 3.059 5.977 4.503 8.616l4.006 7.023c2.31 4.066 3.68 6.935 2.706 8.006zm10.688 6.55c-.179-1.414 2.148-2.963 5.885-4.583 3.747-1.62 8.896-3.372 14.607-5.18 5.706-1.814 10.924-3.352 14.919-4.19 3.988-.83 6.782-.906 7.45.353.654 1.228-.99 3.588-4.425 6.2-3.422 2.608-8.667 5.396-14.858 7.366-6.195 1.961-12.087 2.706-16.386 2.547-4.312-.153-7.017-1.132-7.192-2.513zm3.24 69.178c-.635.306-1.514-.051-2.597-1.055-.272-.25-.554-.542-.848-.872-.28-.336-.532-.723-.811-1.142-.534-.847-1.17-1.832-1.614-3.007-.242-.581-.486-1.2-.728-1.852-.236-.653-.387-1.35-.578-2.073-.412-1.446-.588-3.027-.774-4.704a35.108 35.108 0 0 1 .957-10.86 35.127 35.127 0 0 1 4.398-9.978c.971-1.381 1.886-2.68 2.945-3.75.515-.54.983-1.078 1.505-1.536a47.34 47.34 0 0 1 1.533-1.273c.954-.814 1.986-1.372 2.862-1.854.447-.235.853-.452 1.26-.611.417-.148.806-.267 1.163-.356 1.434-.357 2.376-.247 2.785.327.844 1.21-.698 3.697-2.68 7.293-.244.457-.503.925-.78 1.4-.27.48-.495 1.02-.77 1.54-.573 1.022-1.034 2.2-1.595 3.37-1 2.416-1.973 5.081-2.742 7.967-.716 2.898-1.15 5.702-1.437 8.3-.073 1.297-.238 2.551-.228 3.722-.01.588-.074 1.17-.067 1.721.013.55.015 1.085.007 1.602.004 4.107.157 7.03-1.166 7.681zm26.76 34.757c.177-1.445 3.83-2.186 9.374-3.077.693-.119 1.418-.23 2.17-.338.752-.112 1.53-.274 2.334-.4 1.61-.232 3.311-.59 5.1-.89 3.567-.703 7.447-1.53 11.479-2.582 4.023-1.086 7.803-2.289 11.248-3.449 1.704-.623 3.359-1.156 4.873-1.754.76-.29 1.517-.533 2.225-.81.705-.279 1.39-.54 2.052-.78 5.256-1.973 8.797-3.142 9.666-1.975.817 1.084-1.288 4.39-6.071 8.23-.6.474-1.237.959-1.91 1.457-.674.495-1.409.95-2.163 1.44-1.5 1-3.195 1.901-4.989 2.845a67.35 67.35 0 0 1-12.314 4.66 67.398 67.398 0 0 1-13.005 2.057c-2.026.07-3.944.127-5.743 0-.898-.052-1.763-.08-2.592-.177a83.592 83.592 0 0 1-2.381-.318c-6.058-.965-9.525-2.793-9.353-4.14zm-13.744 13.547c-1.174.712-3.522-.558-5.916-3.74-1.2-1.58-2.342-3.645-3.309-6.071a34.537 34.537 0 0 1-2.029-8.223c-.333-2.998-.25-5.89.105-8.47.39-2.582 1.031-4.854 1.84-6.665 1.609-3.644 3.606-5.414 4.91-4.989 1.371.442 1.873 2.86 2.196 6.257.146 1.701.302 3.67.448 5.808.182 2.144.373 4.461.638 6.89.294 2.426.635 4.724.945 6.854.345 2.115.641 4.067.885 5.758.458 3.381.522 5.85-.713 6.59zm-51.093 14.243c.481-1.366 3.624-1.532 8.242-1.435 2.294.056 4.994.12 7.981.191 2.97.023 6.204.019 9.598-.107 3.391-.155 6.614-.418 9.573-.684l7.938-.851c4.594-.479 7.74-.573 8.331.749.564 1.243-1.646 3.736-6.183 6.14a32.495 32.495 0 0 1-3.81 1.716c-1.392.573-2.93 1.026-4.558 1.49a53.054 53.054 0 0 1-10.87 1.637 53.051 53.051 0 0 1-10.967-.733c-1.66-.329-3.23-.654-4.667-1.109a32.303 32.303 0 0 1-3.937-1.396c-4.72-2.02-7.13-4.323-6.67-5.608zm-13.224 27.796c.93-1.102 3.782-.28 7.794 1.325 2.003.817 4.337 1.785 6.887 2.863 2.567 1.045 5.36 2.18 8.324 3.3 2.971 1.094 5.827 2.065 8.453 2.955 2.632.856 5.03 1.65 7.08 2.345 4.084 1.413 6.776 2.66 6.758 4.1-.014 1.373-2.852 2.693-7.624 3.064-2.38.195-5.218.09-8.335-.347a50.988 50.988 0 0 1-9.898-2.555 50.93 50.93 0 0 1-9.153-4.548c-2.642-1.711-4.857-3.488-6.528-5.195-3.365-3.404-4.646-6.262-3.758-7.307zm-49.724-212.605c-1.379-.15-2.435-2.623-2.622-6.615-.193-3.976.588-9.45 2.725-15.081 2.146-5.63 5.203-10.237 7.989-13.078 2.793-2.857 5.227-4.003 6.357-3.2 1.166.826.869 3.385-.16 6.898-1.04 3.522-2.75 8.04-4.649 13.009-1.884 4.973-3.61 9.487-5.173 12.808-1.567 3.31-3.047 5.419-4.467 5.26zm8.054 24.765c.037-1.424 1.906-2.621 4.734-3.658 2.842-1.035 6.649-1.96 10.867-2.788 4.217-.836 8.09-1.427 11.11-1.551 3.012-.116 5.195.284 5.77 1.585.565 1.275-.646 3.243-3.307 5.2-2.647 1.953-6.77 3.822-11.597 4.778-4.827.95-9.352.786-12.542-.015-3.206-.798-5.074-2.16-5.035-3.551zm22.402 59.094c-1.308.369-3.273-1.553-4.584-5.47a19.378 19.378 0 0 1-.787-3.253c-.23-1.19-.298-2.47-.354-3.83a31.532 31.532 0 0 1 1.161-8.725 31.548 31.548 0 0 1 3.617-8.024c.765-1.125 1.497-2.178 2.32-3.067.774-.918 1.6-1.689 2.386-2.348 3.18-2.636 5.863-3.23 6.78-2.23.988 1.062.217 3.422-1.022 6.58-.31.794-.669 1.63-1.005 2.542-.384.882-.708 1.861-1.106 2.843-.722 2.007-1.475 4.18-2.156 6.503-.647 2.333-1.155 4.578-1.6 6.663-.179 1.044-.42 2.046-.56 2.997-.196.955-.331 1.852-.487 2.692-.614 3.337-1.203 5.748-2.603 6.127zm10.806 39.786c-.704.026-1.377-.926-1.99-2.742-.154-.453-.302-.96-.447-1.519-.13-.558-.217-1.165-.316-1.821-.175-1.314-.39-2.828-.367-4.49a99.8 99.8 0 0 1 .007-2.626c.021-.914.138-1.852.223-2.833.143-1.971.553-4.032.984-6.211a62.336 62.336 0 0 1 4.84-13.583 62.416 62.416 0 0 1 7.98-12.01c1.488-1.65 2.893-3.212 4.386-4.506.734-.657 1.415-1.312 2.136-1.875a95.053 95.053 0 0 1 2.097-1.578c1.318-1.015 2.66-1.749 3.815-2.394.586-.314 1.125-.609 1.65-.837.533-.22 1.03-.404 1.484-.553 1.821-.596 2.987-.628 3.388-.049.835 1.22-1.683 4.317-5.363 9.062a85.442 85.442 0 0 1-1.442 1.856c-.502.638-.971 1.353-1.493 2.048-1.069 1.374-2.069 2.946-3.185 4.532-2.119 3.262-4.307 6.9-6.329 10.875-1.973 4-3.576 7.93-4.92 11.58-.603 1.845-1.263 3.587-1.722 5.266-.244.834-.536 1.638-.746 2.421a85.87 85.87 0 0 1-.624 2.265c-1.596 5.79-2.57 9.662-4.046 9.722zm-16.649 24.665c-.172-1.45 2.663-2.966 6.849-5.096a53.69 53.69 0 0 1 1.639-.823c.568-.279 1.14-.62 1.742-.926 1.216-.593 2.455-1.341 3.778-2.048 2.607-1.514 5.4-3.23 8.223-5.203 2.8-2.007 5.346-4.072 7.64-6.025 1.107-1.014 2.224-1.935 3.187-2.884.49-.467 1.002-.893 1.453-1.336.448-.445.889-.87 1.321-1.272 3.399-3.239 5.771-5.41 7.083-4.764.63.314.864 1.292.713 2.848a11.78 11.78 0 0 1-.581 2.712c-.329 1.012-.711 2.182-1.32 3.366-.29.6-.607 1.229-.948 1.877-.345.646-.766 1.274-1.184 1.943-.82 1.352-1.865 2.669-2.976 4.058a47.48 47.48 0 0 1-8.492 7.807 47.478 47.478 0 0 1-10.185 5.413c-1.68.588-3.268 1.135-4.816 1.459-.77.173-1.502.361-2.226.471-.727.107-1.422.197-2.086.27-1.318.18-2.549.152-3.613.126a11.81 11.81 0 0 1-2.75-.353c-1.52-.375-2.363-.92-2.45-1.62zm3.618 28.296c-.463-1.351 2.2-3.568 6.64-6.34 4.45-2.773 10.654-6.176 17.5-9.922 6.839-3.757 13.045-7.159 17.776-9.42 4.725-2.253 8.024-3.306 8.915-2.189.868 1.085-.88 4.167-4.719 8.06-3.827 3.887-9.803 8.508-17.066 12.498-7.269 3.978-14.378 6.532-19.713 7.668-5.347 1.144-8.886.96-9.333-.355zm-35.063 65.194c-.09-1.376 3.706-2.961 10.072-3.904 3.18-.48 6.992-.746 11.23-.754 4.237.022 8.899.32 13.745.994 4.843.695 9.404 1.702 13.481 2.855 4.071 1.182 7.662 2.494 10.583 3.836 5.855 2.67 9.062 5.243 8.595 6.54-.486 1.354-4.497 1.209-10.603.391a519.737 519.737 0 0 1-10.609-1.586l-12.875-1.932c-4.575-.606-8.933-1.185-12.906-1.713a506.69 506.69 0 0 1-10.634-1.415c-6.092-.907-9.986-1.878-10.079-3.312zm28.59 33.863c.545-2.746 14.32-2.322 30.538 1.908 16.223 4.207 28.459 10.546 27.597 13.209-.87 2.702-14.258.79-30.167-3.333-15.9-4.148-28.523-9.002-27.968-11.784zm-95.803-29.916c1.004-1.047 4.219.387 8.895 2.806 1.174.603 2.43 1.285 3.8 1.968 1.338.73 2.812 1.424 4.318 2.21 3.057 1.494 6.411 3.086 9.996 4.622 3.598 1.502 7.076 2.802 10.277 3.957 1.613.535 3.136 1.11 4.592 1.56 1.445.511 2.808.937 4.058 1.36 4.993 1.672 8.26 2.983 8.206 4.433-.041 1.361-3.522 2.615-9.283 2.703a39.21 39.21 0 0 1-4.687-.207c-1.689-.124-3.462-.434-5.335-.77a63.673 63.673 0 0 1-11.805-3.64 63.848 63.848 0 0 1-10.831-5.941c-1.546-1.109-3.003-2.168-4.268-3.292a38.978 38.978 0 0 1-3.41-3.222c-3.95-4.195-5.472-7.568-4.523-8.547zm38.555-13.411c-.992-.973-.17-3.69 2.316-7.14 2.47-3.445 6.67-7.554 12.058-11.04 5.39-3.477 10.862-5.618 15.018-6.455 4.167-.848 6.983-.48 7.462.822.495 1.341-1.369 3.349-4.508 5.762-3.153 2.415-7.559 5.302-12.435 8.444-4.868 3.152-9.31 5.983-12.807 7.864-3.491 1.87-6.088 2.745-7.104 1.743zm12.092-56.266c.034-1.358 3.349-2.644 8.868-2.721 1.375-.013 2.885.03 4.487.223 1.617.133 3.311.457 5.1.81a56.395 56.395 0 0 1 11.208 3.795 56.125 56.125 0 0 1 10.107 6.155c1.42 1.143 2.757 2.234 3.897 3.386a34.598 34.598 0 0 1 3.052 3.296c3.486 4.28 4.63 7.646 3.611 8.546-1.084.968-4.059-.582-8.34-3.096-1.078-.627-2.223-1.333-3.482-2.038-1.221-.753-2.579-1.467-3.957-2.273-2.809-1.535-5.892-3.162-9.205-4.728-3.326-1.533-6.554-2.852-9.536-4.018-1.503-.54-2.921-1.12-4.282-1.573-1.35-.512-2.626-.937-3.798-1.36-4.678-1.667-7.776-2.951-7.73-4.404zm-25.179-39.597c-.44-1.309 1.87-3.494 6.284-5.528 2.2-1.024 4.925-1.955 8.027-2.708a58.85 58.85 0 0 1 10.264-1.449c3.68-.172 7.197.013 10.358.428 3.16.444 5.966 1.102 8.255 1.902 4.593 1.59 7.108 3.536 6.798 4.88-.318 1.4-3.316 1.972-7.798 2.268-2.245.138-4.874.253-7.761.34-2.88.115-6.034.241-9.348.375l-9.337.55c-2.882.197-5.51.341-7.758.427-4.49.148-7.529-.124-7.984-1.485zm3.448-30.049c-.77-1.147.487-3.593 3.564-6.315 1.53-1.365 3.527-2.749 5.885-4.04a43.383 43.383 0 0 1 8.074-3.313 43.375 43.375 0 0 1 8.583-1.581c2.681-.19 5.11-.106 7.135.213 4.062.624 6.441 2.002 6.414 3.383-.024 1.433-2.348 2.623-5.858 3.811-1.76.587-3.82 1.217-6.087 1.857l-7.31 2.108c-2.58.774-5.04 1.509-7.288 2.183a142.962 142.962 0 0 1-6.124 1.732c-3.594.897-6.192 1.155-6.988-.038zm-26.26-40.001c-.796-2.705 11.167-8.603 26.718-13.175 7.78-2.287 14.97-3.806 20.34-4.421 2.733-.338 5.252-.332 6.945.132 1.712.45 2.544 1.214 2.502 1.902-.04.714-.855 1.315-2.103 2.05-1.27.732-2.966 1.66-5.322 2.843-4.822 2.379-11.71 5-19.483 7.285-15.551 4.573-28.803 6.088-29.598 3.384zm-29.715-181.202c.207-1.372 3.038-2.28 7.53-2.237 4.476.037 10.593 1.127 16.918 3.597 6.32 2.478 11.552 5.83 14.865 8.84 3.328 3.016 4.79 5.605 4.01 6.753-.801 1.183-3.639.75-7.638-.515-4.007-1.276-9.217-3.321-14.956-5.575-5.745-2.241-10.96-4.273-14.769-6.056-3.795-1.784-6.174-3.394-5.96-4.807zm23.773 134.693c-1.195-.764-1.09-3.261-.13-6.694.964-3.437 2.752-7.83 5.033-12.512 2.278-4.688 4.63-8.804 6.738-11.684 2.11-2.874 4.01-4.498 5.348-4.031 1.321.462 1.82 2.963 1.375 6.654-.44 3.684-1.863 8.543-4.283 13.525-2.426 4.979-5.37 9.098-7.998 11.718-2.628 2.627-4.905 3.78-6.083 3.024zm12.358 25.981c-.823-1.126.43-3.656 3.353-6.696 2.912-3.035 7.528-6.525 13.157-9.432 5.632-2.898 11.153-4.632 15.315-5.243 4.17-.617 6.96-.17 7.4 1.154.45 1.35-1.486 3.31-4.797 5.576-3.318 2.266-7.995 4.885-13.242 7.585-5.244 2.708-10.09 4.997-13.863 6.386-3.765 1.381-6.485 1.82-7.323.67zm-10.841 85.363c-1.226.613-3.287-.478-5.113-3.321-.915-1.409-1.694-3.248-2.236-5.385a24.079 24.079 0 0 1-.584-7.113 24.065 24.065 0 0 1 1.595-6.956c.843-2.037 1.877-3.746 2.985-5.01 2.214-2.551 4.41-3.337 5.534-2.555 1.187.813 1.24 2.906 1.022 5.57a172.197 172.197 0 0 1-.469 4.469c-.16 1.632-.343 3.375-.489 5.214-.119 1.841-.186 3.594-.262 5.231-.04 1.631-.107 3.15-.174 4.49-.169 2.667-.519 4.732-1.81 5.366zm92.852-3.14c-2.7.808-6.673-4.494-8.875-11.843-2.202-7.35-1.799-13.963.901-14.773 2.7-.809 6.674 4.494 8.875 11.844 2.202 7.35 1.8 13.964-.9 14.772zm-79.587 60.143c-.704-.018-1.323-.754-1.827-2.177a13.38 13.38 0 0 1-.355-1.191c-.093-.438-.139-.909-.193-1.421-.083-1.022-.193-2.219-.04-3.496.056-.644.128-1.322.216-2.03.096-.705.29-1.41.46-2.158.31-1.51.903-3.028 1.53-4.641a35.859 35.859 0 0 1 6.04-9.406 35.847 35.847 0 0 1 8.755-6.95c1.542-.785 2.993-1.526 4.464-1.988.728-.243 1.409-.507 2.102-.673a53.58 53.58 0 0 1 1.997-.418c1.256-.281 2.458-.29 3.482-.309.516.002.99 0 1.433.05.447.066.855.145 1.221.234 1.466.358 2.26.9 2.348 1.6.17 1.467-2.444 2.925-5.993 5.198-.444.294-.906.59-1.388.885-.48.3-.945.68-1.446 1.017-1.017.645-2.006 1.489-3.081 2.278-2.076 1.709-4.244 3.663-6.325 5.923-2.04 2.296-3.768 4.649-5.26 6.885-.677 1.15-1.418 2.217-1.96 3.294-.282.531-.615 1.034-.867 1.54-.244.51-.49 1-.74 1.47-1.906 3.759-3.095 6.504-4.573 6.484zm-26.027 17.06c.514-1.362 3.494-1.505 7.79-1.538.54-.013 1.1-.013 1.677-.003.578.005 1.185-.036 1.803-.038 1.233.02 2.55-.073 3.916-.094 2.743-.142 5.718-.35 8.827-.735 3.106-.425 6.033-.985 8.722-1.553 1.326-.329 2.622-.577 3.81-.91.596-.158 1.194-.273 1.751-.426.556-.157 1.096-.3 1.622-.43 4.16-1.065 7.078-1.692 7.923-.507.796 1.095-.756 3.927-4.69 6.96-.494.37-1.019.748-1.575 1.135-.557.383-1.168.718-1.795 1.086-1.249.756-2.664 1.387-4.167 2.045a43.27 43.27 0 0 1-10.283 2.72c-3.759.47-7.39.408-10.634.006-1.622-.251-3.151-.499-4.552-.91-.7-.194-1.378-.362-2.014-.588a51.186 51.186 0 0 1-1.812-.694c-4.58-1.925-6.808-4.263-6.319-5.526zm-52.573-3.544c1.058-.958 4.29.77 8.82 4.04 4.533 3.279 10.415 8.054 16.865 13.366 6.457 5.302 12.277 10.154 16.37 13.967 4.084 3.813 6.403 6.65 5.668 7.873-.715 1.193-4.39.52-9.66-1.862-5.265-2.375-12.084-6.53-18.86-12.096-6.77-5.575-12.165-11.463-15.51-16.17-3.356-4.713-4.725-8.187-3.693-9.118zm4.917-16.717c-.491-.505-.529-1.373-.108-2.567a7.68 7.68 0 0 1 1.015-1.959c.477-.69 1.043-1.488 1.796-2.211.37-.374.766-.757 1.19-1.151.426-.389.908-.732 1.401-1.11.978-.775 2.123-1.427 3.345-2.11a30.313 30.313 0 0 1 8.584-2.87 30.317 30.317 0 0 1 9.05-.094c1.378.247 2.675.49 3.852.903.588.194 1.157.362 1.686.591.53.232 1.03.466 1.5.698.95.437 1.744 1.007 2.42 1.503a7.636 7.636 0 0 1 1.6 1.52c.788.991 1.035 1.824.737 2.46-.632 1.313-3.133 1.433-6.534 1.512-.429.015-.871.02-1.324.017-.455 0-.935.047-1.418.054-.963-.006-1.993.1-3.053.13-2.132.163-4.427.387-6.825.77-2.39.42-4.633.961-6.701 1.504-1.013.317-2.02.553-2.929.875-.458.15-.928.262-1.357.41a27.33 27.33 0 0 1-1.257.417c-3.24 1.037-5.644 1.74-6.67.708zm-62.996 8.884c.951-1.052 3.31-.615 6.392.765 3.087 1.386 6.92 3.689 10.943 6.507 4.026 2.814 7.502 5.629 9.862 8.055 2.351 2.422 3.57 4.49 2.908 5.743-.654 1.238-3.1 1.41-6.523.502-3.416-.903-7.785-2.925-12.098-5.939-4.309-3.02-7.705-6.434-9.723-9.333-2.024-2.905-2.7-5.262-1.761-6.3zm5.74-38.35c.844-1.11 3.67-.603 7.477 1.397 3.8 1.99 8.537 5.526 12.973 10.233 4.432 4.714 7.675 9.656 9.431 13.569 1.766 3.92 2.103 6.771.944 7.546-1.183.793-3.612-.592-6.727-3.23-3.116-2.647-6.965-6.513-11.078-10.89-4.122-4.37-7.748-8.445-10.201-11.718-2.445-3.266-3.68-5.775-2.819-6.908zm40.859-280.91c-.828 1.186-3.939.477-8.424-.931l-7.745-2.475c-2.896-.881-6.055-1.822-9.403-2.702-3.355-.853-6.574-1.561-9.534-2.194l-7.974-1.588c-4.606-.944-7.668-1.83-7.82-3.269-.148-1.36 2.765-3.04 7.871-3.947a34.24 34.24 0 0 1 4.193-.483c1.516-.122 3.134-.095 4.843-.05a55.73 55.73 0 0 1 10.977 1.65 55.706 55.706 0 0 1 10.399 3.877c1.517.79 2.945 1.548 4.214 2.391a34.07 34.07 0 0 1 3.432 2.453c4.027 3.269 5.76 6.15 4.97 7.268zm13.245 187.473c-1.693-2.254 4.317-9.623 13.421-16.46 9.105-6.838 17.856-10.553 19.549-8.3 1.692 2.254-4.316 9.623-13.421 16.46-9.105 6.838-17.855 10.553-19.549 8.3zm32.606 51.363c-1.234.59-3.42-.84-5.412-4.176-1.001-1.656-1.876-3.786-2.523-6.25a31.669 31.669 0 0 1-.91-8.21 31.679 31.679 0 0 1 1.32-8.154c.77-2.429 1.75-4.511 2.832-6.115 2.156-3.233 4.412-4.552 5.616-3.9 1.272.68 1.371 3.071 1.18 6.326-.11 1.63-.245 3.505-.409 5.537-.127 2.041-.264 4.244-.336 6.562-.044 2.32-.017 4.525.008 6.57.062 2.038.102 3.917.13 5.55.028 3.261-.192 5.646-1.496 6.26zm15.339-45.572c-1.39.074-2.775-1.271-3.594-3.723-.823-2.43-.99-5.96-.009-9.622.986-3.66 2.896-6.635 4.825-8.325 1.937-1.712 3.81-2.183 4.976-1.423 1.193.775 1.529 2.555 1.433 4.742-.107 2.2-.614 4.832-1.378 7.65-.751 2.824-1.631 5.356-2.639 7.314-1.011 1.94-2.194 3.314-3.614 3.387zm-82.893 35.099c.502-1.294 3.57-1.52 8.113-.447 4.53 1.063 10.498 3.513 16.427 7.34 5.923 3.837 10.606 8.275 13.435 11.97 2.841 3.703 3.895 6.594 2.919 7.583-1 1.017-3.804-.006-7.65-2.133-3.852-2.136-8.802-5.322-14.245-8.85-5.45-3.517-10.386-6.724-13.915-9.361-3.518-2.636-5.6-4.77-5.084-6.102zm58.272 47.26c-.42-2.786 6.393-6.12 15.216-7.445 8.822-1.326 16.314-.142 16.733 2.645.418 2.787-6.395 6.121-15.217 7.447-8.822 1.324-16.314.142-16.732-2.646zm-88.795-23.983c.371-1.346 3.582-1.813 8.491-1.236 4.903.572 11.486 2.247 18.382 5.082 6.893 2.842 12.747 6.29 16.63 9.336 3.893 3.046 5.845 5.64 5.159 6.857-.696 1.238-3.867.89-8.459-.44-4.597-1.335-10.64-3.604-17.216-6.315-6.58-2.705-12.468-5.35-16.67-7.64-4.197-2.29-6.693-4.273-6.317-5.644zm-46.504 37.895c-.13-1.382 2.161-2.922 6.15-3.948 3.97-1.03 9.641-1.454 15.792-.64 6.15.823 11.514 2.712 15.077 4.744 3.58 2.033 5.391 4.118 4.902 5.418-.498 1.338-3.136 1.673-6.95 1.5-3.824-.18-8.85-.805-14.374-1.546-5.527-.728-10.54-1.437-14.28-2.262-3.725-.83-6.184-1.844-6.317-3.266zm-35.658 26.78c.506-1.357 4.429-1.17 10.374-.483l10.338 1.227c3.87.411 8.1.833 12.554 1.151 4.456.288 8.705.444 12.594.562l10.408.186c5.984.126 9.897.474 10.214 1.886.305 1.334-3.137 3.507-9.266 5.268-1.53.435-3.224.859-5.063 1.187-1.834.38-3.814.623-5.904.868a84.45 84.45 0 0 1-13.677.225 84.538 84.538 0 0 1-13.519-2.076c-2.038-.528-3.967-1.039-5.733-1.664a51.515 51.515 0 0 1-4.854-1.861c-5.834-2.577-8.948-5.197-8.466-6.477zm-52.372-324.567c-.692 1.253-3.973.845-8.765-.413-4.8-1.266-11.156-3.308-18.18-5.502-7.026-2.18-13.418-4.107-18.088-5.786-4.66-1.685-7.593-3.212-7.452-4.636.134-1.379 3.38-2.391 8.609-2.488 5.214-.104 12.394.813 19.965 3.165 7.57 2.362 14.002 5.682 18.235 8.726 4.25 3.047 6.348 5.724 5.676 6.934zm29.462 8.301c-.687-.145-1.138-1.037-1.315-2.655a14.863 14.863 0 0 1-.082-1.343c.008-.484.092-.991.17-1.548.188-1.098.37-2.407.91-3.705a57.99 57.99 0 0 1 .81-2.086c.305-.718.731-1.395 1.135-2.132.78-1.503 1.898-2.89 3.073-4.379a34.98 34.98 0 0 1 9.528-7.61 34.982 34.982 0 0 1 11.636-3.659c1.889-.144 3.663-.299 5.347-.106.837.076 1.637.102 2.402.247.767.158 1.495.323 2.182.492 1.38.279 2.567.857 3.583 1.315.505.245.972.459 1.38.722.4.282.759.555 1.068.818 1.243 1.05 1.732 1.922 1.47 2.573-.265.652-1.242 1.04-2.651 1.22-.354.042-.734.073-1.139.09-.41.048-.853.1-1.324.157-.936.113-1.94.08-3.067.29-.559.074-1.134.139-1.726.196-.594.066-1.212.236-1.842.336-1.263.158-2.581.582-3.96.893-2.735.824-5.65 1.916-8.56 3.425-2.878 1.573-5.411 3.382-7.62 5.192-1.028.97-2.116 1.826-2.952 2.787-.434.466-.92.886-1.308 1.34-.376.461-.752.902-1.124 1.323-.803.82-1.336 1.67-1.954 2.382l-.869 1.013c-.239.326-.477.624-.71.893-.935 1.07-1.802 1.664-2.49 1.52zm-35.347 13.04c.895-1.07 3.707-.42 7.449 1.742 3.734 2.155 8.36 5.867 12.694 10.704 4.33 4.844 7.508 9.85 9.236 13.802 1.736 3.958 2.07 6.824.907 7.595-1.184.786-3.624-.63-6.738-3.343-3.116-2.72-6.951-6.707-11.009-11.248-4.064-4.534-7.602-8.786-9.961-12.184-2.351-3.396-3.49-5.977-2.578-7.068zm76.13-10.302c-.757-1.163 1.94-4.494 7.203-8.664 5.253-4.168 13.124-9.093 22.412-13.328 9.293-4.223 18.175-6.926 24.767-8.15 6.602-1.232 10.886-1.078 11.265.256.392 1.375-3.146 3.665-8.968 6.585-5.833 2.918-13.926 6.548-22.836 10.598-8.905 4.06-16.958 7.78-22.988 10.263-6.026 2.475-10.076 3.64-10.855 2.44zm175.719 66.352c-.59-.386-.812-1.224-.652-2.485a7.416 7.416 0 0 1 .59-2.137c.329-.776.72-1.682 1.321-2.543.29-.443.605-.901.947-1.373.345-.468.756-.9 1.17-1.37.815-.956 1.828-1.816 2.91-2.72a29.186 29.186 0 0 1 8-4.374 29.201 29.201 0 0 1 8.978-1.569c1.412.032 2.739.074 3.975.313.616.107 1.206.19 1.767.34.562.156 1.093.319 1.597.483 1.006.299 1.877.762 2.619 1.164.744.393 1.341.85 1.793 1.303.912.886 1.26 1.678 1.04 2.348-.468 1.38-2.927 1.804-6.243 2.358-.418.076-.85.146-1.293.204-.445.064-.907.184-1.377.262-.942.13-1.932.393-2.961.583-2.053.489-4.255 1.071-6.524 1.843-2.256.813-4.34 1.73-6.25 2.63-.923.493-1.862.904-2.68 1.388-.414.233-.851.428-1.238.655-.384.23-.765.445-1.139.647-2.938 1.635-5.122 2.837-6.35 2.05zm44.082-61.137c.147-1.382 2.912-2.412 7.357-2.596 4.43-.19 10.528.559 16.922 2.614 6.392 2.062 11.779 5.012 15.267 7.752 3.502 2.742 5.146 5.194 4.46 6.4-.705 1.242-3.556 1.047-7.62.088-4.071-.968-9.391-2.639-15.235-4.528-5.848-1.876-11.143-3.623-15.014-5.214-3.86-1.59-6.29-3.096-6.137-4.516zm-52.741-31.102c.07 1.446-2.439 2.77-6.153 4.405-.931.413-1.945.825-3.011 1.315-1.079.434-2.197.98-3.384 1.484-2.348 1.088-4.885 2.292-7.498 3.667-2.597 1.402-5.011 2.837-7.224 4.18-1.08.705-2.156 1.329-3.119 1.982-.999.613-1.908 1.223-2.77 1.766-3.428 2.173-5.924 3.518-7.087 2.652-1.098-.807-.578-3.815 1.954-7.722a25.9 25.9 0 0 1 2.28-3.02c.864-1.057 1.909-2.065 3.022-3.122a42.3 42.3 0 0 1 8.144-5.721 42.253 42.253 0 0 1 9.291-3.572c1.498-.336 2.916-.64 4.277-.768a25.763 25.763 0 0 1 3.777-.21c4.656.077 7.443 1.323 7.5 2.684zm-163.7 280.387c-.546-1.271 1.315-3.513 5.091-5.758 1.882-1.127 4.247-2.207 6.964-3.153a51.695 51.695 0 0 1 9.088-2.163 51.673 51.673 0 0 1 9.332-.445c2.874.153 5.445.535 7.566 1.097 4.251 1.107 6.662 2.745 6.491 4.118-.175 1.421-2.813 2.337-6.784 3.091-3.986.75-9.315 1.422-15.174 2.244-5.857.836-11.163 1.669-15.199 2.056-4.025.378-6.814.231-7.376-1.087zm-57.235 21.194c1.309-2.53 13.494 1.213 27.813 7.01 14.303 5.835 25.643 11.654 24.818 14.379-.8 2.673-13.868 1.107-28.662-4.923-14.805-6.001-25.261-13.995-23.97-16.466zm232.795-301.069c.166-1.195 2.852-2.05 7.16-1.667 1.073.101 2.245.261 3.472.558 1.246.248 2.53.665 3.883 1.116a39.697 39.697 0 0 1 8.267 4.165 39.716 39.716 0 0 1 7.018 6.037c.936 1.076 1.813 2.102 2.52 3.157a24.247 24.247 0 0 1 1.847 2.992c2.006 3.833 2.248 6.642 1.208 7.252-1.106.658-3.245-.864-6.194-3.241-.742-.595-1.521-1.256-2.388-1.928-.828-.706-1.767-1.394-2.702-2.157-1.928-1.469-4.041-3.038-6.333-4.586-2.31-1.522-4.567-2.872-6.663-4.087-1.063-.572-2.06-1.175-3.029-1.67-.953-.542-1.863-1.008-2.695-1.465-3.329-1.812-5.555-3.203-5.37-4.476zm-282.41 318.864c1.136-2.613 11.283-.69 23.179 2.806 11.88 3.542 21.44 7.454 20.97 10.263-.25 1.377-3.04 2.187-7.386 2.195-4.34.011-10.227-.823-16.48-2.672-6.253-1.853-11.647-4.359-15.282-6.73-3.642-2.372-5.54-4.57-5.001-5.862zM681.862 442.7c1.33-.6 4.443 3.463 9.11 9.925.582.808 1.19 1.655 1.823 2.537l2.003 2.718c1.343 1.899 2.875 3.856 4.422 5.95 3.181 4.132 6.73 8.604 10.623 13.163 3.924 4.532 7.815 8.71 11.422 12.475 1.839 1.842 3.544 3.651 5.222 5.264l2.386 2.387c.776.759 1.523 1.487 2.236 2.182 5.689 5.583 9.24 9.27 8.447 10.495-.73 1.143-5.75-.44-12.885-4.804l-2.765-1.762c-.953-.624-1.901-1.332-2.898-2.049-2.012-1.414-4.035-3.083-6.165-4.846a122.288 122.288 0 0 1-12.738-12.69 122.543 122.543 0 0 1-10.636-14.492c-1.424-2.371-2.77-4.622-3.869-6.823-.558-1.094-1.116-2.137-1.591-3.173l-1.328-2.997c-3.244-7.708-4.058-12.908-2.82-13.46zm97.974 36.671c-.643 1.228-5.074.399-11.61-2.348-3.267-1.366-7.034-3.246-11.088-5.562a140.651 140.651 0 0 1-12.704-8.31 140.2 140.2 0 0 1-11.706-9.666c-3.416-3.183-6.328-6.224-8.603-8.938-4.563-5.426-6.669-9.412-5.689-10.39 1.014-1.012 4.895 1.135 10.552 5.058 5.66 3.931 13.161 9.571 21.497 15.719 8.343 6.135 15.956 11.625 21.39 15.862 5.425 4.239 8.628 7.308 7.961 8.575zm33.867-3.356c-.107-2.816 9.577-5.47 21.63-5.93 12.054-.46 21.911 1.451 22.018 4.267.107 2.815-9.577 5.471-21.63 5.93-12.052.46-21.91-1.45-22.018-4.267zM839.03 235.81c-.077-1.355 3.09-2.913 8.546-3.405a67.608 67.608 0 0 1 2.14-.131c.745-.031 1.514.006 2.317.025 1.61.014 3.31.222 5.105.45a53.604 53.604 0 0 1 11.34 3.066 53.544 53.544 0 0 1 10.344 5.566c1.461 1.067 2.839 2.084 4.02 3.178.594.54 1.178 1.042 1.7 1.576.519.538 1.007 1.06 1.464 1.565 3.626 4.105 4.856 7.416 3.869 8.345-1.053 1.006-4.047-.417-8.37-2.704a61.095 61.095 0 0 1-1.685-.904c-.579-.319-1.208-.61-1.83-.943-1.234-.685-2.604-1.32-3.996-2.045-2.837-1.368-5.95-2.803-9.29-4.153-3.354-1.315-6.602-2.41-9.603-3.366-1.51-.43-2.941-.91-4.308-1.26-.682-.185-1.339-.406-1.977-.573-.64-.163-1.256-.33-1.847-.501-4.712-1.31-7.865-2.332-7.939-3.786zm-77.157 21.952c-1.378-.096-2.517-2.87-2.754-7.407-.127-2.265.019-4.95.458-7.898a53.797 53.797 0 0 1 2.377-9.376 53.574 53.574 0 0 1 4.069-8.777c1.517-2.564 3.098-4.74 4.623-6.418 3.046-3.372 5.68-4.808 6.81-4.012 1.175.821.69 3.654-.573 7.64a180.222 180.222 0 0 1-2.366 6.821l-2.946 8.16-2.858 8.19a185.25 185.25 0 0 1-2.465 6.786c-1.534 3.89-2.945 6.394-4.375 6.291zm25.926 165.167c.375-2.793 8.225-4.045 17.534-2.796 9.309 1.248 16.551 4.525 16.177 7.318-.375 2.793-8.224 4.044-17.534 2.797-9.308-1.25-16.552-4.526-16.177-7.32zm219.603-170.897c-1.322.401-3.007-.549-4.258-2.842-.63-1.135-1.096-2.589-1.33-4.247a16.771 16.771 0 0 1 .216-5.404 16.741 16.741 0 0 1 1.965-5.04c.878-1.427 1.887-2.573 2.917-3.362 2.064-1.6 3.988-1.796 5.04-.9 1.09.924 1.255 2.656 1.136 4.632-.137 1.995-.54 4.28-1.067 6.754-.508 2.48-1.052 4.734-1.723 6.618-.682 1.86-1.527 3.38-2.896 3.79zM775.805 404.377c-.652.265-1.47-.026-2.413-.864a7.554 7.554 0 0 1-1.422-1.676c-.455-.7-.978-1.524-1.355-2.494a37.524 37.524 0 0 1-.607-1.535c-.195-.54-.327-1.116-.485-1.714-.34-1.196-.499-2.5-.657-3.888a29.798 29.798 0 0 1 .688-8.992 29.82 29.82 0 0 1 3.458-8.331c.77-1.166 1.502-2.256 2.347-3.17.412-.46.79-.914 1.208-1.307.424-.392.835-.758 1.236-1.095.776-.694 1.613-1.192 2.337-1.61a7.54 7.54 0 0 1 2.028-.85c1.22-.32 2.08-.21 2.542.32.946 1.107.062 3.435-1.2 6.558-.155.396-.324.801-.505 1.21-.178.414-.321.87-.504 1.312-.383.873-.687 1.853-1.074 2.828-.68 2.003-1.368 4.18-1.947 6.51-.54 2.34-.912 4.592-1.21 6.685-.099 1.046-.271 2.057-.323 3.008-.039.477-.117.948-.145 1.397-.023.449-.058.885-.1 1.308-.287 3.358-.553 5.832-1.897 6.39zm-53.05-49.182c-.078-1.42 2.334-2.802 6.163-4.128 3.84-1.324 9.092-2.644 14.918-3.916 5.825-1.282 11.149-2.277 15.19-2.68 4.031-.398 6.8-.15 7.323 1.174.514 1.295-1.364 3.443-5.009 5.66-3.631 2.216-9.055 4.438-15.32 5.815-6.266 1.368-12.122 1.617-16.349 1.123-4.236-.49-6.84-1.656-6.916-3.048zm-11.215 33.819c.98-2.632 10.834-1.39 21.82 3.236 10.99 4.613 18.77 10.782 17.577 13.324-1.2 2.562-10.755.608-21.532-3.917-10.774-4.536-18.853-9.993-17.865-12.643zm57.349 51.102c1.189-2.554 6.293-2.699 11.398-.32 5.106 2.378 8.28 6.376 7.09 8.931-1.19 2.553-6.293 2.698-11.398.32-5.106-2.377-8.28-6.376-7.09-8.931zm-84.746-236.97c.354-1.39 3.958-1.737 9.452-1.63 2.75.062 5.984.194 9.548.389l11.559.58 11.565.478c3.566.133 6.799.296 9.543.486 5.48.395 9.039 1.071 9.264 2.486.219 1.366-3 3.225-8.58 4.698-2.785.741-6.157 1.338-9.931 1.728a88.725 88.725 0 0 1-12.327.319 88.717 88.717 0 0 1-12.247-1.443c-3.724-.735-7.026-1.636-9.731-2.63-5.422-1.975-8.459-4.122-8.115-5.462zm-27.671 182.939c.582-1.263 3.898-1.178 8.752.312 4.845 1.48 11.191 4.437 17.56 8.722 6.365 4.294 11.487 9.066 14.679 13 3.202 3.939 4.528 6.98 3.576 7.995-.976 1.041-4.012-.102-8.246-2.492-4.238-2.4-9.721-5.996-15.712-10.04-5.995-4.034-11.388-7.764-15.203-10.792-3.806-3.027-6.005-5.41-5.406-6.705zm13.213 80.404c-1.193.733-3.515-.577-6.205-3.43-2.687-2.845-5.71-7.255-8.223-12.541-2.511-5.288-4.023-10.417-4.533-14.298-.513-3.887-.063-6.513 1.258-6.975 2.699-.904 7.72 6.902 12.491 16.892 4.734 10.008 7.616 18.83 5.212 20.352zm-49.576-15.05c-.841 1.068-3.805.479-7.558-2.197a24.107 24.107 0 0 1-2.874-2.395c-1.004-.908-1.941-1.995-2.921-3.157a39.55 39.55 0 0 1-5.121-8.415 39.497 39.497 0 0 1-2.783-9.45c-.2-1.505-.375-2.93-.372-4.283-.055-1.343.03-2.6.16-3.739.544-4.577 2.102-7.167 3.458-7.071 1.447.093 2.48 2.68 3.73 6.432.316.942.625 1.96 1.007 3.036.327 1.084.766 2.213 1.154 3.404.864 2.363 1.834 4.913 2.979 7.542 1.175 2.615 2.41 5.048 3.577 7.277.62 1.089 1.16 2.173 1.743 3.142.54 1.007 1.086 1.921 1.57 2.789 1.937 3.448 3.156 5.952 2.251 7.085zm-5.943 24.583c.565-2.762 10.24-3.111 21.608-.784 11.368 2.328 20.127 6.453 19.56 9.214-.565 2.76-10.238 3.112-21.607.784-11.369-2.33-20.126-6.454-19.56-9.214zm10.77-130.316c-.994 1.028-4.272-.428-8.929-3.245-4.661-2.827-10.763-6.952-17.52-11.456-6.765-4.494-12.926-8.53-17.333-11.738-4.397-3.21-7.006-5.67-6.442-6.984.545-1.274 4.215-1.14 9.655.523 5.43 1.652 12.584 4.925 19.774 9.702 7.183 4.787 12.964 10.123 16.586 14.493 3.634 4.375 5.174 7.71 4.21 8.705zM602.49 380.16c-.754-1.176.247-3.362 2.694-5.817 2.435-2.451 6.347-5.117 11.108-7.109 4.762-1.987 9.408-2.896 12.863-2.905 3.466-.016 5.725.809 6.033 2.17.314 1.387-1.33 3.042-4.066 4.772-2.748 1.732-6.582 3.581-10.897 5.38-4.312 1.806-8.321 3.231-11.483 3.972-3.156.73-5.487.735-6.252-.463zm36.05 47.657c-1.241.655-3.369-.612-5.729-3.303-2.358-2.685-4.922-6.805-6.972-11.702-2.047-4.899-3.182-9.618-3.438-13.181-.26-3.57.332-5.976 1.67-6.399 2.717-.823 7.277 6.348 11.183 15.641 3.875 9.304 5.779 17.587 3.285 18.944zm-105.526-29.072c.094-2.802 9.456-4.758 20.85-3.596 11.395 1.145 20.175 4.937 19.706 7.701-.47 2.793-9.712 3.558-20.735 2.452-11.02-1.126-19.92-3.726-19.821-6.557zm380.7-183.623c-.099-1.389 1.649-2.825 4.727-3.747 3.062-.927 7.453-1.262 12.17-.486 4.716.784 8.766 2.513 11.367 4.376 2.617 1.864 3.81 3.788 3.27 5.07-.55 1.313-2.665 1.779-5.575 1.768-2.92-.018-6.655-.466-10.726-1.145-4.074-.668-7.754-1.446-10.525-2.368-2.758-.926-4.609-2.048-4.709-3.468zm-357.07 243.498c.472-1.346 3.019-1.77 6.698-1.704 3.689.07 8.533.567 13.854 1.207 5.322.627 10.147 1.28 13.75 2.077 3.591.802 5.967 1.812 6.108 3.23.141 1.383-2.048 2.926-5.874 3.983-3.81 1.059-9.262 1.545-15.19.843-5.928-.71-11.114-2.46-14.57-4.387-3.47-1.923-5.236-3.938-4.775-5.249zm-77.361-25.318c1.016-1.021 4.153.396 8.64 2.943a826.62 826.62 0 0 1 7.731 4.506c2.894 1.664 6.054 3.476 9.413 5.306 3.373 1.807 6.622 3.457 9.6 4.965a824.714 824.714 0 0 1 8.007 3.996c4.59 2.356 7.495 4.202 7.196 5.612-.278 1.346-3.8 1.988-9.305 1.29-2.75-.34-5.962-1.072-9.44-2.19a69.34 69.34 0 0 1-10.907-4.695 69.503 69.503 0 0 1-9.906-6.546c-2.842-2.299-5.215-4.583-7.006-6.697-3.603-4.221-4.996-7.519-4.023-8.49zm-19.234-16.235c-.42-.564-.101-1.588.923-3.01.257-.356.557-.735.9-1.137.352-.388.772-.754 1.224-1.159.915-.785 1.966-1.725 3.283-2.483a75.985 75.985 0 0 1 2.064-1.238c.729-.411 1.532-.734 2.353-1.112 1.635-.792 3.48-1.334 5.434-1.922a44.465 44.465 0 0 1 13.129-1.318c4.698.3 9.1 1.359 12.895 2.803 1.873.806 3.646 1.555 5.18 2.528.773.47 1.533.88 2.212 1.373.674.501 1.312.99 1.91 1.463 1.22.903 2.158 1.957 2.978 2.843.403.453.778.865 1.085 1.288.295.44.55.85.763 1.234.857 1.53 1.058 2.582.575 3.096-.483.511-1.596.448-3.111-.039-.38-.123-.784-.273-1.21-.448l-1.428-.496c-1.013-.355-2.06-.872-3.314-1.26a60.876 60.876 0 0 1-1.89-.698c-.65-.244-1.367-.416-2.072-.652-1.396-.507-2.96-.834-4.55-1.278-3.24-.722-6.808-1.319-10.603-1.568-3.8-.184-7.414.003-10.715.352-1.63.26-3.221.408-4.666.751-.727.155-1.458.244-2.132.412-.67.176-1.325.337-1.958.482-1.29.239-2.389.636-3.435.871-.525.119-1.017.23-1.475.331-.444.126-.863.228-1.253.307-1.562.312-2.673.248-3.096-.316zm11.729 27.144c-1.779 2.185-8.586-.41-15.202-5.795-6.617-5.387-10.54-11.525-8.76-13.71 1.78-2.186 8.585.408 15.202 5.794 6.616 5.386 10.538 11.524 8.76 13.71zm63.173-9.355c-.536-2.767 8.766-6.9 20.778-9.232 12.011-2.332 22.184-1.98 22.721.785.538 2.768-8.765 6.9-20.777 9.233-12.012 2.332-22.185 1.98-22.722-.786zm185.064 31.878c.973-1.042 3.696-.2 7.403 1.714 3.712 1.92 8.45 4.87 13.596 8.23 5.15 3.353 9.76 6.5 13.015 9.122 3.245 2.62 5.114 4.772 4.554 6.082-.546 1.28-3.47 1.457-7.741.392-4.263-1.058-9.843-3.427-15.403-7.047-5.554-3.627-9.973-7.778-12.659-11.252-2.699-3.478-3.716-6.225-2.765-7.241zM500.718 294.844c-.518-.475-.441-1.486.237-2.989a16 16 0 0 1 .622-1.216c.257-.42.587-.822.937-1.27.72-.872 1.542-1.922 2.663-2.804a63.257 63.257 0 0 1 1.749-1.439c.625-.48 1.333-.875 2.052-1.33 1.428-.945 3.093-1.644 4.858-2.4a37.07 37.07 0 0 1 12.154-2.307 37.102 37.102 0 0 1 12.205 2.038c1.78.72 3.46 1.38 4.908 2.295.73.438 1.447.817 2.081 1.286.632.477 1.225.945 1.781 1.398 1.138.858 1.985 1.89 2.723 2.744.36.442.7.837.965 1.25.253.429.47.83.648 1.201.71 1.49.81 2.498.303 2.984-.509.487-1.57.424-2.956-.026a14.241 14.241 0 0 1-1.1-.413l-1.299-.442c-.92-.313-1.848-.786-2.987-1.104a45.308 45.308 0 0 1-1.697-.6c-.583-.206-1.233-.336-1.865-.53-1.25-.428-2.664-.653-4.088-1.001-2.914-.514-6.117-.878-9.509-.875-3.391.072-6.585.507-9.487 1.084-1.416.378-2.824.634-4.065 1.09-.628.209-1.274.352-1.853.571-.573.23-1.135.442-1.684.638-1.13.344-2.05.836-2.961 1.167l-1.29.472c-.381.17-.746.315-1.09.437-1.376.48-2.437.568-2.955.091zm-25.534 19.533c.44-1.385 3.517-1.637 7.96-1.953 4.453-.295 10.357-.847 16.65-2.402a79.475 79.475 0 0 0 8.743-2.705c2.646-1.012 5.004-2.055 7.05-2.946.51-.215 1.156-.56 1.88-.835.721-.284 1.655-.534 2.37-.523.746-.016 1.452.14 1.992.428a3.1 3.1 0 0 1 1.172 1.125c.512.854.466 1.736.103 2.329-.364.6-.75 1.108-.849 1.619-.05.144.098.228.187.16.098-.067.015-.293-.239-.402a.814.814 0 0 0-.476-.05c-.19.038-.401.167-.573.334-.21.183-.215.332-.412.585-.2.26-.453.6-.91 1.066-1.806 1.858-4.225 3.831-7.204 5.578-2.982 1.723-6.522 3.193-10.39 4.146-7.759 1.926-15.168 1.286-20.057-.355-4.946-1.631-7.421-3.913-6.997-5.199zm99.162 29.568c-1.024.999-3.838-.146-7.74-2.363-3.903-2.233-8.94-5.504-14.552-9.002l-7.944-4.924c-1.275-.798-2.253-1.433-3.255-1.998a33.468 33.468 0 0 0-2.695-1.395c-1.632-.749-2.837-1.087-3.914-1.287-1.064-.202-1.998-.242-2.47-.793-.437-.495-.374-1.601.89-2.851.627-.627 1.561-1.178 2.724-1.594 1.162-.405 2.517-.595 3.952-.592 1.436.003 2.945.21 4.47.584 1.514.356 3.122.951 4.526 1.527a59.496 59.496 0 0 1 9.12 4.666c6.187 3.855 11.031 8.442 13.928 12.254 2.92 3.817 3.952 6.801 2.96 7.768zm-31.074 26.335c-.82-2.696 10.303-8.47 24.846-12.897 14.543-4.426 26.996-5.83 27.818-3.133.82 2.696-10.304 8.47-24.847 12.895-14.543 4.428-26.997 5.83-27.817 3.135zm-32.675 14.609c-.695.12-1.44-.468-2.206-1.746a13.19 13.19 0 0 1-.574-1.082c-.175-.404-.31-.85-.458-1.336-.274-.97-.61-2.106-.698-3.371a55.128 55.128 0 0 1-.168-2.004c-.037-.7.022-1.418.049-2.173.025-1.519.327-3.096.644-4.77.775-3.3 2.14-6.83 4.205-10.172a34.568 34.568 0 0 1 7.323-8.216c1.368-1.015 2.656-1.973 4.012-2.658.669-.354 1.288-.72 1.934-.99a51.623 51.623 0 0 1 1.878-.723c1.176-.473 2.345-.666 3.339-.842.502-.075.961-.152 1.401-.17.446-.003.855.013 1.225.046 1.483.133 2.338.548 2.532 1.225.395 1.425-1.902 3.255-4.941 6.02-.377.356-.774.716-1.188 1.076-.411.367-.795.81-1.221 1.215-.871.785-1.678 1.763-2.579 2.697-1.706 1.986-3.456 4.222-5.069 6.741-1.564 2.55-2.815 5.098-3.858 7.5-.449 1.217-.976 2.369-1.303 3.495-.18.56-.411 1.1-.564 1.629a36.898 36.898 0 0 1-.45 1.539c-1.165 3.939-1.81 6.804-3.265 7.07zm-53.212-35.683c-.272-2.804 9.015-6.005 20.745-7.146 11.73-1.142 21.46.206 21.735 3.011.273 2.804-9.015 6.004-20.746 7.145-11.73 1.142-21.461-.206-21.734-3.01zm-5.15 52.493c-.998-.976-.28-3.571 1.931-6.884 2.2-3.309 5.935-7.289 10.725-10.85 4.793-3.557 9.682-5.983 13.486-7.134 3.81-1.158 6.502-1.097 7.148.14.661 1.26-.802 3.436-3.496 6.082-2.701 2.65-6.611 5.81-11.053 9.104-4.437 3.3-8.592 6.13-11.907 7.952-3.311 1.814-5.82 2.586-6.835 1.59zm969.55 46.724c-1.869 2.108-9.902-1.96-17.943-9.087-8.042-7.126-13.045-14.614-11.175-16.724 1.87-2.108 9.903 1.96 17.944 9.087 8.041 7.128 13.045 14.615 11.175 16.724zM1154.493 559.58c-.608-1.254-.054-2.976 1.64-4.582 1.674-1.6 4.515-3.004 7.868-3.433 3.355-.427 6.458.22 8.48 1.35 2.043 1.13 3.009 2.658 2.737 4.025-.275 1.395-1.636 2.403-3.42 3.16-1.8.75-4.036 1.279-6.506 1.587-2.47.32-4.766.37-6.697.096-1.916-.285-3.487-.922-4.102-2.203zm-180.426 10.73c-.315-1.36 1.219-3.052 4.12-4.496 2.888-1.444 7.154-2.585 11.954-2.812 4.8-.222 9.153.516 12.164 1.683 3.023 1.167 4.708 2.708 4.522 4.092-.188 1.407-2.157 2.408-5.082 3.104-2.934.69-6.83 1.117-11.127 1.315-4.295.205-8.216.144-11.202-.271-2.976-.419-5.029-1.23-5.349-2.615zm153.56-162.528c-.708-1.231.167-3.18 1.914-5.44 1.758-2.266 4.368-4.886 7.396-7.582 3.021-2.702 5.92-4.997 8.372-6.487 2.444-1.48 4.478-2.128 5.622-1.285 1.123.827 1.11 3.046-.1 5.93-1.199 2.874-3.644 6.368-7.1 9.456-3.46 3.084-7.21 5.117-10.201 5.982-3.002.874-5.21.636-5.903-.574zm-418.135 39.27c-2.169 1.8-6.843-.255-10.441-4.59-3.597-4.335-4.757-9.308-2.588-11.107 2.169-1.8 6.842.256 10.44 4.59 3.599 4.335 4.757 9.307 2.59 11.107zm13.767-30.382c.606-2.75 9.292-3.178 19.4-.951 10.109 2.225 17.813 6.26 17.207 9.013-.606 2.752-9.293 3.178-19.401.953-10.109-2.227-17.812-6.264-17.206-9.015z" fill-rule="nonzero"/></g></g></svg>