<svg width="1440" height="456" xmlns="http://www.w3.org/2000/svg" xmlns:xlink="http://www.w3.org/1999/xlink"><defs><path id="a" d="M0 0h1440v456H0z"/></defs><g fill="none" fill-rule="evenodd"><mask id="b" fill="#fff"><use xlink:href="#a"/></mask><g mask="url(#b)" fill="#2CCBBB" ><path d="M1399.97 388.64c-.956-1.079-3.239-.684-6.234.143-1.496.43-3.213.927-5.064 1.483-1.869.522-3.88 1.085-6.013 1.608-2.14.497-4.19.903-6.092 1.28-1.903.34-3.659.673-5.188.966-3.046.615-5.261 1.293-5.626 2.688-.353 1.321 1.375 3.19 4.909 4.492 1.755.659 3.943 1.098 6.405 1.245 2.457.11 5.186-.096 7.961-.744a29.42 29.42 0 0 0 7.44-2.933c2.129-1.243 3.883-2.623 5.153-4.004 2.563-2.757 3.262-5.204 2.35-6.223zm-94.32-26.352c-2.352 1.552 1.908 12.153 9.513 23.676 7.606 11.522 15.679 19.605 18.03 18.052 2.353-1.552-1.907-12.152-9.513-23.674-7.605-11.523-15.677-19.606-18.03-18.054zm-20.666-23.554c-.181 1.45 2.704 2.992 6.975 5.17.533.28 1.09.561 1.672.843.58.286 1.164.634 1.779.949 1.24.607 2.505 1.373 3.857 2.098 2.66 1.553 5.512 3.311 8.393 5.336 2.858 2.058 5.455 4.174 7.796 6.177 1.129 1.04 2.267 1.984 3.248 2.954.5.48 1.02.916 1.48 1.37.457.457.906.891 1.346 1.304 3.458 3.318 5.862 5.54 7.172 4.891.629-.316.854-1.307.688-2.888a12.103 12.103 0 0 0-.611-2.752c-.339-1.028-.734-2.215-1.357-3.417a65.101 65.101 0 0 0-.97-1.907c-.354-.656-.784-1.294-1.211-1.974-.837-1.375-1.902-2.712-3.032-4.123a48.794 48.794 0 0 0-8.633-7.952 48.994 48.994 0 0 0-10.343-5.545c-1.706-.605-3.32-1.171-4.893-1.512-.781-.18-1.525-.376-2.26-.494a64.92 64.92 0 0 0-2.12-.291c-1.341-.194-2.592-.177-3.674-.16-1.081.005-2.023.135-2.8.325-1.547.362-2.41.9-2.502 1.598zm122.587 20.484c-1.178-.882-3.974.926-8.095 3.5-.524.315-1.061.653-1.608 1.01-.553.353-1.168.667-1.766 1.032-1.18.75-2.525 1.418-3.877 2.186-2.775 1.427-5.848 2.877-9.18 4.158-3.35 1.235-6.616 2.173-9.645 2.931-1.522.315-2.972.7-4.354.915-.69.12-1.36.29-2.008.389a56.24 56.24 0 0 0-1.876.3c-4.795.784-8.09 1.272-8.391 2.71-.14.69.52 1.479 1.914 2.323.349.21.742.425 1.18.642.44.202.927.373 1.454.56 1.056.351 2.279.767 3.66.98.688.125 1.416.245 2.177.359.762.107 1.555.13 2.381.185 1.658.137 3.421.038 5.287-.069a46.428 46.428 0 0 0 11.817-2.674 46.479 46.479 0 0 0 10.647-5.784c1.472-1.152 2.86-2.24 4.017-3.437.585-.586 1.166-1.126 1.667-1.71.498-.588.965-1.157 1.401-1.707.896-1.07 1.542-2.19 2.103-3.15.274-.489.527-.937.724-1.38.187-.451.34-.872.464-1.26.49-1.555.467-2.583-.093-3.009zm4.063 46.677c.785 2.707 10.533 2.26 21.772-.998 11.24-3.258 19.716-8.093 18.932-10.8-.786-2.706-10.532-2.26-21.772.999-11.24 3.257-19.717 8.092-18.932 10.799zm-103.257 20.644c-.313 1.341 2.738 3.423 8.19 5.205 2.721.896 6.039 1.661 9.774 2.22 3.735.527 7.887.826 12.246.764a80.114 80.114 0 0 0 12.213-1.178c3.714-.683 7.004-1.56 9.692-2.547 5.39-1.964 8.37-4.148 8.011-5.479-.369-1.389-3.933-1.698-9.34-1.614a461.08 461.08 0 0 0-9.387.293c-3.507.11-7.338.242-11.36.321-4.025.058-7.858.054-11.367.063a458.491 458.491 0 0 0-9.393.023c-5.405.098-8.957.528-9.28 1.929zm-44.474-66.579c-2.29 1.645 2.547 12.291 10.8 23.778 8.255 11.488 16.802 19.466 19.09 17.823 2.29-1.645-2.547-12.29-10.801-23.778-8.255-11.487-16.8-19.467-19.089-17.823zm112.082-38.096c-.993-.986-3.57-.23-6.866 1.964-3.293 2.187-7.273 5.839-10.948 10.476-3.672 4.64-6.314 9.351-7.688 13.057-1.379 3.711-1.525 6.393-.339 7.133 1.204.751 3.497-.549 6.326-3.104 2.83-2.56 6.226-6.357 9.702-10.75 3.48-4.39 6.397-8.567 8.241-11.909 1.84-3.337 2.579-5.869 1.572-6.867zm58.553-15.196c-1.12-.888-4.444 1.32-9.119 5.3-4.676 3.984-10.766 9.691-17.49 15.977-6.735 6.278-12.845 11.962-17.143 16.353-4.29 4.39-6.722 7.555-5.913 8.733.785 1.145 4.699.062 10.264-2.975 5.558-3.028 12.713-8.085 19.755-14.65 7.034-6.575 12.569-13.365 15.972-18.703 3.412-5.344 4.763-9.174 3.674-10.035zm8.417 30.652c-1.404-.303-3.098 1.77-5.117 5.007-.999 1.625-2.13 3.536-3.333 5.643l-3.974 6.757-4.136 6.657a204.603 204.603 0 0 0-3.45 5.574c-1.929 3.29-2.975 5.755-2.056 6.857.88 1.06 3.654.5 7.225-1.82 1.786-1.15 3.72-2.77 5.658-4.779a43.689 43.689 0 0 0 5.492-7.21 43.65 43.65 0 0 0 3.832-8.212c.88-2.65 1.415-5.114 1.604-7.23.396-4.24-.397-6.958-1.745-7.244zm16.878-13.075c-1.424.071-2.54 2.7-3.486 6.77-.944 4.081-1.783 9.61-2.595 15.713-.822 6.1-1.467 11.653-1.63 15.84-.158 4.178.226 7.007 1.581 7.448 1.323.433 3.387-1.66 5.394-5.601 2.007-3.927 3.88-9.725 4.77-16.334.881-6.609.598-12.695-.305-17.012-.9-4.33-2.34-6.893-3.73-6.824zm-39.011-57.94c-.774 1.209.963 3.772 3.98 7.21a240.206 240.206 0 0 0 5.358 5.829l6.502 6.98 6.394 7.08a237.959 237.959 0 0 0 5.347 5.84c3.165 3.303 5.57 5.254 6.84 4.587 1.224-.638 1.05-3.852-.74-8.439-.885-2.294-2.211-4.893-3.927-7.633a61.766 61.766 0 0 0-6.393-8.332 61.832 61.832 0 0 0-7.752-7.088c-2.58-1.947-5.057-3.492-7.265-4.572-4.416-2.176-7.602-2.627-8.344-1.463zm-25.193-19.516c-1.373.026-2.673 2.538-3.02 6.783-.183 2.117-.066 4.64.379 7.4a40.78 40.78 0 0 0 2.554 8.707 40.725 40.725 0 0 0 4.48 7.89c1.674 2.24 3.405 4.078 5.053 5.418 3.293 2.704 6.002 3.516 6.975 2.547 1.024-1.012.234-3.543-1.277-6.975a329.802 329.802 0 0 0-2.699-5.847c-.987-2.17-2.065-4.52-3.136-7.015-1.05-2.507-1.989-4.916-2.86-7.134a323.631 323.631 0 0 0-2.325-6.004c-1.416-3.475-2.684-5.802-4.124-5.77zm48.555-39.333c-.744-1.158-3.603-.914-7.48 1.016-1.937.955-4.08 2.368-6.269 4.177a44.173 44.173 0 0 0-6.375 6.663 44.2 44.2 0 0 0-4.796 7.877c-1.183 2.582-1.996 5.016-2.42 7.134-.866 4.243-.365 7.07.945 7.49 1.368.443 3.276-1.485 5.644-4.547 1.177-1.54 2.52-3.353 3.96-5.35 1.47-1.985 3.055-4.147 4.76-6.387 1.724-2.225 3.405-4.312 4.943-6.242a248.961 248.961 0 0 0 4.149-5.206c2.35-3.079 3.72-5.418 2.939-6.625zm19.672.861c-1.426.224-2.215 2.995-2.976 7.084l-1.237 7.061c-.488 2.614-1.026 5.456-1.68 8.422-.682 2.959-1.415 5.755-2.096 8.327l-1.912 6.908c-1.07 4.02-1.546 6.861-.353 7.675 1.128.777 3.8-.718 6.75-4.338 1.48-1.798 2.958-4.144 4.304-6.904a46.488 46.488 0 0 0 3.26-9.424 46.55 46.55 0 0 0 1.1-9.912c-.031-3.071-.359-5.823-.924-8.083-1.113-4.535-2.883-7.032-4.236-6.816zm-81.896-38.469c-1.048 2.616 8.224 8.79 20.708 13.791 12.486 5 23.456 6.933 24.504 4.316 1.047-2.615-8.224-8.79-20.71-13.79-12.484-5-23.454-6.932-24.502-4.317zm63.64-46.913c-1.267-.493-3.796 2.224-6.096 7.532-.568 1.324-1.14 2.8-1.608 4.427-.532 1.614-.918 3.381-1.314 5.25a61.598 61.598 0 0 0-1.04 12.366 61.536 61.536 0 0 0 1.575 12.307c.477 1.85.94 3.598 1.538 5.188a37.899 37.899 0 0 0 1.8 4.354c2.528 5.203 5.171 7.808 6.415 7.262 1.335-.578 1.103-4.091.502-9.312-.144-1.31-.336-2.721-.48-4.243-.202-1.508-.316-3.129-.504-4.812-.284-3.385-.54-7.078-.642-10.965-.067-3.89.028-7.59.166-10.985.116-1.69.159-3.314.296-4.829.077-1.526.208-2.945.297-4.26.373-5.242.452-8.762-.906-9.28zm24.265-20.489c-1.43-.007-2.681 3.573-3.898 9.243-1.215 5.678-2.476 13.446-3.868 22.016-1.404 8.566-2.68 16.332-3.334 22.102-.649 5.763-.6 9.554.756 10.002 1.318.438 3.712-2.6 6.197-8.073 2.487-5.461 4.978-13.385 6.453-22.388 1.464-9.004 1.622-17.309 1.001-23.277-.616-5.98-1.919-9.619-3.307-9.625zm-54.11-4.848c-.118 1.394 1.714 2.849 4.883 3.899 3.16 1.05 7.657 1.65 12.596 1.343 4.94-.31 9.328-1.465 12.333-2.902 3.012-1.437 4.649-3.108 4.36-4.477-.294-1.388-2.413-2.225-5.533-2.643-3.129-.415-7.266-.449-11.796-.162-4.53.279-8.632.828-11.684 1.63-3.045.804-5.043 1.898-5.16 3.312zm9.681-37.234c-1.022.927-.515 3.47 1.647 6.636 1.073 1.583 2.581 3.274 4.454 4.939a36.756 36.756 0 0 0 6.69 4.617 36.812 36.812 0 0 0 7.56 2.987c2.427.628 4.672.939 6.584.948 3.833.034 6.228-.961 6.428-2.328.214-1.417-1.687-2.944-4.604-4.653a123.866 123.866 0 0 0-5.078-2.76c-1.878-.988-3.931-2.066-6.086-3.198l-6.044-3.274a125.282 125.282 0 0 0-5.122-2.681c-3.043-1.472-5.37-2.2-6.429-1.233zm-46.654-18.407c.571 1.364 5.632.464 13.492-.817l3.078-.503c1.067-.178 2.192-.29 3.34-.463 2.292-.373 4.764-.593 7.34-.91 5.177-.496 10.855-.874 16.831-.926 5.976.003 11.659.332 16.84.783 2.579.297 5.053.494 7.346.849 1.151.162 2.276.265 3.345.435 1.07.166 2.1.324 3.082.475 7.87 1.216 12.938 2.074 13.499.706.263-.654-.673-1.722-2.643-3.11a36.299 36.299 0 0 0-1.669-1.099c-.622-.37-1.319-.724-2.07-1.11-1.505-.75-3.229-1.626-5.218-2.348l-3.121-1.166c-1.093-.39-2.253-.702-3.451-1.062-2.39-.749-5.002-1.294-7.758-1.877a100.693 100.693 0 0 0-18.225-1.68 100.59 100.59 0 0 0-18.21 1.834c-2.75.605-5.357 1.172-7.74 1.943-1.195.37-2.352.691-3.443 1.09l-3.111 1.194c-1.983.737-3.699 1.628-5.199 2.39-.746.391-1.44.753-2.06 1.129-.615.39-1.169.761-1.659 1.112-1.958 1.405-2.886 2.48-2.616 3.13zm13.393-29.89c.19 2.813 12.033 4.305 26.456 3.338 14.421-.969 25.96-4.034 25.771-6.846-.189-2.81-12.034-4.305-26.455-3.337-14.423.969-25.96 4.033-25.772 6.845zm-32.207 44.195c-.518 1.286 1.549 3.544 5.59 5.835 4.022 2.29 10.054 4.514 16.992 5.637 6.939 1.115 13.364.9 17.903-.009 4.556-.904 7.228-2.397 7.14-3.78-.088-1.429-2.849-2.493-7.094-3.435-4.255-.94-10-1.836-16.324-2.85-6.323-1.026-12.058-1.98-16.393-2.428-4.325-.439-7.28-.298-7.814 1.03zm120.846-17.33c-1.4-.247-2.919 1.158-4.42 3.44-1.502 2.293-3.03 5.46-4.46 9.035-1.44 3.57-2.53 6.912-3.033 9.608-.496 2.687-.37 4.75.81 5.541 1.16.778 3.197.08 5.433-1.922 2.23-1.988 4.603-5.311 6.257-9.421 1.651-4.114 2.237-8.157 2.003-11.135-.228-2.992-1.215-4.905-2.59-5.146zm-84.391 53.427c-1.266.654-1.16 3.571-.271 7.772.894 4.211 2.513 9.732 4.416 15.778 1.894 6.049 3.721 11.507 5.392 15.472 1.673 3.955 3.253 6.41 4.666 6.222 1.38-.18 2.327-3.026 2.428-7.55.105-4.51-.71-10.689-2.749-17.2-2.047-6.508-4.909-12.044-7.575-15.686-2.668-3.654-5.07-5.447-6.307-4.808zm-21.02 11.155c-1.387-.064-2.813 2.243-3.647 6.19-.836 3.93-.987 9.5.118 15.472 1.115 5.974 3.253 11.117 5.447 14.484 2.195 3.384 4.355 5.026 5.626 4.467 1.308-.574 1.52-3.175 1.172-6.887-.356-3.724-1.212-8.586-2.211-13.926-.986-5.345-1.934-10.19-2.938-13.793-1.008-3.59-2.14-5.942-3.567-6.007zm-6.399 121.832c2.041 1.944 6.543.53 10.053-3.158 3.512-3.686 4.705-8.251 2.664-10.194-2.041-1.944-6.543-.53-10.053 3.158-3.511 3.686-4.705 8.25-2.664 10.194zm1.735 16.063c-2.81.093-4.68 12.434-3.813 27.545.857 15.113 4.118 27.161 6.92 26.934 2.817-.227 4.119-12.535 3.269-27.514-.859-14.98-3.553-27.06-6.376-26.965zm-35.307 24.041c-1.222 5.836-2.767 13.752-4.912 22.37a349.735 349.735 0 0 1-3.6 13.181c-1.175 3.998-3.6 11.034-3.23 12.944l1.394 7.223 4.77-6.804c1.835-2.615 3.861-6.037 5.724-10.118 1.86-4.08 3.555-8.817 4.842-13.945 2.333-9.36 2.822-18.164 2.216-24.44-.582-6.297-2.043-10.063-3.418-10.022-1.44.038-2.542 3.786-3.786 9.611zm34.934-70.674c-.432-1.303-3.78-1.61-8.813-.37-2.513.607-5.406 1.658-8.488 3.122a59.12 59.12 0 0 0-9.453 5.782 58.962 58.962 0 0 0-8.158 7.502c-2.255 2.561-4.06 5.053-5.336 7.302-2.576 4.498-3.2 7.801-2.067 8.575 1.189.817 3.869-.946 7.573-3.912l6.36-5.2c2.383-1.916 4.985-4 7.772-6.12 2.802-2.097 5.522-4.026 8.02-5.79l6.747-4.685c3.87-2.748 6.302-4.84 5.843-6.206zm-27.886-49.027c-1.35-.293-3.064 1.323-4.302 4.496-.625 1.578-1.078 3.535-1.3 5.74a29.305 29.305 0 0 0 .263 7.182 29.309 29.309 0 0 0 2.047 6.888c.915 2.02 1.97 3.727 3.068 5.024 2.187 2.612 4.326 3.594 5.512 2.886 1.231-.732 1.367-2.92 1.08-5.82a82 82 0 0 0-.684-4.891l-.952-5.74-.933-5.743a82.665 82.665 0 0 0-.917-4.853c-.654-2.84-1.482-4.87-2.882-5.169zm2.349-33.763c-1.134.885-.455 3.731.992 7.736.737 2 1.624 4.326 2.623 6.865.97 2.553 2.033 5.327 3.091 8.263 1.037 2.943 1.968 5.766 2.833 8.357a339.5 339.5 0 0 0 2.312 6.973c1.412 4.019 2.687 6.653 4.125 6.621 1.377-.027 2.664-2.821 3.037-7.497.197-2.33.106-5.111-.3-8.165a51.39 51.39 0 0 0-2.394-9.716 51.369 51.369 0 0 0-4.292-9.038c-1.617-2.623-3.305-4.832-4.933-6.515-3.246-3.383-6.012-4.735-7.094-3.884zm-21.08-47.479c-1.197.68-1.127 3.514.534 7.44.822 1.962 2.079 4.152 3.72 6.415a43.79 43.79 0 0 0 6.141 6.682 43.843 43.843 0 0 0 7.421 5.224c2.456 1.333 4.79 2.297 6.843 2.856 4.109 1.14 6.927.843 7.446-.435.546-1.329-1.199-3.364-4.034-5.923a202.787 202.787 0 0 0-4.98-4.281 18283.57 18283.57 0 0 0-5.963-5.11c-2.068-1.861-4.038-3.633-5.84-5.252a204.352 204.352 0 0 0-4.89-4.381c-2.906-2.483-5.15-3.947-6.398-3.235zm-21.095-24.848c.708 1.261 3.158 1.268 6.487 1.041l5.671-.41c2.093-.102 4.352-.193 6.73-.183 2.377.04 4.632.178 6.722.323l5.663.525c3.324.295 5.772.34 6.507-.907.702-1.167-.59-3.539-3.925-5.83a18.927 18.927 0 0 0-2.846-1.623c-1.056-.54-2.24-.954-3.503-1.376a31.299 31.299 0 0 0-8.514-1.317 31.286 31.286 0 0 0-8.538 1.142c-1.27.397-2.464.786-3.531 1.303a19.116 19.116 0 0 0-2.88 1.563c-3.379 2.223-4.72 4.567-4.043 5.75zm43.753-24.253c-2.047 1.936-1.31 6.042 1.65 9.168 2.957 3.127 7.015 4.09 9.062 2.154 2.046-1.937 1.308-6.04-1.65-9.167-2.958-3.128-7.016-4.092-9.062-2.155zm-80.574-6.626c.495 1.355 3.667 1.484 8.348 1.225 2.343-.143 5.086-.328 8.095-.544 3.016-.181 6.301-.375 9.756-.495 3.455-.093 6.747-.102 9.768-.107 3.017.031 5.766.046 8.112.044 4.689-.028 7.847-.352 8.258-1.734.396-1.315-2.132-3.48-6.898-5.353-2.376-.942-5.31-1.745-8.63-2.321a58.432 58.432 0 0 0-10.924-.728 58.266 58.266 0 0 0-10.86 1.398c-3.279.78-6.157 1.76-8.47 2.85-4.642 2.161-7.03 4.478-6.555 5.765zm-31.843 425.537c-.62 1.23 1.482 3.784 5.78 6.496 2.142 1.36 4.843 2.7 7.957 3.914a62.3 62.3 0 0 0 10.45 2.934c3.796.691 7.47.99 10.808 1.004 3.341-.016 6.343-.303 8.83-.805 4.984-.99 7.862-2.623 7.725-3.993-.14-1.432-3.177-2.359-7.8-3.224-2.317-.42-5.038-.88-8.03-1.353-2.993-.506-6.257-1.043-9.674-1.666-3.414-.642-6.653-1.31-9.627-1.91-2.964-.63-5.67-1.177-7.983-1.611-4.626-.85-7.794-1.072-8.436.214zm7.165-61.48c-1.338.41-1.837 3.205-1.392 7.406.44 4.196 1.859 9.788 4.28 15.635 2.422 5.844 5.373 10.802 8.03 14.082 2.656 3.285 4.983 4.91 6.22 4.251 2.494-1.367-.219-11.07-4.822-22.239-4.643-11.153-9.584-19.93-12.316-19.135zm24.436-46.765c-1.8-2.167-9.353 1.135-16.87 7.377-7.517 6.243-12.15 13.062-10.35 15.23 1.8 2.167 9.353-1.136 16.87-7.378 7.517-6.243 12.15-13.062 10.35-15.229zm24.778-48.8c-1.438.165-2.35 2.765-3.348 6.554l-1.68 6.515c-.664 2.403-1.406 5.003-2.285 7.705-.91 2.692-1.872 5.219-2.775 7.543l-2.55 6.227c-1.464 3.632-2.288 6.263-1.235 7.255.99.941 3.791-.028 7.115-3.072.825-.76 1.69-1.636 2.513-2.66.869-.996 1.662-2.153 2.486-3.386a40.721 40.721 0 0 0 4.132-8.693 40.76 40.76 0 0 0 1.885-9.436c.076-1.482.132-2.883.032-4.202a24.867 24.867 0 0 0-.423-3.633c-.846-4.428-2.511-6.881-3.867-6.717zm4.6-51.84c-1.265.714-.768 4.002.219 8.82.243 1.209.539 2.507.797 3.912.315 1.384.553 2.883.869 4.43.544 3.123 1.088 6.53 1.504 10.13.38 3.605.592 7.05.743 10.213.03 1.58.125 3.095.119 4.515.054 1.428.05 2.758.076 3.992.089 4.917.323 8.233 1.714 8.655 1.297.402 3.568-2.296 5.4-7.449a34.25 34.25 0 0 0 1.223-4.28c.39-1.558.626-3.25.863-5.041.385-3.583.447-7.575.006-11.725a55.537 55.537 0 0 0-2.565-11.44c-.623-1.695-1.222-3.297-1.943-4.732a34.298 34.298 0 0 0-2.127-3.91c-2.914-4.629-5.718-6.766-6.898-6.09zm28.795-52.415c-.788-1.14-3.44-.915-6.998.8-3.546 1.7-7.929 4.974-11.769 9.525-3.835 4.556-6.32 9.43-7.394 13.213-1.086 3.796-.858 6.45.4 7.033 1.295.603 3.354-.892 5.872-3.464 2.52-2.584 5.57-6.213 8.926-10.207 3.367-3.983 6.426-7.604 8.546-10.526 2.106-2.917 3.23-5.199 2.417-6.374zm-59.768-46.812c-.218 1.413 1.964 2.999 5.413 4.76 3.463 1.76 8.183 3.775 13.364 6.032 5.176 2.27 9.862 4.365 13.506 5.712 3.635 1.335 6.28 1.86 7.17.74.862-1.084-.256-3.667-3.151-6.733-1.44-1.537-3.34-3.151-5.606-4.728a48.72 48.72 0 0 0-7.831-4.342 48.691 48.691 0 0 0-8.506-2.799c-2.696-.592-5.17-.89-7.277-.903-4.217-.043-6.872.892-7.082 2.26zm35.009-18.604c-.985 1.024-.541 3.19.73 5.914 1.28 2.73 3.355 6.055 5.847 9.558 2.485 3.509 4.937 6.565 7.094 8.673 2.154 2.1 4.05 3.232 5.342 2.641 1.27-.581 1.671-2.833 1.032-6.021-.63-3.177-2.356-7.263-5.146-11.2-2.795-3.933-6.083-6.91-8.875-8.554-2.798-1.655-5.057-2.018-6.024-1.01zm-41.691-43.992c-.077 1.45 3.148 2.81 8.072 4.572 1.233.444 2.577.894 4.001 1.43 1.435.48 2.936 1.083 4.525 1.648 3.152 1.215 6.575 2.584 10.11 4.16 3.52 1.61 6.808 3.273 9.805 4.834 1.474.818 2.918 1.546 4.227 2.306 1.343.714 2.569 1.425 3.72 2.055 4.575 2.53 7.729 4.05 8.766 3.034.978-.947-.425-4.354-4.232-8.646a38.31 38.31 0 0 0-3.3-3.304c-1.228-1.154-2.65-2.248-4.156-3.392a62.484 62.484 0 0 0-10.631-6.187 62.577 62.577 0 0 0-11.668-3.885c-1.857-.373-3.616-.717-5.294-.875a38.338 38.338 0 0 0-4.661-.291c-5.736-.02-9.22 1.18-9.284 2.541zm-38.231-31.934c.411 1.418 4.033 1.554 9.386 1.9.671.055 1.371.1 2.093.134.724.041 1.478.157 2.25.218 1.547.096 3.184.372 4.897.57 3.418.534 7.12 1.254 10.94 2.304 3.806 1.102 7.337 2.422 10.531 3.755 1.562.728 3.104 1.348 4.472 2.075.69.35 1.394.647 2.032.989.633.348 1.253.676 1.854.981 4.745 2.503 7.903 4.28 8.995 3.288.518-.478.39-1.56-.344-3.16-.182-.4-.403-.833-.662-1.295-.268-.45-.597-.905-.951-1.399-.723-.97-1.552-2.102-2.645-3.158a79.873 79.873 0 0 0-1.705-1.69c-.607-.576-1.296-1.098-1.992-1.67-1.38-1.17-2.999-2.204-4.711-3.3a52.23 52.23 0 0 0-12.102-5.237c-4.53-1.253-9-1.804-13.054-1.864-2.033.04-3.954.075-5.743.353-.892.123-1.752.21-2.57.38-.818.181-1.598.365-2.337.55-1.484.331-2.783.862-3.906 1.31-.56.236-1.078.45-1.542.694-.462.26-.877.514-1.24.759-1.463.98-2.138 1.836-1.946 2.513zm13.376 52.111c-1.05.891-.378 3.753 2.119 7.435 1.237 1.843 2.96 3.838 5.087 5.838a47.076 47.076 0 0 0 7.591 5.677 47.076 47.076 0 0 0 8.6 3.984c2.771.92 5.345 1.49 7.555 1.704 4.427.447 7.264-.322 7.548-1.668.302-1.406-1.89-3.125-5.324-5.197a252.6 252.6 0 0 0-5.987-3.443c-2.222-1.278-4.645-2.655-7.164-4.144-2.507-1.51-4.868-2.988-7.047-4.337a255.629 255.629 0 0 0-5.875-3.631c-3.456-2.037-6.01-3.15-7.103-2.218zm-36.831 316.737c-1.311-.359-3.303 1.724-4.652 5.873a21.713 21.713 0 0 0-.82 3.444c-.242 1.257-.32 2.613-.39 4.048a35.204 35.204 0 0 0 1.081 9.252 35.244 35.244 0 0 0 3.566 8.606c.76 1.221 1.49 2.364 2.314 3.344a21.437 21.437 0 0 0 2.395 2.607c3.2 2.967 5.954 3.814 6.923 2.864 1.044-1.01.28-3.525-.986-6.965-.316-.864-.683-1.777-1.026-2.776-.392-.967-.722-2.035-1.13-3.113-.734-2.2-1.498-4.588-2.179-7.136-.648-2.558-1.146-5.015-1.574-7.294-.17-1.14-.404-2.234-.534-3.271-.187-1.038-.312-2.014-.457-2.923-.572-3.62-1.13-6.189-2.531-6.56zm-13.994-25.798c-.869 1.129.754 3.947 3.842 7.73 3.096 3.786 7.627 8.58 12.744 13.744 5.109 5.17 9.856 9.75 13.609 12.884 3.75 3.128 6.552 4.779 7.69 3.923 1.113-.837.328-4.056-2.11-8.497-2.427-4.434-6.558-10.048-11.937-15.488-5.383-5.435-10.954-9.625-15.364-12.1-4.414-2.482-7.625-3.301-8.474-2.196zm-64.223 31.432c-.92 1.022.583 4.178 4.27 8.126 1.834 1.978 4.24 4.099 7.099 6.212a68.64 68.64 0 0 0 9.895 5.96 68.509 68.509 0 0 0 10.78 4.152c3.423.96 6.574 1.556 9.262 1.79 5.38.487 8.795-.264 9.037-1.618.256-1.416-2.614-3.17-7.148-5.346a504.772 504.772 0 0 0-7.92-3.657c-2.95-1.371-6.173-2.86-9.527-4.487-3.344-1.65-6.498-3.28-9.392-4.766a501.433 501.433 0 0 0-7.747-4.006c-4.503-2.245-7.65-3.434-8.61-2.36zm-22.286-33.673c-.873 2.68 10.7 8.86 25.85 13.805 15.151 4.944 28.142 6.78 29.017 4.102.874-2.679-10.7-8.859-25.85-13.805-15.15-4.944-28.142-6.782-29.017-4.102zm73.372-23.402c-1.318-.39-3.524 2.344-5.477 7.415-.984 2.529-1.838 5.64-2.479 9.16a67.04 67.04 0 0 0-.962 11.585 67.07 67.07 0 0 0 1.126 11.57c.69 3.51 1.588 6.611 2.608 9.125 2.023 5.042 4.268 7.745 5.58 7.337 1.377-.423 1.61-3.786 1.481-8.826a702 702 0 0 0-.331-8.733c-.106-3.257-.22-6.81-.26-10.545-.013-3.734.052-7.288.11-10.548.096-3.253.167-6.213.208-8.736.06-5.04-.22-8.4-1.604-8.804zm29.874-36.577c-1.372.145-2.345 3.66-2.267 9.315.03 2.823.376 6.162 1.048 9.822a79.16 79.16 0 0 0 3.19 11.664 79.122 79.122 0 0 0 4.985 11.017c1.818 3.247 3.682 6.039 5.46 8.233 3.547 4.404 6.54 6.49 7.687 5.724 1.198-.793.381-4.23-1.395-9.257a401.194 401.194 0 0 0-3.231-8.677 34789.54 34789.54 0 0 1-3.906-10.5l-3.692-10.577a406.212 406.212 0 0 0-3.046-8.744c-1.84-5.004-3.404-8.172-4.833-8.02zm42.142-45.867c-2.708-.78-8.325 10.49-12.545 25.171-4.22 14.68-5.447 27.211-2.738 27.991 2.71.777 8.326-10.49 12.546-25.17 4.22-14.68 5.446-27.214 2.737-27.992zm15.99-33.198c-1.358.51-1.363 3.878-1.083 8.87.066 1.252.17 2.603.228 4.053.114 1.441.138 2.985.233 4.59.1 3.223.168 6.736.09 10.426-.114 3.688-.363 7.193-.632 10.406-.178 1.598-.283 3.139-.472 4.57-.132 1.448-.307 2.791-.438 4.037-.54 4.97-.71 8.335.622 8.915 1.243.553 3.823-1.9 6.29-6.844a35.948 35.948 0 0 0 1.758-4.14c.584-1.513 1.038-3.179 1.507-4.942a58.041 58.041 0 0 0 1.566-11.737 58.078 58.078 0 0 0-.954-11.803c-.376-1.785-.742-3.472-1.248-5.014a35.874 35.874 0 0 0-1.54-4.225c-2.206-5.065-4.654-7.649-5.926-7.162zm-21.156-55.243c-.82 1.182 1.155 4.03 4.548 7.988a475.367 475.367 0 0 0 5.991 6.777c2.233 2.532 4.679 5.29 7.199 8.229 2.502 2.955 4.838 5.806 6.985 8.412a461.62 461.62 0 0 0 5.744 6.99c3.369 3.975 5.868 6.377 7.166 5.754 1.243-.592 1.017-4.176-.93-9.385-.963-2.604-2.402-5.576-4.26-8.729a74.067 74.067 0 0 0-6.938-9.662 74.08 74.08 0 0 0-8.441-8.38c-2.82-2.335-5.526-4.226-7.945-5.59-4.834-2.747-8.337-3.538-9.12-2.404zm-26.767 10.733c-1.348.23-2.257 2.988-1.87 7.369.1 1.09.264 2.28.566 3.523.255 1.264.676 2.566 1.14 3.936a40.27 40.27 0 0 0 4.237 8.371 40.295 40.295 0 0 0 6.122 7.11c1.09.952 2.132 1.838 3.203 2.556a24.477 24.477 0 0 0 3.041 1.867c3.902 2.028 6.8 2.24 7.525 1.082.772-1.222-.628-3.536-2.903-6.622l-3.958-5.26c-1.439-1.969-2.992-4.107-4.549-6.408-1.532-2.317-2.918-4.567-4.187-6.649l-3.353-5.666c-1.984-3.28-3.59-5.455-5.014-5.209zm-160.092 161.563c-1.25.574-1.012 4.306.99 9.766.991 2.73 2.47 5.85 4.385 9.17a78.508 78.508 0 0 0 7.156 10.187 78.602 78.602 0 0 0 8.729 8.877c2.918 2.481 5.721 4.5 8.228 5.967 5.008 2.956 8.636 3.862 9.426 2.736.83-1.177-1.254-4.128-4.806-8.277a683.583 683.583 0 0 0-6.256-7.132c-2.328-2.673-4.87-5.59-7.48-8.705-2.593-3.13-5.004-6.157-7.213-8.927a688.42 688.42 0 0 0-5.884-7.44c-3.439-4.243-5.967-6.826-7.275-6.222zm-36.506-69.586c-.627-.322-1.561.106-2.751 1.238-.298.283-.61.61-.937.978-.312.376-.602.808-.92 1.275-.612.94-1.339 2.028-1.886 3.327a65.29 65.29 0 0 0-.894 2.046c-.294.72-.506 1.493-.76 2.291-.54 1.596-.851 3.353-1.184 5.215a43.814 43.814 0 0 0 .02 12.25 43.783 43.783 0 0 0 3.582 11.714c.867 1.68 1.68 3.268 2.666 4.634.478.689.907 1.366 1.4 1.969.498.599.984 1.163 1.455 1.691.906 1.082 1.92 1.908 2.782 2.627.441.353.845.68 1.254.947.42.257.817.477 1.184.66 1.468.733 2.489.866 2.993.374 1.05-1.04-.337-4.064-2.16-8.536-.22-.568-.46-1.151-.716-1.747-.25-.6-.445-1.26-.696-1.91-.528-1.284-.923-2.723-1.423-4.183-.867-2.977-1.674-6.254-2.23-9.759-.498-3.51-.69-6.88-.738-9.98.048-1.542.003-3.035.13-4.417.05-.695.042-1.382.105-2.03.069-.646.126-1.273.17-1.88.428-4.81.864-8.11-.446-8.794zm6.427-53.887c-1.214.821.2 4.974 2.461 11.302.285.791.582 1.616.89 2.477.316.856.589 1.767.914 2.69.674 1.835 1.26 3.84 1.95 5.912 1.27 4.186 2.559 8.792 3.671 13.688 1.069 4.907 1.853 9.624 2.478 13.953.254 2.168.572 4.234.74 6.18.096.974.236 1.917.313 2.824l.243 2.621c.635 6.69 1.115 11.05 2.563 11.28 1.328.22 3.408-3.86 4.647-10.989.146-.89.286-1.826.422-2.804.13-.977.186-1.997.273-3.057.197-2.12.187-4.389.173-6.782a84.45 84.45 0 0 0-1.89-15.441 84.374 84.374 0 0 0-4.834-14.788c-1.004-2.174-1.956-4.232-3.032-6.07-.528-.922-1.01-1.824-1.544-2.654a119.1 119.1 0 0 0-1.57-2.36c-4.145-5.932-7.757-8.744-8.868-7.982zm94.779 102.751c.135-2.815-14.959-5.833-33.715-6.74-18.755-.91-34.07.637-34.205 3.452-.137 2.815 14.957 5.832 33.713 6.74 18.755.908 34.07-.637 34.207-3.452zm42.274-3.442c-.62-.335-1.749.232-3.204 1.458-.365.306-.748.655-1.15 1.043l-1.388 1.19c-.99.847-1.965 1.895-3.235 2.88-.61.512-1.235 1.05-1.875 1.617-.646.561-1.397 1.065-2.113 1.638-1.403 1.18-3.076 2.223-4.741 3.405-3.463 2.202-7.383 4.38-11.718 6.225-4.365 1.772-8.676 3.014-12.677 3.914-2.014.346-3.932.796-5.76.958-.91.103-1.797.28-2.65.343-.853.053-1.676.116-2.469.188-1.595.205-3.025.156-4.323.261l-1.824.143c-.557.012-1.075.039-1.55.079-1.895.167-3.093.568-3.293 1.243-.2.675.63 1.57 2.4 2.628.441.266.942.54 1.5.823.56.26 1.188.474 1.865.719 1.358.454 2.927 1.03 4.715 1.302.891.167 1.83.33 2.817.486.986.148 2.014.168 3.085.242 2.15.195 4.432.033 6.852-.111a55.646 55.646 0 0 0 15.228-3.795 55.708 55.708 0 0 0 13.431-8.117c1.811-1.612 3.536-3.117 4.915-4.776.703-.813 1.415-1.555 2.004-2.358.585-.81 1.132-1.591 1.642-2.34 1.069-1.459 1.767-2.976 2.403-4.26.304-.653.596-1.247.807-1.83.193-.595.352-1.143.475-1.644.5-2.001.45-3.22-.17-3.554zm-11.934-40.68c-.73 1.233.953 3.651 3.868 6.825a188.433 188.433 0 0 0 5.185 5.349l6.317 6.352c2.217 2.275 4.326 4.439 6.255 6.416a188.146 188.146 0 0 0 5.267 5.267c3.128 2.966 5.52 4.683 6.764 3.974 1.203-.682.996-3.741-.802-8.04-.89-2.148-2.213-4.57-3.914-7.109a56.692 56.692 0 0 0-6.299-7.667 56.785 56.785 0 0 0-7.568-6.417c-2.512-1.74-4.914-3.1-7.047-4.023-4.27-1.864-7.324-2.12-8.026-.928zm-58.999-29.078c-.7.067-1.245 1.075-1.617 2.911-.092.46-.174.971-.246 1.53-.055.558-.062 1.158-.073 1.808-.002 1.293-.018 2.79.225 4.397.1.808.218 1.657.354 2.54.141.884.382 1.776.596 2.716.404 1.888 1.086 3.827 1.805 5.877a59.118 59.118 0 0 0 6.62 12.446 59.186 59.186 0 0 0 9.512 10.404c1.693 1.362 3.29 2.653 4.936 3.666.812.517 1.573 1.041 2.358 1.47.788.424 1.549.819 2.276 1.184 1.434.769 2.85 1.253 4.069 1.685.615.206 1.183.4 1.726.535.553.12 1.062.214 1.525.28 1.856.264 2.988.088 3.285-.549.618-1.343-2.29-3.93-6.545-7.915a77.665 77.665 0 0 0-1.665-1.559c-.578-.535-1.134-1.15-1.74-1.738-1.234-1.152-2.427-2.511-3.733-3.863-2.517-2.808-5.152-5.97-7.668-9.486-2.47-3.547-4.57-7.089-6.373-10.4-.837-1.685-1.719-3.263-2.392-4.81-.351-.769-.744-1.499-1.055-2.223a79.155 79.155 0 0 0-.91-2.09c-2.334-5.344-3.798-8.95-5.27-8.816zm64.051 10.566c-.196 1.43 2.628 3.035 7.01 5.034l7.615 3.39c2.826 1.289 5.9 2.703 9.089 4.274 3.177 1.596 6.16 3.196 8.892 4.672 2.732 1.508 5.202 2.87 7.298 4.028 4.236 2.289 7.22 3.574 8.243 2.553.974-.963-.267-4.135-3.674-8.137-1.692-2.005-3.957-4.154-6.68-6.289a60.036 60.036 0 0 0-9.534-5.964 60.006 60.006 0 0 0-10.506-4.005c-3.347-.885-6.426-1.395-9.045-1.537-5.248-.302-8.527.622-8.708 1.981zm7.54-30.967c-.58-1.236-3.945-1.163-8.773.758a32.847 32.847 0 0 0-3.818 1.807c-1.357.7-2.713 1.586-4.14 2.536a53.694 53.694 0 0 0-8.394 7.296 53.773 53.773 0 0 0-6.635 8.928c-.837 1.494-1.618 2.915-2.212 4.32a32.83 32.83 0 0 0-1.511 3.946c-1.547 4.96-1.364 8.321-.086 8.804 1.353.517 3.525-1.804 6.47-5.437l5.078-6.292c1.931-2.307 4.055-4.798 6.382-7.333 2.35-2.513 4.673-4.822 6.826-6.923 2.201-2.076 4.193-3.952 5.884-5.545 3.398-3.213 5.547-5.556 4.928-6.865zm12.136-3.14c-.585 1.3 1.188 3.461 4.288 6.103 3.11 2.646 7.52 5.826 12.454 9.224 4.926 3.404 9.467 6.4 13.042 8.369 3.571 1.96 6.221 2.85 7.228 1.842.984-.984.101-3.722-2.42-7.223-2.51-3.495-6.71-7.695-12.055-11.388-5.35-3.687-10.767-6.122-14.925-7.227-4.168-1.115-7.04-.97-7.612.3zm23.324-65.208c-.518-.478-1.463-.393-2.792.25-.333.16-.689.356-1.066.586-.365.24-.72.535-1.11.855-.758.653-1.654 1.41-2.422 2.404a49.294 49.294 0 0 0-1.238 1.558c-.417.555-.765 1.178-1.158 1.813-.818 1.263-1.448 2.723-2.116 4.272a35.108 35.108 0 0 0-2.26 10.666c-.151 3.89.376 7.598 1.288 10.828.526 1.604 1.02 3.114 1.72 4.446.335.668.625 1.32.991 1.91.37.59.736 1.144 1.093 1.665.675 1.057 1.498 1.893 2.195 2.61.359.355.684.682 1.027.953.355.263.693.49 1.008.68 1.267.761 2.2.93 2.759.502 1.16-.91.413-3.74-.432-7.758a39.806 39.806 0 0 0-.335-1.567c-.12-.538-.176-1.12-.287-1.697-.248-1.146-.346-2.407-.54-3.69-.25-2.603-.4-5.436-.292-8.42.162-2.981.567-5.79 1.053-8.359.308-1.261.518-2.508.87-3.625.162-.566.27-1.142.438-1.666a41.24 41.24 0 0 0 .475-1.53c1.205-3.926 2.205-6.677 1.13-7.686zm35.753-25.414c-.254 1.434 3.024 3.21 8.064 5.683.629.316 1.289.635 1.976.958.687.326 1.384.71 2.115 1.065 1.473.692 2.995 1.532 4.618 2.343 3.206 1.714 6.674 3.64 10.222 5.824 3.53 2.214 6.793 4.47 9.749 6.587 1.446 1.094 2.873 2.087 4.146 3.102.643.5 1.296.953 1.891 1.425.593.473 1.172.923 1.735 1.347 4.449 3.422 7.493 5.576 8.666 4.714 1.098-.798.052-4.576-3.4-9.646a78.463 78.463 0 0 0-1.4-1.951c-.5-.67-1.07-1.32-1.648-2.01-1.141-1.395-2.499-2.752-3.938-4.18a67.35 67.35 0 0 0-10.414-8.056 67.398 67.398 0 0 0-11.835-5.77c-1.917-.658-3.736-1.274-5.493-1.68-.874-.211-1.71-.436-2.53-.587a83.592 83.592 0 0 0-2.37-.392c-6.075-.848-9.926-.114-10.154 1.224zm-9.184-16.974c-.913-1.024-3.53-.496-6.75 1.846-1.61 1.16-3.306 2.802-4.94 4.84a34.537 34.537 0 0 0-4.344 7.27 34.516 34.516 0 0 0-2.376 8.131c-.382 2.582-.433 4.943-.189 6.912.473 3.955 1.866 6.23 3.237 6.205 1.44-.021 2.627-2.187 3.929-5.341.638-1.584 1.362-3.42 2.127-5.423.8-1.997 1.66-4.157 2.624-6.402.99-2.234 1.989-4.333 2.908-6.278a323.556 323.556 0 0 0 2.53-5.248c1.426-3.1 2.209-5.442 1.244-6.512zm-44.695-28.558c.06 1.446 3.017 2.524 7.462 3.782 2.21.617 4.81 1.344 7.688 2.15 2.848.847 5.938 1.796 9.148 2.909 3.197 1.14 6.202 2.333 8.954 3.453 2.748 1.172 5.231 2.234 7.342 3.135 4.254 1.8 7.235 2.81 8.186 1.72.903-1.025-.481-4.055-4.117-7.68a32.495 32.495 0 0 0-3.141-2.756c-1.165-.954-2.503-1.837-3.925-2.758a53.054 53.054 0 0 0-9.915-4.742 53.051 53.051 0 0 0-10.702-2.506c-1.685-.171-3.281-.32-4.788-.304-1.5-.038-2.9.051-4.173.184-5.105.551-8.082 2.05-8.019 3.413zm-4.52-30.448c.568 1.325 3.535 1.374 7.841 1.011 2.154-.195 4.67-.439 7.423-.724 2.761-.249 5.763-.518 8.925-.722 3.162-.178 6.177-.271 8.948-.354 2.767-.05 5.293-.108 7.455-.173 4.32-.157 7.259-.562 7.663-1.946.388-1.316-1.94-3.408-6.395-5.159-2.22-.882-4.965-1.61-8.073-2.104a50.988 50.988 0 0 0-10.212-.451 50.93 50.93 0 0 0-10.083 1.673c-3.027.864-5.665 1.916-7.762 3.06-4.212 2.271-6.274 4.63-5.73 5.889zm-109.71 188.777c-1.363-.26-3.096 1.797-4.442 5.56-1.347 3.745-2.2 9.208-1.804 15.218.407 6.01 1.983 11.31 3.817 14.842 1.835 3.55 3.827 5.357 5.143 4.92 1.357-.45 1.82-2.984 1.864-6.644.036-3.673-.28-8.494-.642-13.8-.348-5.306-.678-10.127-1.203-13.76-.53-3.623-1.329-6.074-2.734-6.336zm14.942-21.328c-.38 1.372 1.056 3.064 3.458 4.882 2.415 1.82 5.785 3.818 9.576 5.843 3.79 2.033 7.32 3.73 10.172 4.732 2.847.991 5.05 1.247 5.982.171.912-1.053.33-3.29-1.644-5.939-1.96-2.642-5.356-5.635-9.692-7.96-4.339-2.32-8.714-3.486-11.998-3.653-3.3-.174-5.484.582-5.854 1.924zm38.7-49.963c-1.142-.735-3.584.528-5.982 3.892-.59.839-1.192 1.795-1.704 2.88-.568 1.071-1.008 2.276-1.459 3.559a31.532 31.532 0 0 0-1.44 8.683 31.548 31.548 0 0 0 1.113 8.732c.402 1.3.795 2.52 1.322 3.61a19.261 19.261 0 0 0 1.595 2.943c2.27 3.452 4.663 4.805 5.832 4.115 1.255-.726 1.208-3.208.946-6.59-.064-.851-.163-1.754-.218-2.726-.11-.956-.132-1.986-.226-3.042-.104-2.13-.189-4.429-.161-6.85.064-2.42.234-4.715.418-6.838.135-1.051.198-2.08.342-3.03.09-.97.224-1.868.32-2.717.39-3.37.53-5.848-.697-6.62zm21.967-34.888c-.666-.23-1.588.484-2.705 2.041-.28.388-.57.83-.872 1.322-.287.495-.548 1.05-.835 1.65-.55 1.204-1.199 2.589-1.663 4.186a99.8 99.8 0 0 0-.76 2.513c-.248.88-.41 1.81-.617 2.774-.44 1.927-.649 4.018-.874 6.228a62.336 62.336 0 0 0 .657 14.404 62.416 62.416 0 0 0 4.12 13.819c.94 2.012 1.827 3.917 2.877 5.59.51.844.97 1.669 1.495 2.418a95.053 95.053 0 0 0 1.544 2.122c.963 1.356 2.032 2.45 2.948 3.405.468.472.898.911 1.333 1.284.446.365.866.687 1.257.962 1.568 1.102 2.673 1.474 3.227 1.037 1.154-.922-.348-4.62-2.48-10.234a85.442 85.442 0 0 0-.836-2.197c-.294-.756-.534-1.577-.83-2.394-.62-1.627-1.117-3.423-1.72-5.266-1.073-3.739-2.102-7.857-2.873-12.25-.717-4.401-1.102-8.63-1.319-12.513-.037-1.94-.16-3.798-.108-5.538.01-.87-.033-1.723-.005-2.534a85.87 85.87 0 0 0 .066-2.349c.166-6.003.367-9.99-1.027-10.48zm-8.71-28.455c-.589 1.336 1.679 3.616 5.059 6.876.42.415.861.838 1.327 1.267.462.432.908.925 1.395 1.395.99.922 1.955 2 3.014 3.063 2.05 2.21 4.22 4.667 6.343 7.38 2.09 2.737 3.922 5.456 5.544 7.995.762 1.293 1.561 2.5 2.205 3.69.331.59.697 1.146 1 1.702.297.557.595 1.091.89 1.603 2.304 4.09 3.938 6.86 5.381 6.626.695-.115 1.204-.982 1.515-2.515.165-.77.264-1.7.237-2.763-.019-1.064-.042-2.295-.278-3.605a64.058 64.058 0 0 0-.358-2.072c-.142-.719-.36-1.442-.565-2.204-.388-1.533-1.003-3.098-1.66-4.751a47.48 47.48 0 0 0-5.837-9.948 47.478 47.478 0 0 0-8.158-8.156c-1.434-1.052-2.793-2.04-4.179-2.802-.685-.39-1.33-.785-1.991-1.102a60.305 60.305 0 0 0-1.915-.868c-1.209-.558-2.394-.89-3.42-1.177a11.81 11.81 0 0 0-2.732-.466c-1.563-.085-2.529.188-2.817.832zm11.732-26.001c-.838 1.156 1.06 4.055 4.496 8.004 3.446 3.953 8.383 9.021 13.835 14.605 5.441 5.592 10.382 10.66 14.245 14.205 3.86 3.537 6.707 5.509 7.886 4.7 1.147-.783.377-4.242-2.157-9.086-2.523-4.837-6.886-11.004-12.666-16.942-5.788-5.93-11.84-10.45-16.61-13.098-4.778-2.656-8.217-3.514-9.03-2.388zm-14.47-72.597c-.488 1.29 2.678 3.915 8.49 6.678 2.9 1.388 6.47 2.758 10.52 4.004a104.23 104.23 0 0 0 13.434 3.069c4.836.75 9.492 1.122 13.728 1.21 4.238.06 8.055-.144 11.241-.574 6.38-.84 10.2-2.364 10.132-3.742-.07-1.435-3.947-2.47-10.025-3.473a519.737 519.737 0 0 0-10.61-1.584l-12.877-1.917c-4.553-.758-8.889-1.48-12.843-2.136a506.69 506.69 0 0 0-10.582-1.755c-6.092-.914-10.1-1.124-10.608.22zm37.242-24.024c-.282 2.785 13.015 6.407 29.76 7.103 16.745.72 30.3-1.764 30.254-4.563-.041-2.838-13.403-4.925-29.823-5.632-16.419-.682-29.91.269-30.191 3.092zm-100.364.598c.654 1.295 4.147.864 9.327-.083 1.3-.233 2.699-.518 4.21-.77 1.492-.307 3.105-.54 4.774-.85 3.36-.537 7.034-1.078 10.912-1.499 3.879-.384 7.585-.61 10.984-.779 1.699-.04 3.324-.144 4.848-.15 1.53-.066 2.959-.075 4.278-.114 5.263-.14 8.77-.437 9.144-1.84.358-1.314-2.604-3.53-8.087-5.3a39.21 39.21 0 0 0-4.543-1.171c-1.652-.375-3.439-.597-5.327-.823a63.673 63.673 0 0 0-12.354.028 63.848 63.848 0 0 0-12.095 2.516c-1.802.608-3.505 1.195-5.043 1.9a38.978 38.978 0 0 0-4.204 2.084c-5.004 2.857-7.445 5.637-6.824 6.851zm32.949 24.098c-1.232.64-1.242 3.478.127 7.506 1.356 4.016 4.17 9.173 8.304 14.081 4.139 4.902 8.745 8.549 12.475 10.565 3.737 2.03 6.537 2.5 7.376 1.395.866-1.137-.33-3.602-2.626-6.828-2.31-3.231-5.679-7.28-9.423-11.71-3.734-4.439-7.155-8.444-9.948-11.265-2.792-2.81-5.02-4.405-6.285-3.744zm-4.887 57.342c-.364 1.31 2.43 3.508 7.686 5.196 1.31.414 2.767.814 4.355 1.098 1.585.346 3.301.53 5.114.717 3.626.276 7.656.217 11.828-.353a56.125 56.125 0 0 0 11.466-2.93c1.691-.679 3.289-1.331 4.716-2.1 1.45-.712 2.737-1.5 3.882-2.26 4.586-3.074 6.663-5.958 5.952-7.116-.754-1.243-4.051-.63-8.881.522-1.214.285-2.516.625-3.926.931-1.387.363-2.894.65-4.448 1.017-3.135.646-6.559 1.301-10.185 1.83-3.63.494-7.102.811-10.294 1.055-1.595.076-3.122.217-4.555.252-1.441.094-2.785.128-4.03.19-4.96.227-8.299.548-8.68 1.951zm-35.655 30.506c-.803 1.123.767 3.888 4.393 7.124 1.804 1.622 4.138 3.309 6.884 4.936a58.85 58.85 0 0 0 9.392 4.387 59.066 59.066 0 0 0 10.031 2.62c3.152.498 6.027.69 8.45.593 4.857-.178 7.831-1.303 7.929-2.68.105-1.431-2.596-2.854-6.795-4.447a253.361 253.361 0 0 0-7.323-2.595l-8.83-3.091-8.768-3.256a260.74 260.74 0 0 0-7.294-2.677c-4.25-1.455-7.236-2.083-8.07-.914zm-5.488 29.744c-1.073.872-.586 3.578 1.561 7.081 1.065 1.752 2.57 3.66 4.447 5.585a43.383 43.383 0 0 0 6.753 5.528 43.375 43.375 0 0 0 7.745 4.021c2.509.965 4.856 1.596 6.886 1.882 4.067.591 6.745-.03 7.123-1.36.396-1.377-1.479-3.194-4.488-5.357a139.118 139.118 0 0 0-5.278-3.555l-6.374-4.153c-2.242-1.495-4.379-2.916-6.331-4.218a142.962 142.962 0 0 0-5.351-3.447c-3.175-1.909-5.583-2.915-6.693-2.007zm-36.81 30.575c-1.55 2.354 8.166 11.492 21.7 20.411 6.771 4.461 13.203 8.017 18.16 10.175 2.514 1.122 4.925 1.853 6.68 1.904 1.768.07 2.787-.417 2.948-1.088.17-.694-.433-1.506-1.412-2.575-1-1.07-2.35-2.454-4.258-4.275-3.916-3.684-9.737-8.205-16.502-12.663-13.535-8.92-25.765-14.243-27.315-11.889zm-51.402 45.052c-1.368.23-2.227 3.076-2.105 7.567.115 4.475 1.311 10.572 3.891 16.853 2.588 6.276 6.03 11.448 9.099 14.708 3.073 3.275 5.687 4.692 6.821 3.892 1.169-.822.687-3.652-.648-7.628-1.346-3.984-3.482-9.158-5.836-14.857-2.34-5.704-4.463-10.883-6.312-14.66-1.85-3.764-3.5-6.114-4.91-5.875zm32.124-2.312c-1.366.38-1.996 2.8-2.081 6.364-.084 3.568.341 8.29 1.154 13.436.808 5.149 1.853 9.773 3.027 13.144 1.178 3.365 2.52 5.473 3.936 5.418 1.4-.056 2.607-2.301 3.26-5.961.657-3.652.717-8.715-.141-14.186-.864-5.47-2.476-10.27-4.222-13.545-1.746-3.28-3.586-5.048-4.933-4.67zm19.414-21.233c-1.117.836-.658 3.622 1.249 7.384 1.897 3.754 5.29 8.44 9.824 12.866 4.539 4.419 9.311 7.69 13.113 9.492 3.808 1.81 6.606 2.197 7.414 1.06.825-1.159-.453-3.6-2.957-6.735-2.511-3.137-6.217-7.01-10.446-11.125-4.223-4.123-8.189-7.73-11.39-10.16-3.196-2.422-5.67-3.637-6.807-2.782zm14.59-84.803c-.993-.944-3.283-.503-5.86 1.682-1.288 1.079-2.57 2.61-3.714 4.496a24.079 24.079 0 0 0-2.637 6.63 24.065 24.065 0 0 0-.509 7.12c.21 2.194.7 4.13 1.39 5.662 1.371 3.088 3.24 4.481 4.546 4.063 1.372-.431 2.034-2.417 2.605-5.029.271-1.312.57-2.804.858-4.41.325-1.607.66-3.328 1.057-5.13.425-1.795.873-3.49 1.279-5.079.439-1.57.818-3.044 1.146-4.344.619-2.6.888-4.677-.161-5.66zm87.877 30.15c-2.345-1.561-7.695 2.347-11.95 8.731-4.255 6.385-5.802 12.827-3.457 14.39 2.344 1.564 7.695-2.346 11.95-8.73 4.254-6.385 5.803-12.829 3.457-14.39zm-58.526-80.783c-.678-.189-1.486.334-2.383 1.547-.224.303-.454.65-.687 1.036-.218.39-.4.828-.6 1.302-.379.953-.835 2.065-1.061 3.331a54.485 54.485 0 0 0-.388 2.006c-.114.702-.134 1.432-.19 2.197-.145 1.535-.022 3.16.106 4.886a35.859 35.859 0 0 0 3.026 10.761 35.847 35.847 0 0 0 6.34 9.205c1.245 1.202 2.416 2.335 3.689 3.207.624.445 1.198.897 1.812 1.257a53.58 53.58 0 0 0 1.788.984c1.12.637 2.266.996 3.24 1.314.494.149.946.29 1.384.372.447.067.86.11 1.237.133 1.507.086 2.425-.2 2.713-.844.592-1.353-1.482-3.512-4.211-6.723a46.955 46.955 0 0 0-1.069-1.252c-.371-.427-.705-.927-1.085-1.396-.785-.914-1.483-2.01-2.281-3.08-1.486-2.24-2.987-4.743-4.317-7.512-1.28-2.792-2.244-5.547-3.016-8.122-.313-1.297-.71-2.535-.911-3.723-.116-.591-.287-1.169-.38-1.727a41.308 41.308 0 0 0-.278-1.621c-.724-4.153-1.059-7.125-2.478-7.538zm-19.901-23.924c.093 1.452 2.901 2.46 7 3.748.512.17 1.047.333 1.603.493.554.164 1.122.38 1.712.563 1.185.342 2.417.816 3.718 1.235 2.581.938 5.365 2.007 8.226 3.284 2.846 1.314 5.482 2.706 7.887 4.035 1.172.702 2.34 1.319 3.377 1.985.524.325 1.062.61 1.55.918.486.313.961.609 1.426.885 3.667 2.236 6.274 3.689 7.429 2.803 1.081-.815.425-3.977-2.451-8.028a54.876 54.876 0 0 0-1.174-1.546c-.42-.529-.907-1.028-1.4-1.563-.973-1.088-2.14-2.105-3.386-3.174a43.27 43.27 0 0 0-9.039-5.607 43.234 43.234 0 0 0-10.167-3.115c-1.624-.234-3.16-.445-4.619-.461-.727-.02-1.424-.057-2.098-.026-.676.034-1.322.079-1.936.134-4.943.5-7.757 2.086-7.658 3.437zm-51.312-11.982c.731 1.226 4.327.518 9.615-1.286 5.294-1.81 12.316-4.656 20.036-7.85 7.725-3.183 14.71-6.12 19.739-8.57 5.02-2.453 8.067-4.489 7.722-5.873-.335-1.349-4.046-1.78-9.783-1.043-5.73.731-13.464 2.712-21.572 6.053-8.105 3.352-14.984 7.405-19.56 10.928-4.587 3.526-6.912 6.449-6.197 7.64zM983.05 38.4c-.617.339-.906 1.158-.854 2.423a7.68 7.68 0 0 0 .398 2.17c.255.8.563 1.728 1.072 2.64.244.465.51.948.8 1.449.294.496.655.964 1.016 1.471.709 1.026 1.613 1.985 2.582 2.995a30.313 30.313 0 0 0 7.37 5.255 30.317 30.317 0 0 0 8.628 2.735c1.389.167 2.7.314 3.946.263.62-.013 1.213-.008 1.786-.072a36.875 36.875 0 0 0 1.639-.229c1.036-.14 1.961-.453 2.754-.73a7.636 7.636 0 0 0 1.974-.986c1.043-.717 1.523-1.441 1.424-2.137-.22-1.44-2.578-2.286-5.807-3.356-.405-.14-.827-.274-1.26-.403-.437-.133-.881-.319-1.341-.467-.923-.276-1.877-.677-2.882-1.017-1.991-.778-4.12-1.664-6.302-2.732-2.162-1.1-4.15-2.273-5.968-3.397-.876-.6-1.77-1.119-2.545-1.692-.394-.278-.81-.522-1.178-.79a27.33 27.33 0 0 0-1.08-.766c-2.796-1.94-4.889-3.315-6.172-2.627zm-57.646-26.914c.603 1.284 2.986 1.555 6.337 1.137 3.357-.423 7.696-1.504 12.367-3.023 4.673-1.514 8.82-3.19 11.786-4.82 2.957-1.629 4.726-3.25 4.46-4.641-.264-1.376-2.553-2.256-6.09-2.387-3.531-.136-8.301.52-13.307 2.141-5.003 1.628-9.249 3.9-12.027 6.083-2.785 2.186-4.12 4.243-3.526 5.51zM919.68 49.84c.483 1.307 3.333 1.649 7.559.85 4.215-.793 9.78-2.79 15.397-5.994 5.617-3.212 10.163-6.99 12.987-10.218 2.835-3.233 3.99-5.861 3.109-6.94-.9-1.104-3.628-.49-7.377 1.122-3.754 1.62-8.565 4.191-13.779 7.174-5.218 2.974-9.878 5.811-13.181 8.224-3.293 2.409-5.208 4.446-4.715 5.782zm-26.92 128.908c-.178 1.435 2.609 2.99 6.884 4.945l7.411 3.342c2.742 1.284 5.719 2.698 8.796 4.285 3.064 1.611 5.93 3.238 8.553 4.749l6.988 4.155c4.055 2.38 6.925 3.77 8 2.804 1.02-.912-.02-4.11-3.209-8.2a34.24 34.24 0 0 0-2.793-3.165c-1.044-1.105-2.265-2.168-3.565-3.278a55.73 55.73 0 0 0-9.262-6.118 55.706 55.706 0 0 0-10.321-4.078c-1.656-.428-3.226-.82-4.732-1.042a34.07 34.07 0 0 0-4.192-.474c-5.18-.266-8.396.716-8.558 2.075zm51.342-23.736c-2.278 1.66 1.314 10.464 8.022 19.665 6.708 9.2 13.99 15.312 16.268 13.652 2.277-1.66-1.315-10.464-8.022-19.665-6.708-9.2-13.99-15.312-16.268-13.652zm46.198-39.586c-1.008-.925-3.516-.196-6.397 2.411-1.441 1.292-2.9 3.073-4.24 5.24a31.669 31.669 0 0 0-3.27 7.585 31.679 31.679 0 0 0-1.121 8.184c.026 2.547.354 4.826.92 6.676 1.116 3.721 2.887 5.643 4.23 5.372 1.415-.279 2.21-2.537 2.978-5.705.37-1.591.79-3.424 1.228-5.416.475-1.988.988-4.135 1.597-6.373.635-2.23 1.306-4.332 1.928-6.28a432.42 432.42 0 0 0 1.748-5.27c.98-3.11 1.467-5.455.4-6.424zm1.344 48.066c-1.307-.477-3.025.404-4.525 2.51-1.497 2.082-2.688 5.41-2.821 9.199-.128 3.788.83 7.19 2.18 9.372 1.352 2.202 3.005 3.2 4.343 2.815 1.367-.392 2.208-1.996 2.756-4.116.54-2.134.825-4.8.92-7.72.106-2.919.005-5.598-.386-7.765-.4-2.15-1.13-3.81-2.467-4.295zm-69.008-57.8c.102 1.383 2.97 2.497 7.628 2.798 4.643.309 11.066-.29 17.855-2.216 6.786-1.938 12.561-4.812 16.347-7.52 3.8-2.71 5.653-5.166 5.009-6.398-.66-1.265-3.64-1.106-7.94-.196-4.308.916-9.973 2.516-16.21 4.298-6.24 1.77-11.898 3.394-16.043 4.884-4.135 1.493-6.75 2.925-6.646 4.35zm69.543-28.16c-1.216 2.542 4.325 7.722 12.374 11.57 8.05 3.846 15.56 4.905 16.776 2.362 1.214-2.543-4.326-7.723-12.375-11.57-8.05-3.846-15.56-4.906-16.775-2.362zm-91.927-3.025c-.039 1.396 2.896 2.781 7.76 3.664 4.854.886 11.64 1.21 19.063.515 7.423-.703 14.03-2.29 18.633-4.066 4.614-1.775 7.238-3.684 6.938-5.049-.303-1.387-3.438-1.981-8.218-2.052-4.785-.068-11.228.335-18.31 1.006-7.083.662-13.487 1.47-18.175 2.43-4.683.964-7.65 2.131-7.69 3.552zm-33.392-49.836c-.53 1.284 1.212 3.426 4.725 5.574 3.496 2.146 8.796 4.21 14.916 5.23 6.123 1.01 11.804.772 15.806-.13 4.018-.897 6.359-2.362 6.271-3.748-.085-1.424-2.51-2.517-6.208-3.467-3.71-.945-8.698-1.816-14.198-2.723-5.498-.92-10.5-1.707-14.316-2.011-3.806-.297-6.453-.045-6.996 1.275zM840.59-11.363c.087 1.444 3.894 2.413 9.78 3.494l10.244 1.85c3.821.737 7.991 1.571 12.343 2.569 4.345 1.027 8.454 2.12 12.208 3.145l10.008 2.865c5.758 1.63 9.602 2.44 10.319 1.182.681-1.186-1.975-4.271-7.322-7.747a51.653 51.653 0 0 0-4.494-2.614c-1.643-.9-3.465-1.712-5.393-2.557a84.45 84.45 0 0 0-13.013-4.214 84.538 84.538 0 0 0-13.535-1.967c-2.104-.091-4.097-.167-5.97-.086-1.866.03-3.604.177-5.185.362-6.333.758-10.077 2.353-9.99 3.718zm-26.627 201.382c.648 1.276 3.94.983 8.774-.107 4.841-1.098 11.264-2.917 18.36-4.864 7.099-1.935 13.554-3.636 18.28-5.152 4.716-1.521 7.7-2.945 7.609-4.373-.086-1.382-3.295-2.508-8.517-2.786-5.207-.286-12.415.38-20.064 2.466-7.647 2.096-14.19 5.19-18.528 8.085-4.354 2.896-6.544 5.498-5.914 6.731zm-77.94 2.074c-.638.296-.876 1.267-.686 2.883.047.403.122.848.223 1.328.117.47.313.944.515 1.47.429 1.027.9 2.262 1.72 3.405.386.594.805 1.211 1.257 1.85.46.63 1.027 1.195 1.586 1.822 1.098 1.29 2.5 2.39 3.98 3.575a34.98 34.98 0 0 0 10.995 5.272 34.982 34.982 0 0 0 12.16.948c1.874-.285 3.637-.533 5.235-1.1.798-.261 1.572-.467 2.285-.78a58.813 58.813 0 0 0 2.015-.971c1.282-.582 2.309-1.412 3.195-2.087.437-.352.844-.666 1.182-1.014.327-.365.615-.711.857-1.037.975-1.304 1.256-2.262.853-2.838-.404-.576-1.443-.735-2.857-.591-.354.037-.732.092-1.13.168l-1.326.144c-.937.1-1.907.36-3.053.408-.56.053-1.136.119-1.726.197-.593.07-1.234.043-1.87.086-1.266.131-2.646.014-4.06.02-2.85-.186-5.935-.595-9.111-1.41-3.157-.885-6.033-2.078-8.593-3.345-1.22-.714-2.472-1.303-3.502-2.051-.528-.357-1.096-.657-1.577-1.012-.47-.365-.935-.71-1.392-1.036-.967-.618-1.678-1.327-2.44-1.882l-1.074-.791a13.92 13.92 0 0 0-.893-.71c-1.152-.833-2.13-1.217-2.769-.92zm-10.553-50.28c-1.222.675-1.12 3.559.289 7.644 1.402 4.077 4.163 9.327 8.085 14.504 3.928 5.175 8.237 9.249 11.786 11.7 3.554 2.458 6.304 3.334 7.282 2.34.997-1.013.073-3.679-1.995-7.253-2.076-3.577-5.258-8.103-8.941-12.953-3.675-4.855-7.174-9.139-10.06-12.103-2.885-2.956-5.201-4.565-6.446-3.878zm116.998 3.907c-.518-1.286-4.794-.988-11.23.932-6.426 1.912-14.975 5.535-23.771 10.714-8.79 5.19-16.099 10.915-20.883 15.613-4.796 4.702-7.126 8.3-6.251 9.375.902 1.11 4.807-.475 10.538-3.57 5.736-3.104 13.352-7.651 21.78-12.627 8.433-4.965 16.1-9.428 21.592-12.944 5.483-3.517 8.76-6.166 8.225-7.493zm34.493-6.293c-.677.197-1.135.933-1.35 2.185a7.416 7.416 0 0 0-.06 2.216c.087.839.195 1.819.52 2.818.147.509.315 1.04.503 1.59.194.549.46 1.081.719 1.652.5 1.153 1.217 2.272 1.988 3.453a29.186 29.186 0 0 0 6.37 6.52 29.201 29.201 0 0 0 8.128 4.127c1.36.381 2.64.73 3.892.863.621.077 1.21.171 1.79.19.583.016 1.139.016 1.668.006 1.05.009 2.018-.18 2.845-.348a7.438 7.438 0 0 0 2.096-.72c1.13-.582 1.695-1.238 1.682-1.943-.045-1.457-2.272-2.58-5.282-4.08-.377-.195-.77-.387-1.177-.573-.406-.192-.814-.441-1.24-.653-.863-.4-1.732-.94-2.661-1.423-1.821-1.068-3.756-2.269-5.7-3.67-1.92-1.437-3.645-2.923-5.21-4.342-.737-.742-1.514-1.41-2.155-2.112-.328-.343-.689-.658-.993-.988-.3-.332-.601-.65-.9-.951-2.332-2.423-4.069-4.211-5.473-3.817zm34.603-12.446c-.262 1.365 2.08 3.158 6.278 4.634 4.181 1.477 10.23 2.544 16.946 2.448 6.715-.104 12.73-1.35 16.866-2.95 4.151-1.598 6.44-3.462 6.137-4.817-.312-1.393-3.095-2.04-7.261-2.31-4.177-.266-9.753-.224-15.894-.126-6.14.085-11.715.207-15.882.597-4.157.393-6.92 1.122-7.19 2.524zm-64.387-33.175c-.171 1.438 2.24 2.934 5.831 4.823.9.477 1.882.96 2.912 1.522 1.046.508 2.123 1.13 3.272 1.717 2.267 1.249 4.714 2.627 7.224 4.18 2.493 1.58 4.801 3.18 6.915 4.675 1.028.778 2.059 1.475 2.973 2.194.954.681 1.818 1.353 2.64 1.955 3.268 2.406 5.665 3.923 6.885 3.14 1.151-.729.843-3.765-1.41-7.84a25.9 25.9 0 0 0-2.064-3.171c-.789-1.115-1.76-2.193-2.797-3.325a42.3 42.3 0 0 0-7.725-6.276 42.253 42.253 0 0 0-9.02-4.21c-1.47-.44-2.864-.843-4.213-1.066a25.762 25.762 0 0 0-3.752-.473c-4.65-.248-7.517.8-7.67 2.155zm-3.54-42.514c-.894 1.057.231 3.744 3.186 6.996 1.47 1.628 3.415 3.352 5.737 5.05a51.695 51.695 0 0 0 8.06 4.727 51.673 51.673 0 0 0 8.793 3.154c2.793.694 5.364 1.08 7.556 1.163 4.389.184 7.174-.678 7.411-2.04.249-1.411-2.006-3.059-5.584-4.94-3.592-1.882-8.492-4.083-13.854-6.582-5.357-2.512-10.188-4.86-13.934-6.41-3.738-1.538-6.449-2.214-7.371-1.118zm-48.537-37c.512 2.8 13.259 2.784 28.647 1.426 15.384-1.397 27.93-3.647 27.937-6.493.017-2.79-12.938-5.113-28.848-3.672-15.913 1.41-28.25 5.998-27.736 8.738zm-1.424 34.572c-1.214.615-1.138 3.794.852 8.248a27.536 27.536 0 0 0 1.87 3.497c.722 1.237 1.637 2.453 2.616 3.73a44.77 44.77 0 0 0 7.476 7.287 44.792 44.792 0 0 0 9.014 5.267c1.492.603 2.907 1.16 4.292 1.527 1.361.42 2.67.683 3.869.871 4.824.733 7.908-.04 8.177-1.374.295-1.421-2.113-3.143-5.731-5.415-.907-.572-1.898-1.161-2.932-1.838-1.057-.624-2.136-1.373-3.292-2.09-2.275-1.516-4.724-3.194-7.216-5.069-2.47-1.904-4.74-3.816-6.805-5.605-1-.923-2.01-1.764-2.892-2.617-.929-.816-1.76-1.616-2.553-2.335-3.154-2.884-5.454-4.747-6.745-4.084zm-40.82-66.097c.322 2.832 10.588 3.96 22.986 4.094 12.397.087 22.683-.86 23.055-3.684.163-1.39-2.268-2.98-6.422-4.258-4.146-1.28-10.021-2.203-16.542-2.263-6.521-.056-12.412.763-16.58 1.967-4.177 1.204-6.636 2.752-6.497 4.144zM648.803 21.464c1.097.963 5.261-2.012 11.614-6.827.793-.603 1.622-1.235 2.484-1.894l2.712-2.014c1.839-1.422 3.876-2.847 5.968-4.397 4.25-3.02 8.95-6.26 14.006-9.481 5.078-3.187 10.02-6.045 14.57-8.59 2.298-1.225 4.457-2.456 6.533-3.508l2.98-1.585 2.776-1.433c7.073-3.676 11.548-6.164 11.147-7.567-.365-1.306-5.628-1.26-13.727.827-1.007.28-2.06.573-3.159.876-1.094.319-2.207.719-3.37 1.113-2.338.764-4.76 1.769-7.313 2.832a122.288 122.288 0 0 0-15.89 8.41 122.543 122.543 0 0 0-14.41 10.75c-2.055 1.851-4 3.61-5.694 5.394-.854.883-1.692 1.717-2.45 2.569l-2.146 2.478c-5.356 6.422-7.654 11.158-6.631 12.047zm104.415-6.424c-.256-1.362-4.736-1.864-11.79-1.148-3.523.35-7.675 1.047-12.23 2.076a140.651 140.651 0 0 0-14.578 4.233 140.2 140.2 0 0 0-14.02 5.821c-4.198 2.046-7.871 4.102-10.84 6.032-5.95 3.855-9.13 7.051-8.48 8.274.675 1.263 5.014.345 11.57-1.753 6.563-2.104 15.385-5.305 25.154-8.746 9.773-3.429 18.658-6.453 25.093-8.916 6.428-2.467 10.388-4.466 10.121-5.873zm31.406 13.112c-.926 2.661 7.559 8.032 18.951 11.994 11.392 3.964 21.378 5.019 22.303 2.358.926-2.661-7.559-8.033-18.951-11.995-11.391-3.964-21.378-5.02-22.303-2.357zm.446 70.34c-1.232.567-1.122 4.095 1.006 9.144.272.624.568 1.274.888 1.95.323.673.717 1.334 1.111 2.035.768 1.414 1.75 2.817 2.794 4.296a53.604 53.604 0 0 0 8.03 8.572 53.544 53.544 0 0 0 9.772 6.521c1.627.79 3.172 1.529 4.692 2.057.756.272 1.474.552 2.19.761.719.206 1.409.392 2.07.559 5.327 1.274 8.827.806 9.184-.502.394-1.402-2.268-3.378-6.317-6.12a61.078 61.078 0 0 0-1.589-1.064c-.554-.362-1.106-.78-1.692-1.173-1.184-.768-2.388-1.68-3.681-2.568-2.54-1.863-5.27-3.939-8.03-6.253-2.734-2.345-5.226-4.698-7.48-6.9-1.088-1.13-2.184-2.168-3.135-3.21-.483-.517-.986-.993-1.433-1.478a58.795 58.795 0 0 0-1.31-1.395c-3.368-3.546-5.752-5.85-7.07-5.232zm-24.132 4.933c-1.347-.31-3.247 2.01-4.8 6.279-.784 2.129-1.43 4.74-1.871 7.686a53.797 53.797 0 0 0-.468 9.662 53.574 53.574 0 0 0 1.325 9.583c.701 2.895 1.576 5.439 2.544 7.49 1.928 4.115 4.026 6.257 5.34 5.827 1.364-.442 1.728-3.292 1.686-7.474-.03-2.095-.12-4.539-.269-7.214l-.43-8.666-.34-8.667a185.25 185.25 0 0 0-.373-7.21c-.33-4.169-.947-6.976-2.344-7.296zM744.33 71.342c-.458 2.781 6.683 6.274 15.95 7.8 9.268 1.529 17.152.512 17.61-2.268.458-2.78-6.682-6.272-15.95-7.801-9.267-1.526-17.152-.512-17.61 2.27zm42.977 59.521c-1.146-.77-3.036-.354-4.903 1.473-.933.9-1.804 2.155-2.512 3.673a16.771 16.771 0 0 0-1.374 5.23 16.741 16.741 0 0 0 .405 5.394c.423 1.622 1.052 3.013 1.807 4.07 1.506 2.132 3.288 2.882 4.556 2.333 1.312-.565 1.977-2.173 2.44-4.097.453-1.948.736-4.251.955-6.771.24-2.52.379-4.835.287-6.833-.108-1.977-.472-3.68-1.661-4.472zm-59.87-45.285c-.547-.444-1.413-.405-2.56.12a7.554 7.554 0 0 0-1.85 1.188c-.64.537-1.38 1.171-2.025 1.988-.336.402-.68.833-1.03 1.291-.344.46-.638.972-.964 1.498-.675 1.044-1.208 2.244-1.765 3.525a29.798 29.798 0 0 0-1.971 8.801 29.82 29.82 0 0 0 .871 8.978c.395 1.34.776 2.596 1.317 3.717.26.562.488 1.105.773 1.604.29.499.578.968.862 1.408.54.89 1.194 1.612 1.764 2.223a7.54 7.54 0 0 0 1.69 1.406c1.075.663 1.928.809 2.526.436 1.228-.781 1.063-3.265.769-6.621a28.847 28.847 0 0 0-.129-1.306c-.049-.447-.053-.925-.098-1.401-.111-.947-.116-1.973-.2-3.019-.065-2.114-.087-4.396.042-6.795.167-2.394.47-4.658.797-6.746.211-1.029.341-2.046.57-2.971.103-.468.166-.941.27-1.378.109-.436.203-.864.287-1.28.706-3.296 1.176-5.74.054-6.666zM662.326 117.1c-.49 1.336 1.412 3.362 4.686 5.75 3.285 2.388 7.922 5.186 13.122 8.106 5.195 2.928 9.995 5.437 13.741 7.004 3.74 1.56 6.46 2.132 7.347 1.018.87-1.088-.297-3.691-3.134-6.877-2.826-3.18-7.363-6.892-12.952-10.04-5.592-3.14-11.118-5.09-15.305-5.854-4.195-.77-7.026-.416-7.505.893zm-.838-35.62c.169 2.803 9.954 4.496 21.812 3.285 11.859-1.2 21.103-4.824 20.705-7.603-.399-2.8-10.107-3.726-21.736-2.55-11.63 1.188-20.951 4.045-20.78 6.868zm69.784-32.102c.39 2.79 5.229 4.42 10.806 3.638 5.579-.78 9.783-3.677 9.392-6.468-.391-2.79-5.23-4.42-10.807-3.639-5.577.782-9.783 3.677-9.391 6.469zM585.907 107.73c.45 1.36 4.07 1.456 9.543.967 2.738-.254 5.955-.612 9.497-1.055l11.49-1.385 11.505-1.284c3.547-.38 6.761-.77 9.485-1.15 5.44-.776 8.942-1.7 9.068-3.126.123-1.378-3.218-3.008-8.886-4.088-2.83-.545-6.236-.906-10.028-1.032a88.727 88.727 0 0 0-12.32.542 88.718 88.718 0 0 0-12.116 2.294c-3.663.993-6.895 2.122-9.524 3.303-5.271 2.348-8.15 4.701-7.714 6.014zm22.063-39.55c.188 1.378 3.384 2.267 8.461 2.26 5.066.001 12-.97 19.343-3.206 7.342-2.246 13.635-5.311 17.838-8.14 4.214-2.83 6.37-5.352 5.757-6.6-.629-1.282-3.866-1.076-8.614-.028-4.754 1.056-11.05 2.892-17.96 5.007-6.914 2.105-13.161 4.096-17.695 5.876-4.524 1.782-7.325 3.418-7.13 4.831zm36.143-73.028c-.926-1.049-3.53-.475-6.936 1.466-3.402 1.936-7.581 5.27-11.53 9.59-3.948 4.322-6.893 8.785-8.516 12.347-1.626 3.568-1.964 6.21-.836 7.039 2.317 1.653 9.401-4.344 16.884-12.503 7.453-8.186 12.789-15.78 10.934-17.939zm-51.81-.102c-.492-1.267-3.498-1.57-7.87-.109a24.107 24.107 0 0 0-3.448 1.45c-1.226.575-2.44 1.341-3.716 2.165a39.55 39.55 0 0 0-7.358 6.551 39.497 39.497 0 0 0-5.424 8.223c-.631 1.381-1.216 2.693-1.608 3.988a24.219 24.219 0 0 0-.941 3.622c-.818 4.536-.085 7.468 1.24 7.773 1.411.334 3.155-1.837 5.447-5.06.578-.808 1.171-1.693 1.851-2.61.63-.94 1.38-1.892 2.099-2.917 1.517-2.008 3.19-4.162 5.054-6.342 1.888-2.157 3.78-4.123 5.549-5.913.911-.86 1.744-1.738 2.585-2.496.81-.804 1.6-1.519 2.317-2.207 2.86-2.731 4.758-4.77 4.224-6.118zm1.505-25.246c-.267 2.806 8.883 5.97 20.434 7.068 11.552 1.097 21.134-.287 21.4-3.093.266-2.805-8.881-5.97-20.434-7.067-11.553-1.097-21.134.288-21.4 3.092zm-27.801 127.77c-.65-1.273-4.211-.839-9.488.494-5.284 1.34-12.325 3.5-20.105 5.833-7.783 2.32-14.854 4.377-20.006 6.157-5.144 1.783-8.358 3.373-8.203 4.795.148 1.378 3.698 2.322 9.386 2.323 5.675.008 13.474-1.03 21.746-3.497 8.27-2.478 15.358-5.89 20.1-9.01 4.753-3.122 7.201-5.86 6.57-7.094zm-11.393-39.51c-1.065.905-.746 3.288.876 6.35 1.612 3.057 4.573 6.75 8.544 10.047 3.973 3.292 8.15 5.52 11.451 6.539 3.31 1.029 5.712.9 6.404-.311.706-1.235-.382-3.298-2.493-5.753-2.121-2.46-5.247-5.349-8.848-8.33-3.595-2.988-7.013-5.524-9.82-7.156-2.804-1.621-5.032-2.308-6.114-1.386zm48.408-35.034c-.995-.99-3.4-.4-6.444 1.484-3.04 1.878-6.696 5.068-10.088 9.152-3.39 4.086-5.855 8.267-7.142 11.6-1.292 3.338-1.43 5.811-.274 6.607 2.358 1.581 8.815-3.943 15.267-11.688 6.426-7.764 10.669-15.128 8.681-17.155zm-109.415-3.05c-.728 2.706 7.652 7.314 18.888 9.534 11.232 2.237 20.737 1.177 21.097-1.603.367-2.81-8.248-6.243-19.112-8.407-10.868-2.146-20.14-2.261-20.873.475zm339.686 81.178c-1.273.565-1.72 2.783-1.09 5.933.62 3.139 2.385 7.174 5.286 10.974 2.906 3.796 6.334 6.56 9.2 7.982 2.874 1.436 5.132 1.586 6.012.508.9-1.104.318-3.189-1.057-5.754-1.387-2.569-3.536-5.656-6.046-8.932-2.503-3.284-4.918-6.168-7.033-8.181-2.112-2-3.971-3.109-5.272-2.53zM533.712-30.37c.057 1.425 2.368 2.574 5.906 3.588 3.548 1.012 8.326 1.952 13.601 2.896 5.273.956 10.079 1.743 13.757 2.034 3.669.283 6.236.012 6.786-1.304.539-1.28-1.104-3.396-4.453-5.526-3.335-2.126-8.406-4.185-14.28-5.247-5.877-1.054-11.347-.896-15.215-.065-3.882.825-6.16 2.235-6.102 3.624zm-81.384 1.593c.673 1.274 4.087.836 9.123-.288a826.62 826.62 0 0 0 8.71-2.049c3.254-.745 6.807-1.554 10.554-2.322 3.754-.741 7.343-1.37 10.632-1.941a824.714 824.714 0 0 0 8.825-1.48c5.078-.912 8.396-1.827 8.523-3.264.127-1.368-3.053-3.012-8.522-3.953-2.728-.48-6.014-.719-9.668-.667a69.34 69.34 0 0 0-11.802 1.302 69.503 69.503 0 0 0-11.388 3.364c-3.39 1.367-6.327 2.858-8.658 4.356-4.68 2.983-6.975 5.73-6.329 6.942zm-23.14 9.903c-.567.415-.561 1.488.003 3.148.141.415.317.866.528 1.35.223.474.518.947.831 1.466.646 1.018 1.376 2.225 2.414 3.335.501.575 1.039 1.17 1.611 1.787.577.607 1.251 1.15 1.925 1.752 1.333 1.235 2.938 2.293 4.635 3.426a44.465 44.465 0 0 0 12.17 5.099 44.49 44.49 0 0 0 13.151 1.09c2.028-.223 3.942-.422 5.693-.904.877-.222 1.723-.393 2.517-.666a79.124 79.124 0 0 0 2.254-.84c1.431-.507 2.636-1.24 3.68-1.848.517-.315.996-.6 1.413-.915a17.58 17.58 0 0 0 1.09-.956c1.268-1.213 1.767-2.16 1.456-2.793-.312-.63-1.395-.895-2.986-.873-.4.008-.83.032-1.29.075l-1.51.057c-1.072.043-2.223.232-3.536.235-.649.026-1.32.065-2.012.116-.693.043-1.429-.002-2.172.018-1.483.076-3.075-.068-4.726-.109-3.309-.256-6.895-.729-10.598-1.6-3.688-.935-7.089-2.17-10.143-3.47-1.483-.724-2.961-1.331-4.243-2.082-.65-.36-1.323-.66-1.918-1.017-.59-.364-1.169-.71-1.731-1.033-1.164-.606-2.099-1.307-3.03-1.838l-1.314-.748c-.389-.25-.76-.47-1.11-.66-1.402-.754-2.483-1.018-3.052-.602zm19.152-22.529c-1.062-2.61-8.33-2.119-16.232 1.097-7.903 3.217-13.448 7.94-12.386 10.55 1.063 2.61 8.33 2.119 16.233-1.097 7.9-3.216 13.447-7.939 12.385-10.55zm57.678 27.416c-1.322 2.49 6.366 9.16 17.17 14.903 10.805 5.743 20.637 8.38 21.959 5.893 1.323-2.49-6.365-9.162-17.17-14.905-10.805-5.74-20.637-8.379-21.959-5.89zM692.315 9.635c.626 1.281 3.477 1.272 7.581.526 4.112-.752 9.506-2.187 15.408-3.895 5.906-1.701 11.234-3.364 15.113-4.919 3.87-1.557 6.287-3.068 6.135-4.485-.148-1.383-2.892-2.408-7.29-2.638-4.385-.235-10.414.4-16.79 2.236-6.37 1.844-11.81 4.522-15.395 7.06-3.598 2.537-5.374 4.866-4.762 6.115zm-259.97 100.262c-.634.303-.856 1.292-.646 2.928a16 16 0 0 0 .239 1.345c.123.476.32.958.524 1.488.433 1.044.913 2.289 1.727 3.46.385.604.802 1.235 1.252 1.887.457.643 1.019 1.227 1.574 1.872 1.088 1.322 2.477 2.477 3.943 3.717a37.07 37.07 0 0 0 10.95 5.759 37.102 37.102 0 0 0 12.266 1.619c1.913-.167 3.713-.307 5.365-.76.825-.205 1.623-.358 2.366-.62a63.634 63.634 0 0 0 2.112-.817c1.34-.488 2.45-1.227 3.406-1.828.474-.318.914-.596 1.289-.914.367-.335.691-.657.97-.959 1.116-1.216 1.506-2.15 1.163-2.764-.345-.615-1.378-.865-2.835-.84-.365.007-.757.031-1.172.074-.427.012-.884.028-1.372.043-.972.03-1.997.21-3.179.182-.582.013-1.182.038-1.798.077-.619.027-1.278-.039-1.939-.039-1.321.044-2.739-.153-4.202-.237-2.937-.36-6.106-.949-9.35-1.943-3.221-1.06-6.149-2.41-8.755-3.81-1.243-.776-2.515-1.433-3.57-2.231-.538-.384-1.114-.71-1.603-1.089a47.127 47.127 0 0 0-1.425-1.102c-.98-.659-1.715-1.398-2.49-1.982l-1.095-.828c-.316-.274-.622-.52-.915-.736-1.176-.862-2.164-1.256-2.8-.952zm-18.707-26.145c.017 1.454 2.885 2.594 7.04 4.195 4.174 1.585 9.658 3.838 15.22 7.165a79.475 79.475 0 0 1 7.572 5.143c2.234 1.741 4.184 3.429 5.88 4.879.426.355.942.874 1.554 1.348.607.482 1.426.995 2.114 1.193.708.233 1.428.291 2.03.173a3.1 3.1 0 0 0 1.45-.733c.739-.667.953-1.524.779-2.197-.173-.68-.393-1.278-.339-1.796-.005-.153.16-.19.226-.098.074.092-.071.284-.346.314a.814.814 0 0 1-.47-.092c-.171-.092-.335-.277-.45-.486-.147-.237-.11-.381-.224-.68-.115-.308-.257-.707-.558-1.286-1.183-2.305-2.92-4.9-5.258-7.44-2.348-2.52-5.304-4.96-8.724-7.003-6.857-4.11-14.13-5.664-19.285-5.525-5.206.115-8.24 1.573-8.211 2.926zm103.474.717c-.687-1.255-3.713-.983-8.093-.004-4.385.995-10.159 2.65-16.548 4.355-3.202.846-6.25 1.651-9.036 2.385-1.452.39-2.574.713-3.697.96-1.104.25-2.104.43-2.985.546-1.78.239-3.031.21-4.119.086-1.077-.117-1.982-.353-2.593.037-.564.346-.827 1.421.016 2.987.416.782 1.149 1.582 2.139 2.32.993.727 2.233 1.305 3.607 1.722 1.374.416 2.877.66 4.445.748 1.551.102 3.264.003 4.774-.137a59.496 59.496 0 0 0 10.087-1.795c7.043-1.878 13.017-4.849 16.901-7.647 3.908-2.797 5.768-5.349 5.102-6.563zm-22.017-34.27c-1.572 2.338 7.377 11.113 19.99 19.597 12.613 8.485 24.112 13.469 25.687 11.13 1.572-2.338-7.378-11.112-19.991-19.596-12.613-8.486-24.113-13.469-25.686-11.13zM468.12 26.675c-.629-.317-1.514.027-2.62 1.025-.275.249-.565.539-.865.867-.285.335-.544.722-.828 1.144-.546.847-1.2 1.835-1.654 3.02-.248.586-.497 1.21-.746 1.867-.24.66-.393 1.362-.589 2.092-.42 1.46-.592 3.056-.778 4.75a34.556 34.556 0 0 0 1.047 10.956 34.568 34.568 0 0 0 4.6 9.999c1.012 1.37 1.964 2.663 3.06 3.715.536.534 1.022 1.064 1.56 1.512.547.444 1.075.858 1.585 1.24.986.796 2.048 1.323 2.947 1.781.458.22.874.428 1.29.573.426.133.821.238 1.185.314 1.456.307 2.395.16 2.779-.431.794-1.247-.867-3.669-2.965-7.201-.256-.451-.53-.911-.821-1.377-.286-.47-.523-1.008-.813-1.519-.603-1.006-1.089-2.177-1.677-3.333-1.05-2.398-2.07-5.048-2.877-7.928-.75-2.896-1.201-5.7-1.497-8.3-.073-1.296-.24-2.551-.224-3.724-.008-.588-.072-1.171-.063-1.723.019-.55.025-1.083.02-1.603.037-4.108.258-7.036-1.056-7.716zM406.8 45.242c-1.08 2.602 6.865 8.377 17.75 12.898 10.884 4.522 20.583 6.078 21.665 3.476 1.08-2.602-6.866-8.378-17.751-12.899-10.883-4.522-20.583-6.077-21.664-3.475zm10.422-51.706c-1.24.642-1.31 3.334-.166 7.148 1.137 3.808 3.544 8.706 7.084 13.513 3.544 4.802 7.51 8.551 10.811 10.764 3.304 2.221 5.898 2.95 6.877 1.957 1-1.012.238-3.522-1.565-6.84-1.808-3.324-4.623-7.489-7.908-11.937-3.278-4.454-6.425-8.375-9.062-11.086-2.636-2.703-4.81-4.175-6.071-3.519zm940.847 238.788c-1.171-2.563-10.043-1.022-19.816 3.443-9.774 4.464-16.748 10.162-15.577 12.725 1.172 2.563 10.044 1.023 19.817-3.443 9.774-4.465 16.748-10.163 15.576-12.725zm-223.115-184.45c-.948 1.022-.922 2.83.229 4.861 1.132 2.02 3.439 4.193 6.52 5.584 3.084 1.389 6.24 1.677 8.504 1.187 2.284-.482 3.655-1.661 3.795-3.048.144-1.414-.862-2.776-2.347-4.02-1.502-1.244-3.486-2.405-5.758-3.422-2.267-1.028-4.45-1.746-6.376-2.05-1.916-.287-3.604-.137-4.567.908zM965.549-15.138c-.699 1.209.273 3.274 2.626 5.503 2.339 2.226 6.085 4.564 10.609 6.185 4.525 1.615 8.904 2.182 12.125 1.946 3.231-.232 5.293-1.212 5.52-2.59.231-1.401-1.359-2.933-3.953-4.454-2.603-1.519-6.205-3.066-10.256-4.511-4.047-1.452-7.814-2.54-10.792-3.016-2.968-.47-5.168-.294-5.879.937zm99.331 200.323c-1.037.97-.77 3.089.24 5.762 1.02 2.68 2.749 5.95 4.856 9.412 2.1 3.468 4.201 6.51 6.11 8.652 1.905 2.13 3.66 3.344 5 2.872 1.316-.462 1.952-2.588 1.639-5.7-.306-3.099-1.623-7.155-4.026-11.119-2.406-3.96-5.398-7-8.006-8.702-2.615-1.715-4.795-2.132-5.813-1.177zM676.498 25.379c-1.548-2.355-6.62-1.756-11.328 1.337-4.707 3.094-7.27 7.511-5.722 9.865 1.548 2.356 6.618 1.756 11.327-1.337 4.708-3.093 7.27-7.51 5.723-9.865zm4.282 33.08c-.225 2.808 7.957 5.756 18.275 6.582 10.317.827 18.865-.779 19.09-3.589.224-2.809-7.958-5.756-18.276-6.583-10.317-.826-18.864.782-19.089 3.59z" fill-rule="nonzero"/><path d="M-39.27-15.471C4.017 9.125 54.337 56.44 173.92 39.21c119.583-17.23 186.66-11.265 204.139 28.18 17.48 39.447 59.688 80.095 146.066 54.34 86.378-25.755 117.55-50.27 156.855-5.477 39.306 44.793 75.717 85.146 142.772 56.93 67.055-28.215 167.227 8.246 180.015 57.687 12.788 49.441 233.13 331.507 497.83 65.398 176.466-177.406 169.239-303.41-21.683-378.016C438.264-53.96-68.13-31.869-39.271-15.47z"/></g></g></svg>
