<svg xmlns="http://www.w3.org/2000/svg" xmlns:xlink="http://www.w3.org/1999/xlink" width="1440" height="187"><defs><path id="a" d="M0 0h1440v200H0z"/></defs><g fill="none" fill-rule="evenodd" transform="matrix(-1 0 0 1 1440 0)"><mask id="b" fill="#fff"><use xlink:href="#a"/></mask><g fill="#FF7264" mask="url(#b)"><path fill-rule="nonzero" d="M-132.16 113.213c1.065-.974 3.294-.342 6.187.793 1.442.584 3.098 1.258 4.88 2.004 1.804.714 3.746 1.485 5.813 2.228 2.076.718 4.071 1.336 5.924 1.91 1.857.538 3.569 1.052 5.06 1.503 2.964.93 5.096 1.836 5.313 3.261.213 1.351-1.701 3.03-5.352 3.955-1.814.471-4.036.68-6.5.568a29.438 29.438 0 0 1-7.84-1.572 29.42 29.42 0 0 1-7.091-3.694c-1.988-1.46-3.588-3.015-4.707-4.52-2.261-3.011-2.7-5.518-1.686-6.436zM-35.6 96.864c2.177 1.79-3.168 11.887-11.936 22.551-8.768 10.665-17.642 17.86-19.818 16.07-2.178-1.79 3.167-11.886 11.935-22.551 8.769-10.665 17.641-17.86 19.819-16.07zM-12.586 75.6c.029 1.461-3.002 2.693-7.477 4.412-.56.223-1.144.445-1.751.664-.608.224-1.225.51-1.868.758-1.298.474-2.636 1.103-4.056 1.684-2.808 1.266-5.828 2.716-8.905 4.429-3.057 1.748-5.862 3.58-8.399 5.329-1.231.915-2.462 1.735-3.538 2.598-.547.424-1.11.804-1.616 1.208-.502.406-.994.791-1.474 1.155-3.786 2.94-6.41 4.897-7.644 4.115-.593-.38-.713-1.39-.383-2.944.158-.783.442-1.691.896-2.673.444-.987.961-2.126 1.706-3.257.361-.577.749-1.175 1.165-1.794.42-.616.914-1.205 1.41-1.837.976-1.28 2.175-2.499 3.447-3.784a48.794 48.794 0 0 1 9.416-7.006 48.994 48.994 0 0 1 10.866-4.433c1.76-.424 3.424-.818 5.024-.993.796-.096 1.556-.214 2.3-.255a64.92 64.92 0 0 1 2.139-.068c1.354-.052 2.596.095 3.67.225 1.075.118 1.998.346 2.75.616 1.502.522 2.303 1.147 2.322 1.851zm-124.057 7.558c1.264-.754 3.856 1.336 7.686 4.326.487.37.986.761 1.493 1.173.512.41 1.092.786 1.648 1.211 1.096.87 2.363 1.675 3.627 2.58 2.611 1.71 5.516 3.472 8.696 5.095 3.202 1.578 6.352 2.852 9.286 3.923 1.48.472 2.882 1.007 4.234 1.364.674.193 1.322.431 1.957.598.633.16 1.246.324 1.833.494 4.688 1.281 7.913 2.11 8.062 3.573.068.7-.67 1.416-2.146 2.11a16.23 16.23 0 0 1-1.24.514c-.46.156-.961.275-1.505.405-1.087.24-2.347.525-3.742.592-.698.053-1.434.096-2.203.13-.77.027-1.56-.033-2.388-.065-1.663-.037-3.406-.32-5.25-.62a46.428 46.428 0 0 1-11.473-3.895 46.479 46.479 0 0 1-9.984-6.866c-1.344-1.3-2.611-2.527-3.636-3.838-.52-.644-1.041-1.242-1.479-1.875a67.752 67.752 0 0 1-1.215-1.844c-.78-1.157-1.304-2.338-1.762-3.353-.221-.514-.427-.986-.576-1.448a15.754 15.754 0 0 1-.33-1.302c-.325-1.597-.195-2.617.407-2.982zm-8.92 45.996c-1.063 2.61-10.71 1.147-21.548-3.268-10.838-4.415-18.762-10.11-17.7-12.72 1.065-2.608 10.712-1.146 21.55 3.27 10.837 4.414 18.762 10.108 17.699 12.718zm100.534 31.325c.171 1.367-3.081 3.118-8.69 4.32-2.8.607-6.179 1.021-9.951 1.187-3.77.133-7.931-.003-12.26-.52a80.114 80.114 0 0 1-12.022-2.45c-3.622-1.066-6.803-2.282-9.374-3.546-5.154-2.516-7.89-5-7.394-6.285.512-1.343 4.09-1.278 9.457-.629 2.685.334 5.838.768 9.306 1.273 3.476.475 7.273 1.007 11.265 1.506 3.996.478 7.809.875 11.297 1.25 3.488.344 6.652.683 9.34 1.005 5.365.663 8.852 1.462 9.026 2.889zm51.19-61.565c2.104 1.874-3.818 11.957-13.227 22.518-9.41 10.562-18.744 17.603-20.848 15.73-2.105-1.875 3.818-11.956 13.228-22.519 9.41-10.56 18.743-17.604 20.847-15.73zm-107.486-49.604c1.09-.877 3.574.145 6.623 2.671 3.046 2.52 6.623 6.567 9.793 11.563 3.167 4.998 5.302 9.96 6.28 13.79.984 3.834.85 6.517-.408 7.129-1.275.62-3.42-.911-5.966-3.749-2.548-2.842-5.528-6.972-8.526-11.706-3.002-4.73-5.466-9.187-6.95-12.704-1.48-3.511-1.952-6.106-.846-6.994zm-56.644-21.233c1.207-.766 4.282 1.777 8.515 6.224 4.234 4.451 9.694 10.764 15.725 17.718 6.04 6.948 11.523 13.24 15.34 18.056 3.806 4.814 5.894 8.215 4.967 9.302-.9 1.058-4.68-.43-9.897-4.031-5.212-3.593-11.798-9.37-18.116-16.635-6.308-7.274-11.103-14.605-13.929-20.27-2.835-5.671-3.778-9.622-2.605-10.364zm-11.575 29.604c1.428-.154 2.897 2.085 4.565 5.515.824 1.72 1.749 3.74 2.725 5.96l3.246 7.135 3.418 7.054c1.086 2.17 2.05 4.17 2.848 5.904 1.575 3.473 2.358 6.034 1.328 7.034-.985.963-3.686.115-6.995-2.565-1.656-1.331-3.41-3.144-5.127-5.344a43.689 43.689 0 0 1-4.709-7.744 43.65 43.65 0 0 1-2.952-8.568c-.598-2.728-.872-5.234-.84-7.358.05-4.26 1.122-6.88 2.493-7.023zm-15.419-14.767c1.409.22 2.244 2.95 2.76 7.097.512 4.158.768 9.743.938 15.898.18 6.153.24 11.743-.034 15.924-.28 4.171-.958 6.945-2.352 7.242-1.36.292-3.194-2.006-4.778-6.134-1.586-4.116-2.844-10.078-3.037-16.743-.186-6.665.732-12.688 2.082-16.887 1.347-4.213 3.047-6.611 4.421-6.397zm44.854-53.546c.643 1.284-1.352 3.652-4.713 6.755a240.206 240.206 0 0 1-5.937 5.237l-7.196 6.263c-2.516 2.259-4.911 4.41-7.099 6.372a237.959 237.959 0 0 1-5.928 5.25c-3.493 2.954-6.088 4.642-7.282 3.847-1.15-.763-.642-3.941 1.617-8.316 1.12-2.189 2.712-4.635 4.705-7.18a61.766 61.766 0 0 1 7.228-7.619 61.832 61.832 0 0 1 8.45-6.24c2.77-1.666 5.395-2.943 7.704-3.786 4.619-1.703 7.835-1.819 8.451-.583zm27.095-16.775c1.362.17 2.393 2.803 2.295 7.062-.04 2.124-.42 4.62-1.15 7.319a40.78 40.78 0 0 1-3.45 8.393 40.725 40.725 0 0 1-5.282 7.379c-1.898 2.052-3.812 3.7-5.591 4.86-3.558 2.345-6.337 2.869-7.203 1.803-.912-1.113.137-3.548 2-6.803.944-1.624 2.058-3.5 3.294-5.533 1.209-2.054 2.527-4.28 3.853-6.648 1.305-2.384 2.491-4.681 3.59-6.797a323.631 323.631 0 0 1 2.939-5.728c1.772-3.307 3.276-5.489 4.705-5.307zM-157.19-71.6c.86-1.075 3.679-.534 7.332 1.792 1.827 1.152 3.81 2.781 5.798 4.809a44.173 44.173 0 0 1 5.644 7.293 44.2 44.2 0 0 1 3.946 8.335c.907 2.691 1.461 5.197 1.661 7.348.418 4.31-.375 7.07-1.723 7.35-1.406.298-3.102-1.819-5.137-5.112a244.445 244.445 0 0 1-3.38-5.734c-1.254-2.128-2.604-4.444-4.066-6.85-1.482-2.394-2.935-4.645-4.263-6.725a248.961 248.961 0 0 1-3.582-5.611c-2.015-3.307-3.133-5.777-2.23-6.895zm-19.654-1.2c1.394.37 1.89 3.21 2.219 7.356l.492 7.151c.212 2.65.45 5.533.79 8.551.37 3.015.805 5.872 1.214 8.501l1.18 7.07c.643 4.11.82 6.985-.452 7.67-1.203.655-3.703-1.112-6.259-5.02-1.284-1.943-2.509-4.43-3.559-7.316a46.488 46.488 0 0 1-2.258-9.713 46.55 46.55 0 0 1-.057-9.973c.352-3.05.966-5.753 1.764-7.942 1.58-4.394 3.602-6.692 4.926-6.336zm85.468-29.698c.768 2.71-9.098 7.882-22.037 11.55-12.94 3.668-24.051 4.444-24.82 1.732-.769-2.711 9.097-7.883 22.037-11.55 12.939-3.669 24.05-4.443 24.82-1.732zm-58.387-53.309c1.31-.358 3.541 2.609 5.275 8.128.425 1.376.84 2.904 1.136 4.57.36 1.662.559 3.46.758 5.36.307 3.8.28 8.024-.26 12.406a61.536 61.536 0 0 1-2.85 12.076c-.67 1.79-1.312 3.48-2.073 4.998a37.899 37.899 0 0 1-2.245 4.142c-3.058 4.91-5.96 7.225-7.14 6.552-1.266-.715-.669-4.184.474-9.313.28-1.287.619-2.672.92-4.17.36-1.478.643-3.079 1.006-4.733.636-3.337 1.277-6.983 1.784-10.838.473-3.86.766-7.552.983-10.942.062-1.692.189-3.312.21-4.833.084-1.526.102-2.951.151-4.267.177-5.253.466-8.762 1.87-9.136zm-21.991-22.912c1.422.141 2.292 3.833 2.91 9.6.615 5.773 1.057 13.63 1.546 22.299.5 8.666.957 16.522 1.005 22.329.043 5.799-.402 9.565-1.798 9.868-1.356.298-3.419-2.974-5.319-8.676-1.902-5.691-3.55-13.832-4.077-22.94-.515-9.108.196-17.383 1.437-23.255 1.239-5.882 2.914-9.365 4.296-9.225zm54.32.834c-.029 1.398-2.003 2.654-5.264 3.367-3.252.715-7.787.84-12.667.019-4.88-.825-9.124-2.432-11.962-4.175-2.846-1.744-4.299-3.577-3.868-4.908.437-1.35 2.632-1.961 5.779-2.05 3.155-.086 7.272.313 11.748 1.07 4.477.752 8.498 1.727 11.45 2.843 2.943 1.119 4.816 2.415 4.785 3.834zm-5.736-38.043c.92 1.03.15 3.505-2.332 6.428-1.232 1.463-2.91 2.986-4.945 4.447a36.756 36.756 0 0 1-7.137 3.892 36.812 36.812 0 0 1-7.83 2.18c-2.48.371-4.744.446-6.647.255-3.816-.367-6.093-1.607-6.15-2.987-.064-1.431 1.986-2.752 5.066-4.147 1.546-.689 3.353-1.44 5.338-2.214 1.97-.786 4.126-1.644 6.387-2.543l6.353-2.625a125.282 125.282 0 0 1 5.374-2.131c3.18-1.146 5.57-1.627 6.523-.555zm48.323-13.429c-.711 1.298-5.65-.127-13.333-2.223l-3.01-.821c-1.042-.29-2.148-.519-3.272-.81-2.24-.611-4.676-1.088-7.205-1.673-5.097-1.033-10.704-2.003-16.642-2.68-5.944-.622-11.63-.888-16.829-.981-2.596.025-5.077-.037-7.395.076-1.162.041-2.292.026-3.372.084l-3.115.15c-7.954.386-13.084.71-13.499-.71-.193-.678.85-1.641 2.954-2.816.527-.293 1.119-.6 1.774-.918.658-.304 1.388-.582 2.175-.888 1.576-.589 3.381-1.28 5.435-1.79l3.226-.833c1.128-.273 2.314-.462 3.543-.695 2.455-.496 5.11-.765 7.911-1.057 5.607-.439 11.827-.448 18.301.234a100.59 100.59 0 0 1 17.919 3.728c2.672.89 5.205 1.726 7.495 2.741 1.15.493 2.267.934 3.31 1.445l2.97 1.512c1.894.94 3.507 2.006 4.92 2.921.7.467 1.353.898 1.93 1.337.571.453 1.083.88 1.534 1.28 1.8 1.602 2.61 2.768 2.275 3.387zm-10.196-31.126c-.482 2.777-12.417 3.024-26.66.554-14.24-2.47-25.396-6.725-24.914-9.502.481-2.775 12.418-3.024 26.66-.553 14.241 2.47 25.396 6.724 24.914 9.5zm27.41 47.32c.382 1.333-1.91 3.362-6.168 5.218-4.24 1.857-10.471 3.438-17.488 3.83-7.018.384-13.385-.5-17.804-1.88-4.437-1.375-6.938-3.14-6.707-4.506.238-1.412 3.095-2.181 7.415-2.675 4.33-.489 10.136-.78 16.532-1.128 6.396-.359 12.2-.709 16.558-.7 4.347.015 7.271.464 7.663 1.84zm-118.371-29.867c1.417-.1 2.781 1.457 4.036 3.883 1.254 2.438 2.442 5.746 3.491 9.451 1.059 3.7 1.793 7.139 2.012 9.873.212 2.724-.13 4.763-1.386 5.426-1.234.652-3.187-.255-5.2-2.48-2.011-2.21-4.024-5.763-5.24-10.023-1.211-4.264-1.372-8.346-.827-11.283.54-2.952 1.72-4.752 3.114-4.847zm78.344 61.955c1.19.783.78 3.673-.543 7.758-1.33 4.094-3.517 9.416-6.041 15.23-2.516 5.817-4.904 11.055-6.98 14.823-2.077 3.759-3.905 6.035-5.291 5.701-1.354-.324-1.998-3.253-1.625-7.763.366-4.497 1.823-10.556 4.531-16.819 2.716-6.258 6.141-11.464 9.174-14.808 3.035-3.354 5.612-4.887 6.775-4.122zm19.738 13.291c1.387.081 2.564 2.525 2.98 6.537.421 3.997-.01 9.55-1.734 15.376-1.733 5.824-4.398 10.715-6.932 13.835-2.536 3.135-4.856 4.543-6.062 3.854-1.24-.707-1.18-3.316-.445-6.972.744-3.666 2.103-8.411 3.654-13.618 1.54-5.213 2.99-9.933 4.364-13.41 1.378-3.466 2.75-5.686 4.175-5.602zm-6.37 121.834c-2.234 1.72-6.563-.157-9.669-4.192-3.107-4.033-3.816-8.697-1.583-10.417 2.233-1.72 6.562.157 9.668 4.192 3.106 4.033 3.816 8.697 1.583 10.417zm-3.405 15.793c2.784.387 3.354 12.856.913 27.793-2.433 14.94-6.935 26.582-9.698 26.064-2.777-.52-2.786-12.898-.374-27.706 2.419-14.808 6.361-26.54 9.159-26.15zm32.6 27.6c.605 5.932 1.315 13.966 2.547 22.762a349.735 349.735 0 0 0 2.203 13.485c.75 4.099 2.426 11.35 1.86 13.21l-2.142 7.038-4.034-7.265c-1.55-2.793-3.208-6.408-4.634-10.662-1.423-4.252-2.613-9.14-3.357-14.374-1.342-9.553-.909-18.36.35-24.537 1.238-6.203 3.084-9.795 4.447-9.61 1.428.187 2.132 4.03 2.76 9.953zm-27.355-73.939c.566-1.25 3.929-1.206 8.803.554 2.436.867 5.204 2.214 8.116 3.992a59.12 59.12 0 0 1 8.797 6.739 58.962 58.962 0 0 1 7.329 8.314c1.975 2.782 3.51 5.449 4.544 7.82 2.092 4.741 2.367 8.092 1.159 8.743-1.268.689-3.749-1.345-7.123-4.682l-5.781-5.836c-2.17-2.155-4.54-4.5-7.09-6.898-2.568-2.38-5.071-4.582-7.372-6.598-2.328-2.009-4.433-3.823-6.22-5.364-3.561-3.138-5.761-5.472-5.162-6.784zm32.858-45.843c1.373-.15 2.909 1.636 3.81 4.921.455 1.636.701 3.63.691 5.846a29.305 29.305 0 0 1-1.012 7.114 29.309 29.309 0 0 1-2.756 6.636c-1.12 1.913-2.348 3.501-3.575 4.677-2.449 2.368-4.68 3.121-5.784 2.293-1.148-.856-1.054-3.046-.465-5.901a82 82 0 0 1 1.19-4.793l1.547-5.608 1.529-5.615a82.665 82.665 0 0 1 1.418-4.73c.948-2.757 1.984-4.688 3.407-4.84zm1.193-33.823c1.036.998.063 3.758-1.795 7.59a339.875 339.875 0 0 1-3.326 6.553c-1.231 2.438-2.578 5.085-3.938 7.895-1.339 2.818-2.56 5.528-3.69 8.014a339.5 339.5 0 0 1-3.03 6.694c-1.823 3.849-3.367 6.336-4.794 6.154-1.366-.171-2.354-3.085-2.236-7.774.047-2.339.43-5.095 1.152-8.089a51.39 51.39 0 0 1 3.396-9.412 51.369 51.369 0 0 1 5.213-8.54c1.882-2.44 3.793-4.46 5.587-5.964 3.582-3.025 6.474-4.08 7.461-3.121zm25.928-45.015c1.12.801.754 3.612-1.31 7.343-1.021 1.865-2.5 3.912-4.37 5.99a43.79 43.79 0 0 1-6.805 6.004 43.843 43.843 0 0 1-7.927 4.42c-2.581 1.07-5.004 1.783-7.103 2.125-4.206.705-6.978.114-7.36-1.21-.405-1.38 1.543-3.221 4.631-5.47a202.787 202.787 0 0 1 5.4-3.737l6.465-4.46 6.356-4.612a204.352 204.352 0 0 1 5.321-3.846c3.15-2.165 5.535-3.387 6.702-2.547zm23.577-22.507c-.837 1.18-3.274.93-6.56.357l-5.598-1c-2.071-.321-4.308-.648-6.674-.887-2.368-.208-4.625-.306-6.719-.381l-5.686-.07c-3.337-.053-5.776-.265-6.377-1.582-.576-1.233.957-3.457 4.513-5.388a18.927 18.927 0 0 1 3-1.317c1.107-.425 2.328-.714 3.628-1.001a31.299 31.299 0 0 1 8.604-.42 31.286 31.286 0 0 1 8.373 2.028c1.222.527 2.367 1.039 3.375 1.665a19.116 19.116 0 0 1 2.7 1.855c3.129 2.565 4.217 5.036 3.421 6.14zm-40.978-28.694c1.833 2.14.67 6.145-2.599 8.945-3.268 2.8-7.405 3.335-9.238 1.195-1.833-2.14-.67-6.144 2.598-8.944 3.27-2.802 7.406-3.336 9.239-1.196zm80.824 1.832c-.633 1.296-3.8 1.093-8.43.346a769.374 769.374 0 0 1-7.994-1.387c-2.98-.495-6.227-1.032-9.65-1.512-3.427-.454-6.7-.807-9.704-1.127a740.254 740.254 0 0 1-8.072-.805c-4.66-.517-7.767-1.17-8.031-2.588-.256-1.349 2.483-3.238 7.42-4.602 2.461-.689 5.462-1.18 8.824-1.407 3.36-.19 7.082-.095 10.941.418a58.266 58.266 0 0 1 10.654 2.526c3.18 1.12 5.94 2.395 8.125 3.719 4.391 2.635 6.525 5.19 5.917 6.42zM28.138 175.988c.488 1.289-1.87 3.61-6.429 5.857-2.272 1.129-5.098 2.18-8.321 3.06a62.3 62.3 0 0 1-10.7 1.826 62.112 62.112 0 0 1-10.853-.131c-3.322-.365-6.278-.964-8.698-1.724-4.853-1.506-7.545-3.43-7.265-4.778.29-1.41 3.406-2.014 8.094-2.391 2.348-.176 5.102-.348 8.128-.506 3.029-.19 6.33-.384 9.794-.646 3.463-.282 6.754-.608 9.774-.893 3.014-.317 5.761-.578 8.108-.768 4.69-.361 7.863-.25 8.368 1.094zm-.7-61.891c1.288.547 1.492 3.379.61 7.51-.876 4.128-2.872 9.54-5.89 15.103-3.02 5.558-6.473 10.18-9.458 13.165-2.985 2.99-5.47 4.361-6.631 3.577-2.337-1.62 1.375-10.986 7.12-21.612 5.784-10.607 11.616-18.82 14.249-17.743zM8.024 65.034c2.017-1.968 9.184 2.106 16.007 9.1 6.823 6.995 10.718 14.26 8.701 16.227-2.016 1.968-9.183-2.106-16.006-9.1S6.007 67.001 8.024 65.034zM-11.517 13.91c1.412.314 2.048 2.995 2.644 6.868l.99 6.655c.41 2.46.875 5.122 1.468 7.901.622 2.773 1.316 5.386 1.97 7.792l1.886 6.46c1.076 3.765 1.62 6.467.47 7.344-1.083.833-3.768-.425-6.755-3.798a24.537 24.537 0 0 1-2.221-2.909c-.76-1.081-1.428-2.315-2.119-3.628a40.721 40.721 0 0 1-3.2-9.077 40.76 40.76 0 0 1-.89-9.581c.08-1.482.17-2.881.408-4.183.186-1.299.483-2.494.801-3.569 1.304-4.314 3.217-6.58 4.548-6.275zm.844-52.037c1.183.843.346 4.06-1.14 8.75-.368 1.175-.797 2.436-1.202 3.806-.458 1.343-.85 2.81-1.326 4.316-.868 3.048-1.766 6.38-2.555 9.917-.755 3.545-1.326 6.948-1.807 10.079-.194 1.568-.448 3.065-.59 4.477-.203 1.415-.339 2.738-.493 3.963-.602 4.88-1.181 8.154-2.609 8.428-1.332.265-3.308-2.656-4.593-7.972a34.25 34.25 0 0 1-.768-4.385c-.224-1.59-.283-3.298-.332-5.104a55.644 55.644 0 0 1 1.22-11.661 55.537 55.537 0 0 1 3.747-11.11c.797-1.62 1.56-3.15 2.427-4.502a34.298 34.298 0 0 1 2.524-3.666c3.382-4.3 6.394-6.132 7.497-5.336zm-23.159-55.138c.904-1.052 3.518-.55 6.877 1.527 3.349 2.061 7.365 5.775 10.709 10.703 3.337 4.933 5.298 10.04 5.972 13.914.683 3.889.18 6.504-1.133 6.952-1.351.465-3.243-1.237-5.478-4.058-2.236-2.833-4.89-6.761-7.81-11.084-2.932-4.313-5.596-8.234-7.4-11.362-1.788-3.12-2.669-5.508-1.737-6.592zm64.334-40.308c.07 1.428-2.266 2.777-5.881 4.168-3.628 1.388-8.532 2.9-13.92 4.603-5.386 1.716-10.265 3.31-14.03 4.268-3.754.948-6.44 1.194-7.208-.014-.744-1.168.638-3.62 3.838-6.366 1.593-1.377 3.651-2.785 6.068-4.116a48.72 48.72 0 0 1 8.243-3.5 48.691 48.691 0 0 1 8.752-1.894c2.743-.307 5.235-.344 7.331-.137 4.2.398 6.742 1.605 6.807 2.988zm-32.872-22.16c.872 1.12.204 3.227-1.344 5.804-1.558 2.582-3.97 5.67-6.814 8.894-2.838 3.23-5.597 6.014-7.962 7.884-2.362 1.863-4.366 2.792-5.589 2.069-1.202-.711-1.366-2.993-.397-6.096.958-3.095 3.102-6.978 6.289-10.602 3.19-3.619 6.772-6.236 9.72-7.578 2.956-1.354 5.24-1.48 6.097-.376zm46.06-39.394c-.074 1.45-3.424 2.466-8.505 3.703-1.273.312-2.657.62-4.129 1.004-1.477.326-3.032.77-4.672 1.166-3.262.879-6.81 1.882-10.489 3.08-3.67 1.233-7.114 2.543-10.257 3.783-1.551.66-3.064 1.232-4.445 1.852-1.41.569-2.704 1.148-3.914 1.654-4.815 2.039-8.11 3.22-9.035 2.101-.874-1.044.877-4.286 5.112-8.156a38.31 38.31 0 0 1 3.628-2.94c1.34-1.02 2.87-1.96 4.488-2.94a62.484 62.484 0 0 1 11.219-5.042 62.577 62.577 0 0 1 12.01-2.644c1.886-.177 3.671-.335 5.357-.317 1.677-.04 3.244.058 4.666.198 5.706.58 9.045 2.138 8.967 3.498zm41.36-27.764c-.557 1.368-4.173 1.124-9.533.91a64.935 64.935 0 0 1-2.096-.086c-.724-.035-1.486.001-2.26-.019-1.548-.066-3.205.038-4.93.056-3.454.173-7.212.502-11.12 1.147-3.9.698-7.551 1.642-10.866 2.634-1.63.56-3.228 1.016-4.664 1.596-.724.277-1.454.498-2.125.771-.666.28-1.317.542-1.946.782-4.981 1.993-8.307 3.431-9.29 2.33-.465-.53-.224-1.593.673-3.108.223-.379.487-.785.794-1.218.313-.42.687-.837 1.092-1.292.82-.888 1.763-1.928 2.96-2.864a79.873 79.873 0 0 1 1.873-1.503c.663-.509 1.403-.955 2.155-1.452 1.494-1.02 3.212-1.878 5.03-2.79a52.23 52.23 0 0 1 12.583-3.943 52.206 52.206 0 0 1 13.178-.49c2.017.254 3.924.489 5.674.952.875.216 1.72.392 2.516.648.795.265 1.552.529 2.267.79 1.442.484 2.678 1.148 3.748 1.712.532.292 1.025.56 1.461.85.432.307.818.603 1.155.885 1.351 1.128 1.933 2.05 1.671 2.702zM66.3-172.462c.952.996-.016 3.772-2.884 7.173-1.423 1.704-3.345 3.508-5.67 5.274a47.076 47.076 0 0 1-8.143 4.853 47.076 47.076 0 0 1-8.97 3.063c-2.85.625-5.47.923-7.69.904-4.45-.017-7.19-1.078-7.333-2.447-.153-1.43 2.207-2.91 5.838-4.612a252.6 252.6 0 0 1 6.314-2.799c2.344-1.039 4.898-2.154 7.558-3.372 2.652-1.239 5.154-2.463 7.463-3.576 2.292-1.14 4.4-2.154 6.222-2.998 3.65-1.664 6.306-2.504 7.296-1.463zm3.522 318.851c1.341-.219 3.105 2.06 4.012 6.328.22 1.062.404 2.241.456 3.51.109 1.276.046 2.633-.036 4.067a35.204 35.204 0 0 1-2.042 9.089 35.244 35.244 0 0 1-4.445 8.186c-.884 1.135-1.729 2.195-2.652 3.084a21.437 21.437 0 0 1-2.654 2.342c-3.492 2.616-6.32 3.17-7.185 2.124-.932-1.112.09-3.534 1.71-6.823.404-.827.865-1.696 1.31-2.654.491-.92.93-1.948 1.448-2.978.961-2.11 1.97-4.406 2.914-6.869.912-2.476 1.664-4.868 2.328-7.089.289-1.116.635-2.18.872-3.198.295-1.013.521-1.97.761-2.859.947-3.54 1.77-6.036 3.203-6.26zm16.614-24.193c.746 1.213-1.163 3.846-4.63 7.286-3.475 3.441-8.481 7.736-14.11 12.337-5.622 4.608-10.821 8.665-14.881 11.39-4.057 2.719-7.016 4.068-8.058 3.098-1.02-.949.098-4.068 2.985-8.23 2.879-4.156 7.574-9.307 13.492-14.155 5.921-4.843 11.9-8.427 16.544-10.428 4.65-2.007 7.93-2.486 8.658-1.298zm60.586 37.973c.808 1.112-1.017 4.094-5.096 7.635-2.032 1.775-4.646 3.633-7.71 5.436a68.64 68.64 0 0 1-10.464 4.892 68.509 68.509 0 0 1-11.155 3.004c-3.505.596-6.701.86-9.398.812-5.401-.079-8.72-1.182-8.819-2.554-.107-1.436 2.931-2.88 7.668-4.57a504.772 504.772 0 0 1 8.26-2.809c3.077-1.055 6.437-2.2 9.942-3.467 3.499-1.29 6.806-2.581 9.84-3.757a501.433 501.433 0 0 1 8.123-3.174c4.713-1.763 7.967-2.616 8.809-1.448zm25.683-31.159c.588 2.757-11.567 7.692-27.152 11.027-15.584 3.333-28.696 3.802-29.287 1.047-.588-2.756 11.568-7.692 27.153-11.027 15.584-3.334 28.696-3.804 29.286-1.047zM102.18 98.067c1.351-.25 3.26 2.7 4.672 7.946.714 2.618 1.238 5.802 1.508 9.37a67.04 67.04 0 0 1-.254 11.622 67.07 67.07 0 0 1-2.33 11.39c-1.053 3.418-2.27 6.407-3.547 8.8-2.539 4.803-5.054 7.257-6.317 6.714-1.325-.564-1.206-3.933-.55-8.932a702 702 0 0 1 1.242-8.65c.446-3.229.932-6.751 1.36-10.46.405-3.713.711-7.254.994-10.502.245-3.246.484-6.197.706-8.71.468-5.019 1.098-8.332 2.516-8.588zm-25.887-39.5c1.349.288 1.95 3.885 1.28 9.5-.325 2.806-1.017 6.09-2.068 9.66a79.16 79.16 0 0 1-4.391 11.266 79.122 79.122 0 0 1-6.11 10.436c-2.148 3.04-4.293 5.621-6.291 7.617-3.987 4.009-7.182 5.771-8.243 4.89-1.108-.915.063-4.247 2.355-9.06a401.195 401.195 0 0 1 4.12-8.292c1.536-3.09 3.217-6.478 4.983-10.035 1.693-3.593 3.305-7.013 4.777-10.133 1.44-3.14 2.775-5.98 3.943-8.377 2.354-4.785 4.24-7.772 5.645-7.471zM39.177 8.548c2.775-.493 7.183 11.303 9.846 26.344 2.662 15.041 2.572 27.632-.203 28.124-2.776.49-7.184-11.303-9.846-26.344-2.664-15.041-2.572-27.634.203-28.124zM26.745-26.142c1.297.65.95 4 .15 8.936-.197 1.238-.442 2.57-.65 4.007-.264 1.421-.45 2.954-.712 4.54-.437 3.195-.87 6.682-1.179 10.36-.273 3.68-.39 7.19-.46 10.415.01 1.607-.047 3.15-.008 4.595-.02 1.452.014 2.807.013 4.06.018 4.999-.164 8.363-1.55 8.8-1.294.42-3.603-2.289-5.54-7.463a35.948 35.948 0 0 1-1.315-4.301c-.423-1.566-.7-3.27-.983-5.073a58.041 58.041 0 0 1-.33-11.836 58.078 58.078 0 0 1 2.182-11.639c.561-1.736 1.101-3.375 1.766-4.856a35.874 35.874 0 0 1 1.972-4.041c2.724-4.806 5.43-7.12 6.644-6.504zM53.56-78.87c.692 1.262-1.57 3.888-5.358 7.468a475.367 475.367 0 0 1-6.667 6.114c-2.485 2.285-5.206 4.772-8.02 7.431-2.797 2.678-5.418 5.269-7.826 7.636a461.62 461.62 0 0 1-6.443 6.352c-3.766 3.6-6.503 5.728-7.728 4.973-1.175-.718-.575-4.259 1.905-9.236 1.231-2.489 2.972-5.294 5.15-8.236a74.067 74.067 0 0 1 7.91-8.884 74.08 74.08 0 0 1 9.27-7.45c3.05-2.029 5.938-3.627 8.486-4.73 5.095-2.227 8.661-2.647 9.321-1.438zm25.498 13.472c1.317.369 1.933 3.208 1.09 7.524a24.355 24.355 0 0 1-.931 3.445c-.386 1.23-.941 2.481-1.545 3.795a40.27 40.27 0 0 1-5.09 7.883 40.295 40.295 0 0 1-6.831 6.43c-1.183.833-2.312 1.605-3.452 2.207a24.477 24.477 0 0 1-3.22 1.54c-4.093 1.609-6.997 1.517-7.597.289-.64-1.296.994-3.451 3.579-6.283 1.294-1.389 2.81-3.019 4.486-4.817 1.637-1.807 3.405-3.771 5.194-5.897 1.766-2.144 3.38-4.238 4.86-6.175l3.927-5.285c2.316-3.054 4.14-5.05 5.53-4.656zm142.327 177.412c1.183.701.557 4.389-2.005 9.61-1.271 2.61-3.068 5.56-5.32 8.66a78.508 78.508 0 0 1-8.182 9.384 78.602 78.602 0 0 1-9.608 7.916c-3.162 2.162-6.16 3.877-8.807 5.074-5.29 2.416-8.993 2.938-9.66 1.736-.703-1.258 1.678-3.975 5.644-7.73a683.585 683.585 0 0 1 6.968-6.439c2.594-2.414 5.427-5.05 8.35-7.875 2.904-2.841 5.618-5.6 8.105-8.124a688.42 688.42 0 0 1 6.63-6.785c3.863-3.86 6.648-6.164 7.885-5.427zm43.58-65.388c.657-.255 1.542.268 2.607 1.518.266.313.542.67.829 1.071.271.406.514.866.782 1.364.51.998 1.12 2.156 1.528 3.506.226.671.452 1.381.675 2.128.217.747.347 1.538.516 2.358.37 1.644.497 3.424.633 5.31.13 3.767-.23 7.945-1.301 12.18a43.783 43.783 0 0 1-4.787 11.276c-1.037 1.581-2.013 3.075-3.135 4.33-.548.635-1.045 1.264-1.598 1.812-.558.543-1.1 1.054-1.624 1.53-1.014.981-2.11 1.697-3.042 2.322-.475.304-.91.588-1.346.81-.445.212-.862.389-1.246.532-1.537.576-2.566.602-3.016.06-.935-1.144.76-4.006 3.04-8.264.28-.541.578-1.096.895-1.662.312-.57.575-1.207.892-1.826.66-1.222 1.203-2.613 1.852-4.012 1.174-2.87 2.319-6.045 3.237-9.472.864-3.44 1.408-6.77 1.778-9.849.114-1.538.315-3.018.332-4.406.024-.696.104-1.379.109-2.03-.001-.65.008-1.279.028-1.887.076-4.83-.013-8.156 1.362-8.7zm-.76-54.264c1.123.944-.718 4.926-3.628 10.983l-1.145 2.37c-.403.818-.77 1.696-1.19 2.58-.861 1.755-1.655 3.688-2.557 5.675-1.7 4.03-3.463 8.477-5.081 13.23-1.576 4.768-2.849 9.377-3.923 13.618-.48 2.129-1.012 4.15-1.382 6.069-.197.958-.435 1.88-.607 2.775-.18.896-.351 1.758-.515 2.581-1.331 6.587-2.264 10.874-3.728 10.951-1.344.08-2.987-4.195-3.473-11.415-.052-.901-.094-1.846-.126-2.833-.029-.985.023-2.005.047-3.068.026-2.129.273-4.385.537-6.763a84.45 84.45 0 0 1 3.494-15.16 84.374 84.374 0 0 1 6.353-14.201c1.226-2.057 2.388-4.005 3.65-5.72.622-.862 1.196-1.708 1.813-2.478a119.1 119.1 0 0 1 1.808-2.182c4.742-5.467 8.629-7.886 9.654-7.012zm-104.999 92.28c.16-2.813 15.486-4.236 34.234-3.179s33.817 4.196 33.658 7.01c-.159 2.813-15.485 4.236-34.234 3.179-18.747-1.058-33.816-4.196-33.658-7.01zm-41.683-7.841c.652-.269 1.715.413 3.034 1.785.33.342.676.73 1.035 1.157l1.256 1.329c.895.945 1.756 2.09 2.916 3.202.552.573 1.119 1.174 1.695 1.804.585.626 1.28 1.206 1.931 1.85 1.272 1.32 2.827 2.532 4.36 3.882 3.213 2.552 6.884 5.129 11.002 7.416 4.156 2.219 8.313 3.904 12.199 5.218 1.966.555 3.827 1.202 5.627 1.555.895.197 1.76.465 2.6.617.843.143 1.655.291 2.436.446 1.565.37 2.993.47 4.272.711l1.799.333c.553.07 1.066.15 1.534.24 1.867.365 3.016.888 3.145 1.581.128.692-.79 1.495-2.661 2.363-.467.218-.994.438-1.578.661-.585.201-1.232.347-1.93.52-1.399.31-3.02.719-4.825.803-.904.072-1.856.136-2.853.189-.996.044-2.02-.044-3.093-.082-2.159-.031-4.412-.43-6.803-.828a55.646 55.646 0 0 1-14.749-5.365 55.708 55.708 0 0 1-12.509-9.476c-1.632-1.793-3.19-3.47-4.388-5.264-.614-.882-1.244-1.695-1.747-2.554-.496-.867-.96-1.702-1.388-2.5-.91-1.562-1.447-3.144-1.945-4.488-.234-.68-.462-1.302-.611-1.904-.13-.611-.23-1.174-.3-1.684-.288-2.043-.112-3.25.54-3.517zm16.12-39.21c.597 1.302-1.328 3.532-4.56 6.384a188.433 188.433 0 0 1-5.715 4.777l-6.946 5.657-6.891 5.727a188.146 188.146 0 0 1-5.79 4.688c-3.42 2.622-5.978 4.08-7.142 3.244-1.125-.804-.599-3.824 1.638-7.91 1.11-2.044 2.678-4.314 4.636-6.662a56.692 56.692 0 0 1 7.065-6.967 56.785 56.785 0 0 1 8.198-5.59c2.68-1.468 5.21-2.57 7.43-3.265 4.44-1.408 7.505-1.342 8.078-.084zm61.716-22.752c.69.14 1.126 1.2 1.304 3.065.044.467.072.984.084 1.547-.003.56-.058 1.158-.115 1.806-.134 1.285-.274 2.776-.684 4.349-.185.793-.39 1.625-.618 2.49-.232.864-.565 1.726-.876 2.638-.6 1.836-1.48 3.692-2.41 5.656a59.118 59.118 0 0 1-7.884 11.686 59.186 59.186 0 0 1-10.548 9.352c-1.826 1.178-3.549 2.295-5.292 3.13-.862.43-1.673.871-2.499 1.216-.828.34-1.625.652-2.387.94-1.507.614-2.965.948-4.223 1.25-.633.14-1.218.274-1.772.351-.562.062-1.078.102-1.546.12-1.874.069-2.981-.225-3.21-.89-.474-1.4 2.69-3.669 7.337-7.187.577-.45 1.184-.91 1.818-1.376.632-.472 1.248-1.026 1.913-1.547 1.348-1.017 2.676-2.244 4.116-3.451 2.797-2.53 5.748-5.4 8.618-8.633 2.828-3.27 5.285-6.573 7.425-9.678 1.009-1.587 2.05-3.065 2.881-4.533.43-.728.897-1.412 1.282-2.1.379-.69.754-1.353 1.124-1.984 2.88-5.07 4.712-8.503 6.162-8.217zm-64.804 3.814c.045 1.441-2.931 2.743-7.497 4.273l-7.929 2.575c-2.945.987-6.15 2.072-9.486 3.301-3.326 1.256-6.46 2.534-9.331 3.717l-7.68 3.243c-4.451 1.834-7.554 2.8-8.464 1.678-.868-1.06.698-4.085 4.504-7.71 1.893-1.816 4.37-3.717 7.302-5.555a60.036 60.036 0 0 1 10.104-4.935 60.006 60.006 0 0 1 10.868-2.885c3.42-.53 6.536-.716 9.156-.583 5.25.249 8.414 1.51 8.453 2.88zm-4.261-31.586c.705-1.17 4.044-.745 8.644 1.67 1.143.607 2.37 1.32 3.61 2.197 1.275.837 2.531 1.861 3.85 2.955a53.694 53.694 0 0 1 7.587 8.133 53.773 53.773 0 0 1 5.665 9.573c.676 1.573 1.304 3.068 1.748 4.528a32.83 32.83 0 0 1 1.09 4.082c1.02 5.094.487 8.418-.834 8.764-1.4.373-3.318-2.162-5.866-6.083l-4.393-6.788c-1.68-2.497-3.532-5.196-5.58-7.96-2.075-2.745-4.144-5.284-6.065-7.6l-5.273-6.128c-3.043-3.55-4.936-6.106-4.183-7.343zm-11.743-4.39c.446 1.352-1.542 3.317-4.901 5.62-3.37 2.306-8.09 5.008-13.35 7.871-5.256 2.871-10.085 5.376-13.846 6.96-3.757 1.577-6.485 2.185-7.381 1.076-.876-1.08.288-3.712 3.16-6.93 2.863-3.213 7.479-6.95 13.18-10.066 5.707-3.107 11.349-4.963 15.6-5.627 4.261-.673 7.103-.228 7.538 1.095zm-16.38-67.29c.565-.422 1.496-.239 2.751.54.314.194.648.427 1 .694.337.277.66.608 1.013.967.686.729 1.498 1.574 2.158 2.643.349.524.706 1.085 1.068 1.68.356.595.638 1.25.963 1.924.68 1.341 1.155 2.859 1.657 4.47a35.108 35.108 0 0 1 1.133 10.844 35.127 35.127 0 0 1-2.413 10.633c-.69 1.54-1.34 2.99-2.176 4.242-.402.63-.759 1.247-1.184 1.795a47.34 47.34 0 0 1-1.262 1.542c-.781.982-1.687 1.726-2.455 2.367-.394.316-.752.607-1.121.84-.38.225-.74.415-1.074.571-1.34.625-2.284.696-2.796.211-1.06-1.027-.02-3.762 1.24-7.67.152-.496.316-1.004.498-1.523.174-.523.292-1.097.462-1.659.367-1.113.595-2.357.923-3.612.52-2.563.967-5.365 1.17-8.344.151-2.982.041-5.817-.172-8.423-.175-1.287-.253-2.549-.487-3.696-.103-.58-.15-1.164-.262-1.703a41.24 41.24 0 0 1-.312-1.571c-.788-4.03-1.496-6.87-.321-7.762zm-32.9-29.012c.102 1.452-3.343 2.876-8.615 4.809-.657.249-1.347.497-2.064.746-.718.252-1.45.56-2.215.838-1.537.534-3.139 1.21-4.838 1.847-3.367 1.37-7.017 2.923-10.775 4.724-3.742 1.833-7.223 3.736-10.383 5.532-1.554.937-3.077 1.775-4.448 2.652-.692.43-1.389.812-2.03 1.22-.64.407-1.262.794-1.866 1.157-4.782 2.939-8.035 4.762-9.111 3.782-1.01-.908.427-4.556 4.389-9.238a78.463 78.463 0 0 1 1.597-1.793c.567-.615 1.202-1.201 1.848-1.826 1.281-1.269 2.774-2.476 4.354-3.745a67.35 67.35 0 0 1 11.199-6.925 67.398 67.398 0 0 1 12.373-4.5c1.976-.455 3.849-.877 5.639-1.097.891-.12 1.745-.256 2.578-.32a83.592 83.592 0 0 1 2.398-.142c6.13-.209 9.883.924 9.97 2.279zm10.907-15.921c1.016-.923 3.564-.125 6.521 2.542 1.48 1.322 2.994 3.132 4.406 5.329a34.537 34.537 0 0 1 3.561 7.684c.9 2.88 1.37 5.734 1.513 8.335.11 2.608-.086 4.961-.535 6.894-.883 3.884-2.506 6.002-3.867 5.833-1.43-.172-2.384-2.45-3.35-5.723a325.704 325.704 0 0 1-1.548-5.616c-.587-2.07-1.217-4.307-1.94-6.64-.752-2.326-1.525-4.517-2.236-6.548-.742-2.011-1.405-3.87-1.968-5.484-1.094-3.232-1.628-5.643-.557-6.606zm47.436-23.73c-.211 1.432-3.264 2.195-7.817 2.98l-7.87 1.336c-2.92.545-6.094 1.166-9.402 1.936-3.299.8-6.412 1.673-9.266 2.499l-7.63 2.35c-4.418 1.346-7.488 2.039-8.32.855-.791-1.113.902-3.983 4.897-7.208 1-.799 2.13-1.632 3.412-2.412 1.258-.827 2.68-1.566 4.191-2.333a53.054 53.054 0 0 1 10.357-3.68 53.051 53.051 0 0 1 10.906-1.373c1.693.006 3.296.026 4.793.198 1.496.12 2.88.355 4.131.62 5.02 1.082 7.823 2.883 7.618 4.232zm7.678-29.81c-.703 1.26-3.66.998-7.904.188-2.122-.42-4.598-.925-7.307-1.497-2.72-.536-5.677-1.118-8.8-1.65-3.126-.508-6.115-.916-8.862-1.288-2.747-.339-5.253-.661-7.396-.952-4.28-.608-7.16-1.317-7.417-2.736-.25-1.35 2.286-3.186 6.899-4.462 2.3-.645 5.105-1.083 8.248-1.249 3.14-.129 6.614.036 10.204.62a50.93 50.93 0 0 1 9.852 2.718c2.92 1.175 5.434 2.496 7.4 3.853 3.952 2.7 5.755 5.26 5.083 6.456zm89.377 199.212c1.382-.115 2.89 2.11 3.836 5.994.948 3.865 1.226 9.388.203 15.323-1.033 5.935-3.154 11.041-5.347 14.362-2.197 3.338-4.367 4.927-5.63 4.354-1.301-.588-1.498-3.156-1.159-6.802.349-3.655 1.166-8.417 2.082-13.656.9-5.241 1.732-10.001 2.634-13.56.907-3.548 1.956-5.9 3.381-6.015zM208.038-6.647c.235 1.405-1.37 2.937-3.95 4.494-2.592 1.558-6.152 3.192-10.134 4.81-3.981 1.626-7.67 2.945-10.61 3.643-2.936.688-5.154.712-5.968-.455-.797-1.144.016-3.307 2.255-5.735 2.226-2.423 5.916-5.044 10.472-6.904 4.557-1.854 9.03-2.555 12.314-2.378 3.3.172 5.393 1.152 5.62 2.525zM174.77-60.38c1.214-.612 3.51.9 5.544 4.495.5.896.997 1.91 1.393 3.043.453 1.124.765 2.368 1.079 3.692.54 2.652.779 5.657.525 8.786a31.548 31.548 0 0 1-2.02 8.567c-.536 1.25-1.054 2.423-1.693 3.453a19.261 19.261 0 0 1-1.893 2.76c-2.618 3.195-5.14 4.29-6.23 3.483-1.172-.854-.866-3.317-.253-6.654.154-.839.346-1.727.503-2.687.208-.94.339-1.962.543-3.002.325-2.108.65-4.385.875-6.795.19-2.414.26-4.714.3-6.845-.025-1.06.02-2.089-.023-3.05.01-.974-.028-1.88-.035-2.735-.035-3.392.084-5.872 1.385-6.511zm-18.198-36.993c.686-.16 1.528.646 2.476 2.312.238.415.48.885.73 1.405.232.523.434 1.103.657 1.728.422 1.256.922 2.701 1.216 4.338a99.8 99.8 0 0 1 .494 2.578c.154.902.219 1.844.323 2.824.236 1.962.226 4.063.218 6.285a62.336 62.336 0 0 1-2.159 14.257 62.416 62.416 0 0 1-5.542 13.312c-1.145 1.902-2.226 3.704-3.445 5.26-.595.785-1.14 1.557-1.74 2.248a95.053 95.053 0 0 1-1.757 1.948c-1.1 1.249-2.277 2.225-3.288 3.079-.515.42-.988.812-1.46 1.137-.48.317-.933.593-1.35.825-1.675.933-2.813 1.187-3.318.694-1.052-1.037.83-4.558 3.536-9.918.331-.678.685-1.378 1.062-2.097.37-.722.695-1.513 1.074-2.295.787-1.553 1.47-3.287 2.262-5.057 1.458-3.607 2.911-7.595 4.137-11.883 1.174-4.302 1.998-8.467 2.62-12.306.24-1.925.556-3.761.687-5.497.08-.866.213-1.71.27-2.52.051-.81.111-1.592.18-2.342.462-5.988.679-9.974 2.117-10.315zm11.636-27.39c.446 1.391-2.048 3.421-5.75 6.31-.461.369-.944.743-1.452 1.121-.505.382-1 .826-1.534 1.242-1.08.813-2.153 1.784-3.317 2.73-2.27 1.985-4.685 4.201-7.08 6.677-2.365 2.504-4.47 5.017-6.349 7.372-.893 1.207-1.814 2.324-2.579 3.439-.391.552-.813 1.068-1.171 1.589a55.512 55.512 0 0 1-1.054 1.5c-2.718 3.829-4.633 6.412-6.044 6.029-.68-.188-1.095-1.103-1.244-2.66a11.78 11.78 0 0 1 .054-2.773c.13-1.056.281-2.277.653-3.556.17-.645.361-1.322.572-2.024.216-.7.51-1.396.792-2.132.546-1.484 1.322-2.976 2.147-4.552a47.48 47.48 0 0 1 6.846-9.283 47.478 47.478 0 0 1 8.966-7.258c1.536-.897 2.99-1.737 4.449-2.35.722-.317 1.405-.642 2.095-.888a60.305 60.305 0 0 1 1.995-.663c1.26-.43 2.474-.636 3.524-.813a11.81 11.81 0 0 1 2.766-.179c1.564.08 2.496.453 2.715 1.123zm-8.95-27.085c.712 1.238-1.478 3.922-5.308 7.49-3.84 3.572-9.28 8.096-15.286 13.08-5.996 4.993-11.44 9.516-15.651 12.638-4.21 3.114-7.246 4.777-8.334 3.85-1.06-.899.068-4.258 3.094-8.811 3.015-4.546 7.999-10.223 14.368-15.525 6.376-5.293 12.867-9.155 17.888-11.29 5.03-2.142 8.54-2.636 9.23-1.432zm21.979-70.686c.35 1.334-3.073 3.614-9.142 5.754-3.03 1.077-6.721 2.066-10.88 2.883a104.23 104.23 0 0 1-13.682 1.647c-4.887.242-9.556.124-13.778-.23-4.222-.384-7.997-.986-11.12-1.747-6.257-1.503-9.897-3.417-9.685-4.78.218-1.42 4.183-2.044 10.333-2.407 3.076-.171 6.707-.328 10.717-.466 4.004-.173 8.395-.363 13.007-.56 4.607-.279 8.995-.542 12.996-.782a506.69 506.69 0 0 1 10.708-.64c6.154-.272 10.161-.062 10.526 1.328zm-34.526-27.785c-.01 2.8-13.614 5.011-30.34 3.953-16.729-1.034-29.95-4.922-29.611-7.7.337-2.818 13.845-3.497 30.248-2.484 16.4 1.037 29.717 3.394 29.703 6.23zm99.751 11.086c-.786 1.22-4.215.425-9.267-1.058-1.268-.368-2.63-.798-4.106-1.206-1.453-.461-3.032-.861-4.66-1.345-3.286-.884-6.883-1.807-10.695-2.63-3.818-.788-7.48-1.4-10.843-1.923-1.685-.218-3.29-.491-4.805-.657-1.515-.225-2.935-.383-4.243-.56-5.22-.689-8.677-1.352-8.901-2.785-.219-1.345 2.959-3.24 8.596-4.426a39.21 39.21 0 0 1 4.64-.69c1.683-.2 3.483-.235 5.385-.262 3.796.035 7.982.426 12.283 1.32a63.848 63.848 0 0 1 11.766 3.765c1.729.794 3.36 1.555 4.817 2.418a38.978 38.978 0 0 1 3.963 2.512c4.677 3.364 6.815 6.384 6.07 7.527zm-35.287 20.52c1.158.767.871 3.59-.911 7.452-1.769 3.853-5.107 8.688-9.73 13.137-4.63 4.442-9.592 7.588-13.511 9.203-3.929 1.627-6.763 1.803-7.482.616-.742-1.222.705-3.548 3.326-6.516 2.634-2.972 6.408-6.647 10.595-10.661 4.177-4.024 7.998-7.65 11.071-10.163 3.07-2.503 5.452-3.856 6.642-3.067zm-1.134 57.54c.225 1.34-2.783 3.235-8.187 4.364-1.347.275-2.837.52-4.446.637-1.613.178-3.338.183-5.16.178a56.395 56.395 0 0 1-11.728-1.587 56.125 56.125 0 0 1-11.096-4.113c-1.611-.852-3.132-1.667-4.47-2.58a34.598 34.598 0 0 1-3.626-2.654c-4.238-3.537-6.003-6.622-5.175-7.7.88-1.157 4.095-.203 8.778 1.448 1.178.41 2.436.885 3.807 1.336 1.342.506 2.81.949 4.317 1.476 3.05.971 6.388 1.98 9.938 2.885 3.558.87 6.978 1.55 10.128 2.125 1.578.243 3.082.542 4.504.727 1.423.245 2.756.419 3.987.61 4.91.744 8.197 1.413 8.429 2.848zm32.271 34.066c.681 1.2-1.17 3.786-5.114 6.626-1.963 1.424-4.461 2.858-7.362 4.189a58.85 58.85 0 0 1-9.8 3.38c-3.579.872-7.066 1.36-10.249 1.557-3.187.167-6.066.057-8.466-.292-4.812-.685-7.652-2.114-7.605-3.494.045-1.434 2.88-2.568 7.223-3.713a253.361 253.361 0 0 1 7.554-1.815c2.805-.662 5.877-1.388 9.104-2.152l9.06-2.32a260.74 260.74 0 0 1 7.535-1.9c4.378-1.003 7.414-1.316 8.12-.066zm2.35 30.154c.974.98.207 3.62-2.294 6.88-1.242 1.631-2.938 3.37-5.006 5.089a43.383 43.383 0 0 1-7.294 4.792 43.375 43.375 0 0 1-8.123 3.19c-2.596.697-4.996 1.079-7.045 1.152-4.106.162-6.705-.736-6.942-2.098-.25-1.41 1.805-3.022 5.023-4.858a139.118 139.118 0 0 1 5.621-2.984c2.09-1.07 4.375-2.238 6.774-3.464 2.386-1.252 4.66-2.443 6.737-3.534a142.962 142.962 0 0 1 5.682-2.868c3.357-1.567 5.857-2.316 6.866-1.297zm33.41 34.256c1.297 2.503-9.321 10.576-23.714 18.03-7.2 3.73-13.968 6.594-19.123 8.222-2.618.853-5.092 1.327-6.842 1.196-1.767-.116-2.73-.707-2.82-1.39-.097-.709.59-1.454 1.674-2.415 1.107-.96 2.595-2.195 4.682-3.806 4.279-3.254 10.541-7.142 17.735-10.869 14.393-7.455 27.112-11.471 28.408-8.968zm46.413 50.178c1.336.372 1.893 3.292 1.302 7.745-.582 4.44-2.41 10.378-5.631 16.354-3.23 5.971-7.194 10.755-10.587 13.677-3.398 2.936-6.146 4.072-7.19 3.158-1.077-.94-.302-3.704 1.442-7.519 1.754-3.821 4.42-8.744 7.356-14.165 2.924-5.429 5.577-10.358 7.81-13.92 2.233-3.55 4.121-5.715 5.498-5.33zm-31.707-5.657c1.319.521 1.692 2.993 1.405 6.546-.29 3.558-1.207 8.21-2.553 13.243-1.341 5.035-2.864 9.525-4.384 12.755-1.523 3.223-3.078 5.18-4.481 4.977-1.385-.202-2.352-2.562-2.62-6.27-.27-3.7.2-8.741 1.624-14.093 1.431-5.35 3.536-9.956 5.615-13.03 2.079-3.08 4.094-4.645 5.394-4.128zm-17.088-23.147c1.023.95.276 3.672-2.014 7.214-2.28 3.535-6.144 7.841-11.115 11.768-4.976 3.92-10.064 6.676-14.034 8.07-3.975 1.4-6.8 1.494-7.484.279-.699-1.239.828-3.533 3.645-6.39 2.825-2.856 6.916-6.32 11.552-9.971 4.63-3.66 8.951-6.831 12.39-8.914 3.431-2.074 6.019-3.024 7.06-2.056zm-5.646-85.863c1.087-.835 3.318-.157 5.652 2.285 1.168 1.208 2.284 2.865 3.224 4.86a24.079 24.079 0 0 1 1.93 6.87 24.065 24.065 0 0 1-.239 7.133c-.439 2.16-1.128 4.035-1.974 5.487-1.686 2.927-3.691 4.117-4.945 3.565-1.32-.572-1.77-2.617-2.066-5.274a172.197 172.197 0 0 1-.392-4.475c-.155-1.633-.308-3.38-.515-5.212-.235-1.83-.503-3.564-.74-5.185a174.713 174.713 0 0 1-.686-4.44c-.344-2.65-.395-4.744.751-5.614zm-90.547 20.8c2.496-1.308 7.408 3.138 10.972 9.932 3.564 6.795 4.43 13.363 1.934 14.673-2.495 1.31-7.408-3.138-10.972-9.933-3.564-6.794-4.43-13.364-1.934-14.672zm66.65-74.224c.694-.116 1.442.488 2.208 1.788.191.325.383.693.575 1.102.176.412.31.865.46 1.358.277.987.614 2.141.707 3.424.069.643.127 1.322.176 2.035.04.71-.016 1.438-.04 2.205-.017 1.542-.308 3.145-.617 4.848a35.859 35.859 0 0 1-4.134 10.386 35.847 35.847 0 0 1-7.267 8.492c-1.364 1.065-2.647 2.07-4.004 2.803-.667.378-1.286.767-1.934 1.062a53.58 53.58 0 0 1-1.88.791c-1.18.516-2.359.754-3.36.968-.507.096-.971.19-1.416.225-.451.02-.867.02-1.244.003-1.507-.072-2.39-.453-2.61-1.122-.446-1.408 1.842-3.338 4.891-6.247.38-.373.777-.751 1.194-1.133.414-.386.799-.848 1.225-1.274.876-.828 1.685-1.845 2.59-2.825 1.713-2.073 3.467-4.405 5.08-7.02 1.564-2.643 2.81-5.283 3.848-7.763.446-1.257.97-2.446 1.295-3.607.177-.576.407-1.132.558-1.678.143-.546.291-1.074.446-1.583 1.154-4.054 1.798-6.975 3.253-7.238zm22.292-21.713c-.244 1.436-3.142 2.144-7.352 2.997-.528.115-1.077.222-1.647.322-.568.105-1.156.262-1.762.381-1.214.217-2.489.559-3.826.84-2.665.663-5.546 1.435-8.525 2.406-2.968 1.01-5.734 2.118-8.265 3.188-1.239.576-2.464 1.068-3.566 1.622-.555.268-1.12.495-1.638.751-.516.26-1.019.504-1.51.73-3.881 1.841-6.625 3.013-7.681 2.012-.99-.923-.007-4 3.277-7.728.413-.457.856-.929 1.329-1.415.473-.482 1.01-.927 1.554-1.408 1.082-.98 2.35-1.87 3.7-2.803a43.27 43.27 0 0 1 9.576-4.63 43.234 43.234 0 0 1 10.437-2.036c1.64-.064 3.189-.113 4.642.024.725.057 1.422.092 2.09.193.668.105 1.306.217 1.91.336 4.864 1.015 7.497 2.885 7.257 4.218zm52.284-6.552c-.856 1.142-4.358.063-9.428-2.284-5.076-2.353-11.762-5.918-19.106-9.901-7.35-3.973-13.99-7.625-18.735-10.587-4.736-2.964-7.554-5.307-7.066-6.647.474-1.307 4.21-1.349 9.839-.015 5.62 1.326 13.107 4.104 20.821 8.275 7.71 4.18 14.128 8.93 18.31 12.913 4.193 3.986 6.2 7.135 5.365 8.246zm-1.637 17.348c.579.402.78 1.246.596 2.5a7.68 7.68 0 0 1-.623 2.116c-.336.768-.74 1.66-1.341 2.513-.291.437-.607.89-.948 1.357-.344.463-.752.891-1.164 1.357-.812.947-1.811 1.806-2.88 2.71a30.313 30.313 0 0 1-7.88 4.455 30.317 30.317 0 0 1-8.866 1.818c-1.4.021-2.718.03-3.953-.15-.614-.079-1.204-.136-1.767-.26-.565-.126-1.101-.26-1.607-.398-1.015-.248-1.903-.656-2.662-1.014a7.636 7.636 0 0 1-1.86-1.187c-.963-.822-1.364-1.593-1.193-2.275.37-1.408 2.802-2.004 6.126-2.73.418-.097.85-.186 1.296-.27.447-.086.909-.224 1.382-.323.946-.178 1.937-.478 2.972-.71 2.061-.567 4.272-1.225 6.553-2.059 2.265-.868 4.364-1.827 6.29-2.754.934-.505 1.878-.928 2.708-1.417.421-.236.861-.435 1.255-.663.39-.23.775-.448 1.154-.648 2.983-1.637 5.208-2.786 6.412-1.968zm60.144-20.74c-.734 1.213-3.132 1.234-6.422.468-3.294-.772-7.496-2.3-11.983-4.3-4.489-1.994-8.438-4.094-11.217-6.025-2.77-1.93-4.36-3.726-3.95-5.082.405-1.341 2.774-1.977 6.306-1.738 3.526.234 8.2 1.385 13.01 3.52 4.805 2.143 8.79 4.847 11.325 7.308 2.541 2.465 3.653 4.65 2.93 5.848zm1.683 38.74c-.618 1.25-3.488 1.291-7.607.055-4.11-1.229-9.434-3.796-14.687-7.57-5.25-3.782-9.376-8.014-11.847-11.52-2.482-3.511-3.356-6.246-2.366-7.227 1.01-1.004 3.659-.108 7.22 1.887 3.563 2.003 8.08 5.064 12.952 8.576 4.88 3.503 9.217 6.811 12.25 9.556 3.022 2.74 4.714 4.966 4.085 6.243zM394.21-42.512c.027 1.446-2.906 2.7-7.363 4.198l-7.72 2.55c-2.86.99-5.97 2.085-9.195 3.34-3.216 1.283-6.237 2.602-9.003 3.83l-7.384 3.402c-4.282 1.944-7.28 3.026-8.249 1.952-.919-1.013.45-4.085 4.048-7.82a34.24 34.24 0 0 1 3.109-2.855c1.154-.99 2.48-1.919 3.888-2.887a55.73 55.73 0 0 1 9.85-5.117 55.706 55.706 0 0 1 10.692-2.976c1.691-.253 3.293-.479 4.815-.542a34.07 34.07 0 0 1 4.218-.033c5.18.277 8.276 1.59 8.294 2.958zm-48.58-28.972c2.093 1.889-2.4 10.269-10.033 18.718-7.632 8.45-15.513 13.766-17.605 11.877-2.091-1.89 2.4-10.27 10.033-18.719 7.633-8.449 15.514-13.766 17.606-11.876zm-41.806-44.199c1.099-.815 3.517.172 6.11 3.067 1.298 1.435 2.563 3.359 3.669 5.654a31.669 31.669 0 0 1 2.458 7.885c.477 2.904.516 5.73.26 8.256-.291 2.531-.856 4.763-1.612 6.544-1.5 3.584-3.462 5.31-4.768 4.9-1.379-.425-1.933-2.754-2.366-5.985-.203-1.62-.428-3.487-.656-5.514-.264-2.028-.55-4.215-.921-6.505-.4-2.285-.847-4.445-1.262-6.448a432.42 432.42 0 0 1-1.187-5.424c-.649-3.195-.889-5.578.275-6.43zm-6.362 47.662c1.35-.337 2.967.719 4.239 2.97 1.271 2.227 2.107 5.66 1.844 9.443-.27 3.78-1.577 7.065-3.148 9.092-1.574 2.05-3.323 2.87-4.613 2.346-1.32-.533-1.988-2.216-2.311-4.38-.314-2.18-.32-4.861-.107-7.774.198-2.915.579-5.568 1.194-7.683.623-2.097 1.522-3.671 2.902-4.014zm74.673-50.27c-.246 1.366-3.214 2.173-7.88 1.986-4.65-.179-10.974-1.445-17.525-4.07-6.546-2.637-11.99-6.1-15.471-9.188-3.496-3.092-5.083-5.729-4.313-6.886.788-1.19 3.735-.72 7.917.634 4.188 1.362 9.655 3.545 15.672 5.97 6.02 2.412 11.478 4.618 15.445 6.534 3.956 1.916 6.408 3.614 6.155 5.02zm-66.219-35.274c.943 2.655-5.108 7.227-13.516 10.212-8.407 2.984-15.987 3.252-16.93.596-.943-2.656 5.109-7.229 13.516-10.214 8.407-2.983 15.988-3.251 16.93-.594zm91.74 6.6c-.108 1.392-3.17 2.463-8.1 2.833-4.921.374-11.703-.014-19.014-1.481-7.308-1.475-13.712-3.743-18.105-5.991-4.403-2.248-6.814-4.42-6.373-5.746.447-1.349 3.626-1.612 8.387-1.182 4.767.432 11.133 1.507 18.105 2.913 6.975 1.4 13.26 2.873 17.822 4.318 4.557 1.448 7.386 2.919 7.277 4.336zm38.418-46.073c.392 1.333-1.564 3.281-5.282 5.05-3.7 1.769-9.188 3.267-15.381 3.642-6.195.365-11.82-.466-15.705-1.78-3.903-1.314-6.078-3.015-5.846-4.384.234-1.408 2.76-2.241 6.537-2.8 3.788-.552 8.84-.897 14.404-1.224 5.565-.34 10.621-.6 14.449-.503 3.815.102 6.422.63 6.824 2zm29.894-33.09c-.238 1.427-4.125 1.992-10.092 2.453l-10.382.767c-3.876.335-8.11.729-12.543 1.266-4.429.568-8.63 1.225-12.47 1.852l-10.252 1.803c-5.898 1.018-9.805 1.423-10.387.097-.553-1.25 2.411-4.041 8.091-6.939 1.42-.719 3-1.458 4.744-2.13 1.728-.723 3.625-1.34 5.63-1.98a84.45 84.45 0 0 1 13.382-2.83 84.538 84.538 0 0 1 13.667-.542c2.101.13 4.092.263 5.945.54 1.854.224 3.567.552 5.12.9 6.219 1.417 9.776 3.395 9.547 4.743zM471.4-23.066c-.778 1.201-4.022.565-8.715-1.023-4.7-1.599-10.898-4.08-17.751-6.758-6.858-2.665-13.1-5.032-17.641-7.034-4.531-2.005-7.35-3.733-7.11-5.144.23-1.366 3.539-2.15 8.76-1.88 5.21.26 12.308 1.675 19.697 4.55 7.386 2.883 13.57 6.644 17.582 9.976 4.027 3.335 5.933 6.152 5.178 7.313zm77.297 10.21c.603.36.738 1.351.38 2.939-.09.395-.21.83-.361 1.296-.165.455-.41.907-.666 1.409-.534.977-1.132 2.155-2.065 3.207a57.99 57.99 0 0 1-1.445 1.709c-.523.578-1.146 1.08-1.767 1.645-1.227 1.168-2.736 2.115-4.332 3.14a34.98 34.98 0 0 1-11.487 4.093c-4.306.65-8.506.433-12.192-.328-1.834-.479-3.561-.91-5.091-1.64-.766-.344-1.514-.63-2.191-1.016a58.813 58.813 0 0 1-1.902-1.176c-1.214-.713-2.149-1.646-2.96-2.41-.398-.396-.77-.75-1.07-1.132a14.688 14.688 0 0 1-.744-1.12c-.833-1.399-1.011-2.382-.551-2.912.462-.53 1.512-.58 2.903-.29.349.075.718.17 1.106.286l1.304.282c.922.198 1.86.556 2.994.725.552.111 1.117.237 1.696.376.582.13 1.222.171 1.85.281 1.246.263 2.63.29 4.036.445 2.854.112 5.965.029 9.209-.45 3.232-.551 6.217-1.437 8.895-2.43 1.287-.582 2.595-1.037 3.698-1.673.562-.3 1.159-.538 1.673-.842a42.072 42.072 0 0 1 1.493-.885c1.027-.513 1.808-1.144 2.624-1.616l1.15-.674c.333-.231.655-.436.963-.614 1.233-.707 2.246-.987 2.85-.625zm15.75-48.901c1.144.798.742 3.655-1.087 7.571-1.82 3.908-5.115 8.84-9.556 13.58-4.448 4.735-9.16 8.337-12.944 10.402-3.792 2.075-6.619 2.658-7.488 1.567-.886-1.111.313-3.666 2.743-7.004 2.438-3.341 6.076-7.51 10.246-11.948 4.162-4.444 8.09-8.339 11.27-10.985 3.178-2.638 5.65-3.997 6.815-3.183zM447.68-70.102c.65-1.225 4.871-.481 11.07 2.1 6.192 2.574 14.316 7.07 22.523 13.14 8.199 6.08 14.869 12.539 19.136 17.711 4.278 5.177 6.22 8.999 5.237 9.977-1.013 1.01-4.732-.975-10.107-4.651-5.38-3.687-12.48-9.006-20.341-14.835-7.868-5.82-15.026-11.06-20.12-15.13-5.087-4.07-8.069-7.048-7.398-8.312zm-33.646-9.864c.652.266 1.031 1.046 1.114 2.314a7.416 7.416 0 0 1-.171 2.21c-.175.825-.385 1.789-.812 2.749-.2.49-.422 1-.667 1.529-.25.525-.57 1.026-.887 1.567-.618 1.095-1.449 2.132-2.338 3.227a29.186 29.186 0 0 1-7.018 5.818 29.201 29.201 0 0 1-8.514 3.254c-1.392.238-2.703.45-3.962.452-.625.012-1.22.044-1.8.002a36.104 36.104 0 0 1-1.659-.169c-1.045-.1-1.988-.39-2.793-.643a7.438 7.438 0 0 1-2.008-.936c-1.065-.696-1.557-1.408-1.47-2.107.197-1.445 2.53-2.329 5.679-3.506.396-.154.806-.305 1.23-.447.424-.148.856-.354 1.302-.52.9-.307 1.821-.754 2.795-1.137 1.923-.871 3.972-1.863 6.053-3.054 2.06-1.228 3.93-2.526 5.634-3.773.811-.66 1.654-1.244 2.364-1.875.363-.308.755-.583 1.092-.88.333-.298.665-.582.994-.851 2.572-2.166 4.487-3.763 5.842-3.224zm-33.113-15.995c.119 1.385-2.398 2.923-6.727 3.952-4.313 1.032-10.44 1.46-17.11.664-6.667-.805-12.518-2.673-16.465-4.697-3.961-2.023-6.043-4.116-5.6-5.432.456-1.353 3.291-1.706 7.463-1.54 4.182.174 9.723.799 15.82 1.538 6.098.726 11.63 1.43 15.732 2.253 4.094.825 6.765 1.84 6.887 3.262zm67.502-26.263c.02 1.448-2.534 2.684-6.303 4.188-.945.38-1.972.756-3.055 1.208-1.093.397-2.23.903-3.433 1.366-2.385 1.005-4.963 2.12-7.622 3.402-2.644 1.31-5.107 2.66-7.365 3.926-1.104.666-2.202 1.253-3.187 1.872-1.02.577-1.949 1.156-2.829 1.668-3.502 2.052-6.044 3.31-7.176 2.403-1.069-.845-.445-3.833 2.222-7.65a25.9 25.9 0 0 1 2.384-2.937c.9-1.027 1.98-1.998 3.129-3.015a42.3 42.3 0 0 1 8.339-5.434 42.253 42.253 0 0 1 9.41-3.245c1.51-.283 2.937-.538 4.302-.619a25.762 25.762 0 0 1 3.781-.078c4.65.24 7.392 1.582 7.403 2.945zm7.965-41.91c.779 1.144-.621 3.699-3.9 6.623-1.632 1.466-3.747 2.977-6.234 4.424a51.695 51.695 0 0 1-8.508 3.858 51.673 51.673 0 0 1-9.076 2.217c-2.85.399-5.447.514-7.635.367-4.385-.276-7.065-1.424-7.158-2.803-.1-1.43 2.315-2.832 6.07-4.33 3.769-1.496 8.872-3.173 14.466-5.098 5.59-1.938 10.64-3.768 14.527-4.918 3.88-1.139 6.645-1.527 7.448-.34zm52.14-31.726c-.803 2.733-13.479 1.384-28.64-1.575-15.154-2.998-27.397-6.546-27.106-9.378.275-2.776 13.402-3.733 29.074-.636 15.678 3.065 27.468 8.917 26.671 11.59zm-2.2 34.533c1.144.739.736 3.892-1.708 8.113a27.536 27.536 0 0 1-2.225 3.282c-.847 1.156-1.885 2.269-2.992 3.438a44.77 44.77 0 0 1-8.196 6.464 44.792 44.792 0 0 1-9.516 4.296c-1.547.444-3.013.85-4.428 1.07-1.398.276-2.726.401-3.939.463-4.874.224-7.86-.868-7.989-2.222-.144-1.444 2.43-2.904 6.266-4.786.962-.475 2.01-.956 3.108-1.522 1.117-.51 2.268-1.142 3.493-1.734 2.42-1.27 5.031-2.683 7.706-4.287 2.656-1.635 5.112-3.3 7.353-4.863 1.091-.814 2.183-1.544 3.15-2.3 1.009-.715 1.92-1.423 2.783-2.056 3.438-2.539 5.92-4.15 7.135-3.356zm47.507-61.468c-.616 2.782-10.944 2.83-23.288 1.668-12.339-1.21-22.47-3.225-22.544-6.073-.017-1.399 2.567-2.726 6.832-3.563 4.257-.84 10.196-1.144 16.688-.523 6.49.627 12.264 2.057 16.284 3.69 4.028 1.635 6.311 3.43 6.028 4.8zm99.438 49.362c-1.192.842-5.022-2.552-10.837-8.005-.725-.682-1.484-1.397-2.273-2.142l-2.486-2.287c-1.68-1.607-3.557-3.236-5.476-4.997-3.91-3.449-8.247-7.16-12.938-10.893-4.717-3.7-9.334-7.06-13.593-10.066-2.157-1.458-4.176-2.909-6.13-4.172l-2.798-1.888-2.611-1.715c-6.65-4.395-10.84-7.337-10.295-8.69.5-1.261 5.73-.665 13.565 2.256.972.384 1.99.786 3.05 1.203 1.055.43 2.12.945 3.236 1.458 2.245 1.005 4.55 2.257 6.977 3.581 4.801 2.734 9.9 6.08 14.924 10.026 5 3.974 9.436 8.16 13.207 12.197 1.85 2.055 3.601 4.008 5.1 5.959.756.968 1.503 1.885 2.167 2.811l1.875 2.689c4.656 6.947 6.446 11.897 5.336 12.675zm-103.172-17.304c.397-1.328 4.905-1.359 11.845.09 3.468.718 7.524 1.845 11.946 3.344a140.651 140.651 0 0 1 14.056 5.734 140.2 140.2 0 0 1 13.336 7.254c3.96 2.473 7.398 4.902 10.15 7.132 5.514 4.456 8.342 7.967 7.567 9.115-.802 1.186-5.022-.181-11.323-2.953-6.306-2.779-14.746-6.884-24.101-11.328-9.361-4.43-17.882-8.367-24.024-11.49-6.135-3.125-9.864-5.526-9.452-6.898zm-32.604 9.757c.642 2.744-8.357 7.198-20.101 9.948-11.744 2.751-21.786 2.757-22.428.013-.642-2.743 8.357-7.198 20.101-9.948 11.743-2.752 21.785-2.757 22.428-.013zm-7.797 69.908c1.167.693.688 4.19-1.956 8.989a67.61 67.61 0 0 1-1.087 1.847c-.392.635-.853 1.252-1.318 1.907-.911 1.326-2.033 2.62-3.227 3.98a53.604 53.604 0 0 1-8.883 7.686 53.544 53.544 0 0 1-10.399 5.465c-1.701.614-3.315 1.188-4.882 1.554-.78.192-1.523.395-2.258.529-.736.13-1.441.242-2.115.339-5.432.71-8.864-.121-9.082-1.46-.246-1.434 2.609-3.121 6.922-5.426a61.078 61.078 0 0 1 1.691-.892c.589-.301 1.181-.66 1.805-.99 1.259-.64 2.551-1.42 3.93-2.169 2.721-1.587 5.652-3.366 8.639-5.379 2.965-2.046 5.69-4.126 8.16-6.08 1.2-1.01 2.4-1.928 3.454-2.865.535-.463 1.084-.884 1.58-1.32.494-.44.976-.857 1.448-1.25 3.72-3.175 6.332-5.217 7.578-4.465zm23.485 7.43c1.371-.17 3.019 2.337 4.117 6.745.557 2.2.926 4.863 1.057 7.84a53.797 53.797 0 0 1-.544 9.658c-.52 3.4-1.344 6.58-2.32 9.391-1 2.807-2.136 5.245-3.313 7.183-2.347 3.891-4.658 5.803-5.92 5.237-1.31-.581-1.374-3.455-.895-7.61.25-2.079.594-4.5 1.021-7.145l1.335-8.573 1.243-8.585c.371-2.654.752-5.07 1.125-7.131.764-4.112 1.67-6.839 3.094-7.01zm19.87-30.172c.165 2.813-7.302 5.54-16.679 6.09-9.375.551-17.11-1.284-17.276-4.096-.164-2.814 7.302-5.54 16.679-6.092 9.375-.549 17.111 1.284 17.276 4.098zm-48.963 54.702c1.22-.646 3.056-.035 4.722 1.977.834.994 1.57 2.332 2.115 3.916.52 1.586.837 3.418.82 5.345a16.741 16.741 0 0 1-.967 5.322c-.59 1.57-1.361 2.887-2.222 3.858-1.722 1.964-3.572 2.524-4.776 1.845-1.246-.7-1.739-2.368-1.999-4.33-.246-1.984-.287-4.305-.241-6.834.025-2.531.129-4.848.428-6.825.315-1.955.855-3.61 2.12-4.274zm64.276-38.779c.59-.384 1.447-.254 2.533.388.55.315 1.143.767 1.716 1.374.58.601 1.25 1.31 1.806 2.19.292.434.589.898.889 1.39.294.494.533 1.034.802 1.591.562 1.109.967 2.358 1.387 3.69a29.798 29.798 0 0 1 1.04 8.96 29.82 29.82 0 0 1-1.804 8.837c-.533 1.291-1.044 2.5-1.699 3.559-.316.531-.6 1.048-.936 1.514-.341.466-.676.903-1.004 1.31-.63.83-1.357 1.478-1.987 2.027a7.54 7.54 0 0 1-1.829 1.221c-1.137.547-2 .603-2.557.17-1.14-.905-.715-3.359-.072-6.665.076-.419.164-.849.264-1.285.096-.44.15-.915.244-1.383.21-.93.322-1.95.515-2.982.286-2.095.546-4.363.669-6.762.083-2.399.019-4.681-.088-6.793-.102-1.045-.126-2.07-.256-3.014-.054-.476-.067-.953-.124-1.399-.063-.445-.113-.88-.152-1.302-.359-3.352-.57-5.831.643-6.636zm61.46 38.156c.347 1.38-1.757 3.197-5.263 5.23-3.516 2.03-8.42 4.33-13.897 6.689-5.472 2.37-10.509 4.363-14.398 5.53-3.882 1.16-6.648 1.445-7.413.244-.752-1.173.681-3.64 3.836-6.512 3.142-2.867 8.043-6.084 13.93-8.63 5.89-2.54 11.59-3.901 15.834-4.223 4.251-.327 7.03.32 7.37 1.672zm4.556-35.337c-.461 2.77-10.37 3.431-22.036.987-11.669-2.432-20.484-7.003-19.797-9.725.69-2.744 10.44-2.65 21.883-.264 11.442 2.397 20.414 6.212 19.95 9.002zm-66.046-39.22c-.68 2.734-5.663 3.85-11.128 2.489-5.466-1.36-9.345-4.68-8.664-7.415.68-2.733 5.663-3.849 11.128-2.489 5.465 1.36 9.345 4.68 8.664 7.415zm138.47 73.227c-.591 1.306-4.201 1.023-9.593-.036a308.293 308.293 0 0 1-9.335-2.041l-11.283-2.58-11.306-2.479a305.097 305.097 0 0 1-9.313-2.135c-5.33-1.34-8.716-2.625-8.692-4.056.021-1.384 3.515-2.656 9.265-3.138 2.872-.246 6.296-.249 10.08.023 3.78.295 7.92.88 12.196 1.827a88.718 88.718 0 0 1 11.81 3.548c3.54 1.37 6.635 2.83 9.127 4.28 4.996 2.885 7.614 5.527 7.043 6.787zm-17.81-41.64c-.33 1.351-3.601 1.9-8.65 1.364-5.039-.528-11.832-2.22-18.903-5.21-7.066-3.001-13.004-6.708-16.888-9.961-3.895-3.255-5.777-5.989-5.036-7.165.759-1.21 3.957-.666 8.57.872 4.617 1.547 10.686 4.031 17.339 6.857 6.654 2.816 12.66 5.45 16.982 7.694 4.314 2.244 6.928 4.165 6.587 5.55zm-28.311-76.405c1.03-.947 3.56-.104 6.745 2.183 3.18 2.28 6.989 6.033 10.465 10.742 3.474 4.711 5.936 9.458 7.178 13.17 1.245 3.718 1.304 6.382.096 7.087-2.477 1.403-8.896-5.302-15.485-14.199-6.556-8.92-11.07-17.03-9-18.983zm51.536 5.314c.623-1.21 3.644-1.196 7.839.714 1.041.48 2.16 1.06 3.278 1.803 1.159.7 2.286 1.588 3.47 2.541a39.55 39.55 0 0 1 6.632 7.284 39.497 39.497 0 0 1 4.535 8.745c.483 1.44.928 2.805 1.182 4.134.31 1.307.467 2.558.557 3.7.34 4.598-.696 7.437-2.045 7.602-1.439.184-2.946-2.157-4.889-5.603-.49-.863-.988-1.805-1.568-2.788-.527-1.002-1.174-2.026-1.782-3.121-1.299-2.155-2.738-4.472-4.363-6.835-1.653-2.343-3.329-4.495-4.9-6.461-.817-.95-1.554-1.911-2.311-2.752-.722-.885-1.432-1.678-2.073-2.438-2.559-3.015-4.234-5.24-3.562-6.525zm1.143-25.265c-.027 2.819-9.458 5.008-21.06 4.893-11.605-.117-20.989-2.494-20.96-5.313.028-2.817 9.457-5.009 21.06-4.892 11.605.116 20.989 2.495 20.96 5.312zM727.66-89.085c.78-1.198 4.276-.394 9.385 1.483 5.115 1.885 11.891 4.77 19.385 7.902 7.498 3.12 14.315 5.906 19.253 8.215 4.929 2.31 7.96 4.228 7.656 5.626-.291 1.355-3.92 1.923-9.577 1.329-5.645-.585-13.292-2.433-21.262-5.75-7.964-3.33-14.657-7.464-19.047-11.063-4.401-3.601-6.55-6.58-5.793-7.742zm15.46-38.103c.965 1.011.4 3.348-1.534 6.224-1.923 2.872-5.254 6.235-9.547 9.098-4.296 2.86-8.683 4.638-12.073 5.307-3.399.677-5.774.298-6.336-.98-.573-1.301.724-3.239 3.08-5.46 2.368-2.224 5.779-4.77 9.671-7.36 3.888-2.596 7.552-4.76 10.514-6.09 2.959-1.319 5.246-1.768 6.226-.739zm-44.48-39.902c1.093-.88 3.423-.042 6.253 2.149 2.828 2.186 6.13 5.74 9.077 10.157 2.945 4.418 4.959 8.833 5.89 12.283.936 3.455.814 5.929-.418 6.6-2.51 1.326-8.355-4.844-13.962-13.22-5.58-8.394-9.029-16.161-6.84-17.97zm109.134 8.403c.442 2.768-8.374 6.474-19.78 7.508-11.404 1.05-20.747-.997-20.815-3.8-.07-2.831 8.855-5.346 19.887-6.363 11.032-.998 20.265-.143 20.708 2.655zm-346.31 45.227c1.207.695 1.42 2.948.463 6.015-.944 3.056-3.122 6.885-6.403 10.36-3.287 3.473-6.985 5.863-9.984 6.978-3.009 1.127-5.27 1.04-6.033-.124-.78-1.191.017-3.205 1.653-5.611 1.648-2.41 4.108-5.256 6.947-8.252 2.832-3.004 5.535-5.62 7.849-7.401 2.31-1.769 4.275-2.676 5.508-1.965zm311.689-99.494c-.207 1.412-2.625 2.313-6.25 2.951-3.634.636-8.484 1.072-13.829 1.459-5.344.4-10.205.68-13.893.584-3.68-.101-6.204-.64-6.613-2.006-.402-1.33 1.452-3.262 5.006-5.03 3.539-1.766 8.798-3.284 14.75-3.726 5.955-.434 11.379.295 15.139 1.527 3.774 1.226 5.892 2.866 5.69 4.241zm80.77 10.091c-.802 1.197-4.151.405-9.042-1.24a826.62 826.62 0 0 1-8.449-2.948c-3.158-1.08-6.606-2.257-10.252-3.412-3.656-1.13-7.16-2.13-10.371-3.042a824.714 824.714 0 0 1-8.622-2.394c-4.956-1.438-8.16-2.695-8.136-4.137.017-1.374 3.352-2.676 8.889-3.04 2.764-.192 6.056-.087 9.685.346a69.34 69.34 0 0 1 11.601 2.53 69.503 69.503 0 0 1 10.974 4.535c3.228 1.714 5.994 3.503 8.155 5.237 4.342 3.456 6.338 6.427 5.569 7.565zm21.979 12.268c.52.473.403 1.539-.332 3.13a17.81 17.81 0 0 1-.666 1.288c-.272.448-.614.888-.98 1.371-.748.945-1.601 2.07-2.75 3.064a75.985 75.985 0 0 1-1.789 1.609c-.637.543-1.364 1.013-2.097 1.541-1.454 1.09-3.162 1.973-4.968 2.923a44.465 44.465 0 0 1-12.636 3.8 44.49 44.49 0 0 1-13.193-.292c-1.993-.434-3.876-.83-5.567-1.493-.85-.313-1.673-.571-2.433-.926a79.124 79.124 0 0 1-2.154-1.07c-1.37-.655-2.493-1.51-3.467-2.223-.481-.368-.928-.701-1.31-1.058a17.58 17.58 0 0 1-.985-1.065c-1.133-1.339-1.53-2.334-1.155-2.93.377-.594 1.481-.744 3.061-.555.396.048.822.118 1.274.208.463.067.963.14 1.496.215 1.062.155 2.188.463 3.493.604.642.093 1.306.202 1.989.325.685.115 1.421.148 2.158.245 1.467.23 3.065.253 4.711.386 3.318.09 6.934-.004 10.707-.484 3.766-.544 7.277-1.418 10.45-2.39 1.551-.566 3.085-1.015 4.438-1.628.684-.29 1.385-.517 2.014-.81.625-.301 1.236-.585 1.83-.847 1.22-.48 2.223-1.08 3.205-1.511l1.385-.607c.412-.207.804-.388 1.172-.54 1.473-.604 2.577-.753 3.099-.28zm-16.692-24.407c1.329-2.485 8.506-1.237 16.028 2.787 7.524 4.026 12.544 9.303 11.216 11.787-1.33 2.485-8.506 1.237-16.03-2.787-7.521-4.025-12.543-9.302-11.214-11.787zm-60.228 21.237c1.054 2.613-7.288 8.445-18.635 13.026-11.345 4.582-21.398 6.178-22.453 3.565-1.056-2.614 7.287-8.446 18.633-13.028 11.347-4.58 21.4-6.176 22.455-3.563zm-187.746 4.02c-.756 1.207-3.59.9-7.594-.27-4.011-1.178-9.225-3.169-14.917-5.485-5.696-2.31-10.82-4.52-14.516-6.471-3.686-1.954-5.93-3.709-5.632-5.102.292-1.36 3.128-2.092 7.525-1.862 4.386.225 10.316 1.486 16.464 3.98 6.144 2.5 11.274 5.731 14.574 8.629 3.313 2.9 4.836 5.401 4.096 6.58zM859.301-62.86c.6.368.717 1.374.338 2.98a16 16 0 0 1-.378 1.312c-.173.46-.42.919-.678 1.425-.54.993-1.147 2.181-2.078 3.26-.446.561-.928 1.145-1.443 1.747-.521.591-1.142 1.113-1.761 1.697-1.22 1.2-2.722 2.204-4.31 3.284a37.07 37.07 0 0 1-11.491 4.583 37.102 37.102 0 0 1-12.37.328c-1.884-.366-3.66-.694-5.255-1.316-.8-.291-1.577-.526-2.289-.865a63.634 63.634 0 0 1-2.014-1.033c-1.282-.625-2.31-1.477-3.197-2.174-.438-.366-.846-.689-1.186-1.044-.33-.372-.619-.725-.865-1.055-.982-1.326-1.273-2.296-.867-2.87.407-.576 1.46-.716 2.907-.54.362.046.75.111 1.158.196l1.36.187c.963.13 1.963.418 3.142.513.578.074 1.172.162 1.78.265.613.09 1.275.094 1.933.164 1.309.182 2.74.133 4.204.203 2.959-.051 6.171-.305 9.5-.955 3.316-.718 6.368-1.754 9.107-2.874 1.317-.642 2.651-1.162 3.783-1.846.575-.325 1.183-.589 1.709-.915.519-.335 1.03-.65 1.531-.947 1.045-.553 1.852-1.211 2.685-1.71l1.175-.71c.342-.24.673-.451.987-.636 1.26-.734 2.284-1.023 2.883-.654zm21.339-24.046c-.17 1.444-3.14 2.277-7.441 3.436-4.316 1.14-10.006 2.807-15.886 5.534a79.475 79.475 0 0 0-8.067 4.324c-2.404 1.498-4.52 2.972-6.357 4.237-.461.31-1.03.771-1.687 1.178-.654.417-1.523.84-2.227.966-.73.158-1.451.14-2.037-.04a3.1 3.1 0 0 1-1.366-.88c-.665-.741-.788-1.616-.545-2.267.243-.66.524-1.23.525-1.75.02-.152-.14-.207-.214-.122-.084.083.04.29.31.348a.814.814 0 0 0 .478-.042c.18-.073.362-.24.498-.436.171-.22.149-.368.294-.654.146-.293.33-.675.69-1.22 1.417-2.168 3.415-4.567 6.006-6.85 2.6-2.26 5.794-4.378 9.408-6.052 7.25-3.371 14.645-4.156 19.757-3.479 5.166.658 8.031 2.426 7.86 3.769zM777.658-97.01c.814-1.176 3.795-.59 8.049.842 4.257 1.448 9.826 3.698 16.001 6.061 3.097 1.176 6.044 2.296 8.738 3.317 1.403.54 2.485.977 3.576 1.341 1.072.364 2.047.647 2.912.855 1.745.424 2.992.526 4.087.516 1.084-.004 2.009-.144 2.576.307.524.403.673 1.5-.33 2.97-.494.734-1.307 1.453-2.368 2.083-1.064.62-2.358 1.065-3.768 1.336-1.41.27-2.93.355-4.5.28-1.552-.062-3.245-.339-4.733-.636a59.496 59.496 0 0 1-9.843-2.84c-6.808-2.604-12.439-6.182-16.01-9.372-3.594-3.19-5.177-5.922-4.387-7.06zm25.478-31.78c1.32 2.49-8.498 10.28-21.929 17.4-13.431 7.12-25.388 10.874-26.71 8.384-1.319-2.49 8.5-10.28 21.93-17.4 13.431-7.12 25.39-10.874 26.709-8.384zm29.287-20.576c.659-.25 1.503.185 2.498 1.293.248.276.506.595.77.953.249.363.466.775.704 1.224.455.9 1.002 1.951 1.33 3.176.184.61.367 1.256.547 1.935.17.681.248 1.396.366 2.142.265 1.496.27 3.102.278 4.806a34.556 34.556 0 0 1-2.187 10.787 34.568 34.568 0 0 1-5.62 9.463c-1.15 1.257-2.232 2.443-3.432 3.375-.589.475-1.127.951-1.71 1.34-.59.385-1.158.742-1.705 1.068-1.064.689-2.175 1.101-3.117 1.463-.478.17-.914.334-1.343.435-.437.088-.841.15-1.21.188-1.482.153-2.4-.091-2.72-.719-.66-1.323 1.246-3.558 3.702-6.852.301-.421.622-.85.96-1.283.334-.438.626-.948.967-1.425.705-.938 1.31-2.052 2.016-3.14 1.296-2.275 2.587-4.804 3.69-7.584 1.05-2.801 1.79-5.542 2.356-8.098.209-1.281.507-2.512.613-3.68.07-.584.194-1.158.243-1.707.038-.549.088-1.08.147-1.596.393-4.09.48-7.025 1.857-7.564zm59.042 24.875c.803 2.7-7.703 7.614-19 10.972-11.297 3.36-21.106 3.893-21.91 1.192-.803-2.7 7.704-7.614 19.002-10.972 11.296-3.36 21.106-3.893 21.908-1.192zm-4.96-52.512c1.166.768.955 3.453-.582 7.126-1.53 3.668-4.435 8.288-8.457 12.698-4.027 4.405-8.364 7.72-11.878 9.576-3.518 1.863-6.173 2.317-7.044 1.227-.889-1.111.132-3.527 2.272-6.639 2.146-3.116 5.38-6.964 9.113-11.045 3.726-4.086 7.264-7.657 10.171-10.078 2.904-2.413 5.22-3.65 6.406-2.865zM-74.147-37.868c1.433-2.426 10.095.034 19.348 5.496 9.254 5.461 15.594 11.857 14.16 14.284-1.432 2.426-10.094-.033-19.347-5.496-9.254-5.462-15.594-11.858-14.161-14.284zm241.173-160.117c.836 1.115.62 2.911-.735 4.81-1.338 1.891-3.86 3.811-7.069 4.872-3.212 1.059-6.38 1.016-8.581.292-2.221-.718-3.461-2.034-3.455-3.428.004-1.421 1.147-2.671 2.754-3.754 1.624-1.08 3.718-2.026 6.084-2.8 2.362-.786 4.608-1.272 6.556-1.372 1.935-.086 3.598.24 4.446 1.38zm175.063-44.96c.57 1.276-.613 3.228-3.186 5.2-2.559 1.968-6.53 3.902-11.197 5.041-4.67 1.134-9.084 1.24-12.262.669-3.19-.57-5.138-1.76-5.22-3.154-.083-1.417 1.658-2.775 4.397-4.016 2.748-1.238 6.492-2.4 10.671-3.415 4.177-1.02 8.038-1.708 11.048-1.87 3.002-.158 5.172.247 5.75 1.545zM222.362-54.102c.93 1.073.443 3.153-.84 5.706-1.294 2.559-3.356 5.629-5.814 8.853-2.45 3.229-4.859 6.035-6.98 7.965-2.118 1.92-3.99 2.944-5.274 2.335-1.26-.598-1.67-2.779-1.034-5.84.629-3.05 2.362-6.947 5.166-10.638 2.807-3.687 6.1-6.398 8.872-7.818 2.78-1.432 4.992-1.62 5.904-.563zm402.96-118.333c1.785-2.18 6.766-1.055 11.125 2.514 4.358 3.569 6.445 8.23 4.66 10.409-1.786 2.18-6.766 1.054-11.125-2.514-4.36-3.569-6.445-8.228-4.66-10.409zm-7.718 32.45c-.07 2.817-8.514 4.894-18.862 4.637-10.347-.256-18.68-2.747-18.61-5.565.07-2.817 8.515-4.893 18.863-4.637 10.348.257 18.68 2.75 18.61 5.566z"/><path d="M-60 42.682c26.625 85.616 91.833 114.155 195.625 85.616C291.313 85.49 224.765-42.934 374.75 42.682c149.984 85.616 197.188 61.591 246.797 0 49.61-61.59 162.765 33.76 229.11 33.76 66.343 0 45.046-55.097 147.952-62.216 102.907-7.12 107.86 62.215 209.875 62.215 102.016 0 111.594-62.215 188.157-62.215 76.562 0 164.984 95.804 212.046 62.13 31.376-22.45 31.376-89.568 0-201.356L-60-60.804V42.682z"/></g></g></svg>