<?xml version="1.0" encoding="UTF-8"?> <svg x="721" preserveAspectRatio="xMidYMin slice" viewBox="0 0 250 300" xmlns="http://www.w3.org/2000/svg"><style type="text/css">@keyframes fadeOut{0%{opacity:0}20%,60%{opacity:1}100%{opacity:0}}@keyframes backInPlace{100%{transform:translate(0,0)}}@keyframes water-lines{100%{stroke-dashoffset:-10}}@keyframes scaleUp{50%{transform:scale(1.2)}}@keyframes brush-motion{0%{transform:translate(-3px,1px)}50%{transform:translate(3px,-1px)}100%{transform:translate(-3px, 1px)}}@keyframes leftOtterArm{0%{transform:rotate(15deg)}50%{transform:rotate(-15deg)}100%{transform:rotate(15deg)}}</style><g fill="#FEFEFE"> <circle cx="100" cy="110" r="5" style="animation:backInPlace 5.7s ease-out 0.2s infinite both, fadeOut 5.7s linear 0.2s infinite both;transform:translate(21px, 117px)"/> <circle cx="150" cy="104" r="3.5" style="animation:backInPlace 5.7s ease-out 0.2s infinite both, fadeOut 5.7s linear 0.2s infinite both;transform:translate(18px, 60px)"/> <circle cx="194" cy="154" r="5" style="animation:backInPlace 5.1s ease-out 0.1s infinite both, fadeOut 5.1s linear 0.1s infinite both;transform:translate(-21px, 57px)"/> <circle cx="170" cy="144" r="5.5" style="animation:backInPlace 6.1s ease-out 0.1s infinite both, fadeOut 6.1s linear 0.1s infinite both;transform:translate(-21px, 57px)"/> <circle cx="180" cy="130" r="3" style="animation:backInPlace 5.6s ease-out 0.1s infinite both, fadeOut 5.6s linear 0.1s infinite both;transform:translate(-41px, 57px)"/> <circle cx="5" cy="186" r="4" style="animation:backInPlace 5.7s ease-out 0.2s infinite both, fadeOut 5.7s linear 0.2s infinite both;transform:translate(121px, 47px)"/> <circle cx="70" cy="184" r="5" style="animation:backInPlace 5.6s ease-out 1.2s infinite both, fadeOut 5.6s linear 1.2s infinite both;transform:translate(80px, 47px)"/> <circle cx="80" cy="180" r="4" style="animation:backInPlace 5.6s ease-out 0.1s infinite both, fadeOut 5.6s linear 0.1s infinite both;transform:translate(30px, 40px)"/> <circle cx="105" cy="210" r="3.8" style="animation:backInPlace 5.2s ease-out 1.1s infinite both, fadeOut 5.2s linear 1.1s infinite both;transform:translate(20px, 30px)"/> <circle cx="210" cy="200" r="5" style="animation:backInPlace 5.5s ease-out 1.2s infinite both, fadeOut 5.5s linear 1.2s infinite both;transform:translate(-40px, 25px)"/> <circle cx="237" cy="214" r="4" style="animation:backInPlace 5.1s ease-out 1.2s infinite both, fadeOut 5.1s linear 1.2s infinite both;transform:translate(-90px, 25px)"/> <circle cx="172" cy="254" r="4" style="animation:backInPlace 5.6s ease-out 1.2s infinite both, fadeOut 5.6s linear 1.2s infinite both;transform:translate(-10px, -20px)"/> <circle cx="122" cy="267" r="5" style="animation:backInPlace 5.8s ease-out 0.1s infinite both, fadeOut 5.8s linear 0.1s infinite both;transform:translate(15px, -25px)"/> <circle cx="112" cy="259" r="4" style="animation:backInPlace 5.4s ease-out 1.1s infinite both, fadeOut 5.4s linear 1.1s infinite both;transform:translate(15px, -25px)"/> <circle cx="18" cy="134" r="4" style="animation:backInPlace 5.6s ease-out 0.2s infinite both, fadeOut 5.6s linear 0.2s infinite both;transform:translate(100px, 90px)"/> </g> <g fill="#fefefe"> <path d="m71.79 229.82c0-2.64 2.14-4.78 4.78-4.78s4.77 2.14 4.77 4.79c0 2.64-2.14 4.78-4.78 4.78s-4.77-2.15-4.77-4.79" style="animation:scaleUp 2.4s linear -0.8s infinite both;transform-origin:77px 230px"/> <path d="m112.26 241.62c0-2.64 2.14-4.78 4.78-4.78s4.77 2.14 4.77 4.79c0 2.64-2.14 4.78-4.78 4.78s-4.77-2.15-4.77-4.79" style="animation:scaleUp 2.3s linear -0.7s infinite both;transform-origin:117.032px 242px"/> <path d="m88.82 239.03c0-2.64 2.14-4.78 4.78-4.78s4.77 2.14 4.77 4.79c0 2.64-2.14 4.78-4.78 4.78s-4.77-2.15-4.77-4.79" style="animation:scaleUp 2.4s linear -0.5s infinite both;transform-origin:93.5927px 239.031px"/> <path d="m132.21 249.69c0-2.64 2.14-4.78 4.78-4.78s4.77 2.15 4.77 4.79-2.14 4.78-4.78 4.78-4.77-2.15-4.77-4.79" style="animation:scaleUp 2.3s linear -0.2s infinite both;transform-origin:136.983px 249.695px"/> <path d="m104.01 240.49c0-2.64 2.14-4.78 4.78-4.78s4.77 2.15 4.77 4.79-2.14 4.78-4.78 4.78-4.77-2.15-4.77-4.79" style="animation:;transform-origin:163.367px 239.454px"/> <path d="m154.34 245.71c0-2.05 1.67-3.72 3.72-3.72s3.71 1.67 3.71 3.72-1.67 3.72-3.72 3.71c-2.05 0-3.71-1.67-3.71-3.72" style="animation:scaleUp 2.8s linear -0.7s infinite both;transform-origin:158.05px 245.716px"/> <path d="m138.21 253.76c0-2.05 1.67-3.72 3.72-3.71 2.05 0 3.71 1.67 3.71 3.72s-1.67 3.72-3.72 3.71c-2.05 0-3.71-1.67-3.71-3.72" style="animation:scaleUp 2.3s linear -0.1s infinite both;transform-origin:141.926px 253.768px"/> <path d="m164.61 232.01c0-4.32 3.51-7.82 7.82-7.81 4.31 0 7.81 3.51 7.8 7.83s-3.51 7.82-7.82 7.81c-4.32 0-7.81-3.51-7.8-7.83" style="animation:scaleUp 2.8s linear -0.7s infinite both;transform-origin:172.426px 232.021px"/> <path d="m119.55 244.44c0-4.32 3.51-7.82 7.82-7.81 4.31 0 7.81 3.51 7.8 7.83 0 4.32-3.51 7.82-7.82 7.81-4.31 0-7.81-3.51-7.8-7.83" style="animation:scaleUp 2.3s linear -0.4s infinite both;transform-origin:127.36px 244.444px"/> <path d="m93.55 242.94c0-4.32 3.51-7.82 7.82-7.81 4.31 0 7.81 3.51 7.8 7.83s-3.51 7.82-7.82 7.81c-4.31 0-7.81-3.51-7.8-7.83" style="animation:scaleUp 2.5s linear -0.4s infinite both;transform-origin:101.356px 242.948px"/> <path d="m130.18 239.68c.01-4.32 3.51-7.82 7.82-7.81 4.31 0 7.81 3.51 7.8 7.83 0 4.32-3.51 7.82-7.82 7.81s-7.81-3.51-7.8-7.83" style="animation:scaleUp 2.7s linear -0.3s infinite both;transform-origin:137.987px 239.687px"/> <path d="m152.45 232c0-4.32 3.51-7.82 7.82-7.81 4.31 0 7.81 3.51 7.8 7.83s-3.51 7.82-7.82 7.81c-4.32 0-7.81-3.51-7.8-7.83" style="animation:scaleUp 2.8s linear -0.8s infinite both;transform-origin:160.264px 232.008px"/> <path d="m88.85 231.93c0-4.32 17.74-7.8 39.62-7.78s39.61 3.55 39.6 7.86c-.01 4.32-17.74 7.8-39.62 7.78s-39.61-3.55-39.6-7.87" style="animation:scaleUp 2.7s linear -0.7s infinite both;transform-origin:128.461px 231.974px"/> <path d="m144.75 238.96c0-4.32 3.51-7.82 7.82-7.81 4.31 0 7.81 3.51 7.8 7.83 0 4.32-3.51 7.82-7.82 7.81-4.31 0-7.81-3.51-7.8-7.83" style="animation:scaleUp 2.6s linear -0.3s infinite both;transform-origin:152.564px 238.969px"/> <path d="m140.35 245.93c0-4.32 3.51-7.82 7.82-7.81 4.31 0 7.81 3.51 7.8 7.83 0 4.32-3.51 7.82-7.82 7.81-4.31 0-7.81-3.51-7.8-7.83" style="animation:scaleUp 2.3s linear -0.3s infinite both;transform-origin:148.162px 245.934px"/> <path d="m79.27 231.92c0-4.32 3.51-7.82 7.82-7.81 4.31 0 7.81 3.51 7.8 7.83 0 4.32-3.51 7.82-7.82 7.81-4.32 0-7.81-3.51-7.8-7.83" style="animation:scaleUp 2.8s linear -0.6s infinite both;transform-origin:87.0821px 231.928px"/> <path d="m105.14 230.18c0 2.65-2.15 4.79-4.79 4.79s-4.78-2.15-4.78-4.8 2.15-4.79 4.79-4.79 4.79 2.15 4.78 4.8" style="animation:scaleUp 2.4s linear -0.2s infinite both;transform-origin:100.348px 230.179px"/> <path d="m213.09 230.3c0 2.65-2.15 4.79-4.79 4.79s-4.78-2.15-4.78-4.8 2.15-4.79 4.79-4.79 4.79 2.15 4.78 4.8" style="animation:;transform-origin:208.304px 230.296px"/> <path d="m172.53 218.47c0 2.65-2.15 4.79-4.79 4.79s-4.78-2.15-4.78-4.8 2.15-4.79 4.79-4.79 4.78 2.15 4.78 4.8" style="animation:scaleUp 2.6s linear -0.8s infinite both;transform-origin:167.739px 218.465px"/> <path d="m196.02 221.07c0 2.65-2.15 4.79-4.79 4.79s-4.78-2.15-4.78-4.8 2.15-4.79 4.79-4.79 4.78 2.15 4.78 4.8" style="animation:scaleUp 2.6s linear -0.7s infinite both;transform-origin:191.237px 221.065px"/> <path d="m152.52 210.38c0 2.65-2.15 4.79-4.79 4.79s-4.78-2.15-4.78-4.8 2.15-4.79 4.79-4.79 4.78 2.15 4.78 4.8" style="animation:scaleUp 2.4s linear -0.4s infinite both;transform-origin:147.738px 210.373px"/> <path d="m126.08 220.65c0 2.65-2.15 4.79-4.79 4.79s-4.78-2.15-4.78-4.8 2.15-4.79 4.79-4.79 4.78 2.15 4.78 4.8" style="animation:scaleUp 2.4s linear -0.8s infinite both;transform-origin:121.289px 220.641px"/> <path d="m180.79 219.6c0 2.65-2.15 4.79-4.79 4.79s-4.78-2.15-4.78-4.8 2.15-4.79 4.79-4.79 4.78 2.15 4.78 4.8" style="animation:scaleUp 2.4s linear -0.2s infinite both;transform-origin:176.002px 219.597px"/> <path d="m130.34 214.37c0 2.06-1.67 3.73-3.73 3.72-2.06 0-3.72-1.67-3.72-3.73s1.67-3.73 3.73-3.72c2.06 0 3.72 1.67 3.72 3.73" style="animation:scaleUp 2.3s linear -0.8s infinite both;transform-origin:126.616px 214.362px"/> <path d="m146.5 206.29c0 2.06-1.67 3.73-3.73 3.72-2.06 0-3.72-1.67-3.72-3.73s1.67-3.73 3.73-3.72c2.06 0 3.72 1.67 3.72 3.73" style="animation:scaleUp 2.6s linear -0.7s infinite both;transform-origin:142.782px 206.289px"/> <path d="m120.04 228.1c0 4.33-3.51 7.84-7.84 7.83-4.32 0-7.83-3.52-7.82-7.85 0-4.33 3.51-7.84 7.84-7.83 4.32 0 7.83 3.52 7.82 7.85" style="animation:scaleUp 2.4s linear -0.8s infinite both;transform-origin:112.206px 228.092px"/> <path d="m165.22 215.65c0 4.33-3.51 7.84-7.84 7.83-4.32-.01-7.83-3.52-7.82-7.85 0-4.33 3.51-7.84 7.84-7.83 4.32 0 7.83 3.52 7.82 7.85" style="animation:scaleUp 2.7s linear -0.7s infinite both;transform-origin:157.385px 215.638px"/> <path d="m191.28 217.15c0 4.33-3.51 7.84-7.84 7.83-4.32 0-7.83-3.52-7.82-7.85 0-4.33 3.51-7.84 7.84-7.83 4.32.01 7.83 3.52 7.82 7.85" style="animation:scaleUp 2.5s linear -0.4s infinite both;transform-origin:183.454px 217.136px"/> <path d="m154.56 220.42c0 4.33-3.51 7.84-7.84 7.83-4.32 0-7.83-3.52-7.82-7.85 0-4.33 3.51-7.84 7.84-7.83 4.32 0 7.83 3.52 7.82 7.85" style="animation:scaleUp 2.8s linear -0.7s infinite both;transform-origin:146.731px 220.407px"/> <path d="m132.23 228.11c0 4.33-3.51 7.84-7.84 7.83-4.32 0-7.83-3.52-7.82-7.85 0-4.33 3.51-7.84 7.84-7.83s7.83 3.52 7.82 7.85" style="animation:scaleUp 2.5s linear -0.1s infinite both;transform-origin:124.398px 228.104px"/> <path d="m195.99 228.18c0 4.33-17.79 7.82-39.72 7.8s-39.71-3.55-39.71-7.89c0-4.33 17.79-7.82 39.72-7.8s39.71 3.55 39.7 7.89" style="animation:scaleUp 2.5s linear -0.5s infinite both;transform-origin:156.281px 228.139px"/> <path d="m139.95 221.14c0 4.33-3.51 7.84-7.84 7.83-4.32-.01-7.83-3.52-7.82-7.85s3.51-7.84 7.84-7.83c4.32 0 7.83 3.52 7.82 7.85" style="animation:scaleUp 2.7s linear -0.1s infinite both;transform-origin:132.117px 221.127px"/> <path d="m144.36 214.15c0 4.33-3.51 7.84-7.84 7.83-4.32 0-7.83-3.52-7.82-7.85 0-4.33 3.51-7.84 7.84-7.83 4.33 0 7.83 3.52 7.82 7.85" style="animation:scaleUp 2.5s linear -0.2s infinite both;transform-origin:136.531px 214.144px"/> <path d="m205.59 228.19c0 4.33-3.51 7.84-7.84 7.83-4.32 0-7.83-3.52-7.82-7.85 0-4.33 3.51-7.84 7.84-7.83 4.32.01 7.83 3.52 7.82 7.85" style="animation:scaleUp 2.4s linear -0.3s infinite both;transform-origin:197.763px 228.184px"/> </g> <path d="m122.28 212.42s-2.93 8.24-8.56 10.12c-5.74 1.92-10.58 1.8-14.2 1.8-2.38 0-2.42 2.72 0 2.72 2.11 0 9.97.31 15.71-1.8s8.92-7.7 8.92-7.7z" fill="#e04230"/> <path d="m125.02 166.59c0 1.48-.99 2.67-2.22 2.67-1.22 0-2.21-1.2-2.21-2.68s.99-2.67 2.22-2.67c1.22 0 2.21 1.2 2.21 2.68" fill="#1f1646"/> <path d="m144.05 166.61c0 1.48-.99 2.67-2.22 2.67-1.22 0-2.21-1.2-2.21-2.68s.99-2.67 2.22-2.67c1.22 0 2.21 1.2 2.21 2.68" fill="#1f1646"/> <path d="m143.11 167.87c0 4.62-10.48 8.36-10.48 8.36s-10.47-3.76-10.46-8.38 4.7-8.37 10.48-8.36 10.47 3.76 10.46 8.38" fill="#df4e38"/> <path d="m123.87 171.08s3.82 3.03 3.82 9.08-6.06 18.95-6.08 32.26c-.01 13.31 21.94 13.44 21.95.02.01-13.41-6.22-26.73-6.21-32.28 0-5.55 4.04-8.87 4.04-8.87l-17.52-.22z" fill="#df4e38"/> <path d="m140.32 167.98c.23-2.12-.68-4-2.37-4.43-1.7-.43-3.74.29-3.82 2.27-.08 2.04.64 2.99.64 2.99l-4.15.18s.87-1.06.65-3.1c-.2-1.79-2.16-2.9-3.85-2.33-1.7.58-2.39 2.45-2.44 4.08-.1 3.28 3.22 5.27 4.62 8.9.73 1.89.58 4.88.26 7.32-1.23 5.98-2.43 15.92-2.44 21.1-.01 9.69 2.64 11.19 5.17 11.19s5.19-1.49 5.2-11.18c.01-5.3-1.23-15.62-2.48-21.52-.42-9.6 4.59-11.48 5.02-15.48" fill="#f1ebe4"/> <path d="m166.69 223.36v4.13l14.55.02s-1.1-1.61-3.72-1.72c-2.62-.1-7.35-.01-7.55-1.22s3.43-4.23 3.43-4.23l-6.54.04-.16 2.98z" fill="#e04230"/> <path d="m187.58 191.11s1.41 3.93 2.21 5.55c.81 1.61 1.91 5.55.3 5.75s-.7-2.42-1.71-4.64c-1-2.22-2.11-3.03-2.11-3.03z" fill="#e04230"/> <path d="m174.63 212.48s2.91 8.24 8.54 10.14c5.74 1.94 10.57 1.83 14.2 1.83 2.38 0 2.41 2.73 0 2.72-2.11 0-9.97.29-15.71-1.83s-8.9-7.72-8.9-7.72l1.88-5.14z" fill="#e04230"/> <path d="m191.5 176.13c-.12-2.52-.71-4.89-2.17-6.68-1.81-2.21-4.74-2.92-7.46-3.04-8.46-.39-12.32 4.11-12.32 9.12 0 4.52 7.23 7.15 8.05 8.58s-2.58 8.71-12.69 11.91c-12.51 3.96-13.88 9.22-13.89 14.87s6.61 12.65 15.07 12.66c0 0 10.59.51 17.54-15.51 3.02-6.96 5.53-14.23 6.82-21.73.49-2.86 1.23-6.67 1.06-10.19" fill="#df4e38"/> <path d="m136.9 188.34s-1.41 3.93-2.22 5.54-1.92 5.54-.31 5.75c1.61.2.71-2.42 1.72-4.64s2.12-3.02 2.12-3.02z" fill="#df4e38"/> <path d="m128.45 166.04c0 .45-.36.81-.81.81s-.81-.36-.81-.81.36-.81.81-.81c.44 0 .8.36.8.81" fill="#1f1646"/> <path d="m138.57 166.05c0 .45-.36.81-.81.81s-.81-.36-.81-.81.36-.81.81-.81c.44 0 .8.36.8.81" fill="#1f1646"/> <path d="m134.93 168.92c0 .61-.99 1.71-2.22 1.71-1.22 0-2.21-1.1-2.21-1.72 0-.61.99-1.11 2.22-1.11 1.22 0 2.21.5 2.21 1.11" fill="#1f1646"/> <path d="m132.71 172.45c-1.11 0-2.14-.53-2.68-1.38l.05-.21.21.05c.48.77 1.41 1.24 2.42 1.24s1.94-.47 2.42-1.24l.21-.05.05.21c-.54.85-1.57 1.38-2.68 1.38" fill="#1f1646"/> <path d="m132.36 223.02c0-.25.2-.45.45-.45s.45.2.45.45v4.13l14.55.01s-1.11-1.61-3.72-1.72c-2.62-.1-7.35-.01-7.55-1.22s3.43-4.23 3.43-4.23l-14.6.09s3.12 2.42 3.42 3.94c.3 1.51-5.49 1.05-7.45 1.4s-2.92 1.71-2.92 1.71l13.95.02v-4.13z" fill="#df4e38"/> <path d="m185.27 183.85c-1.8-1.87-3.95-5.48-1.57-7.88s.92-5.52-1.24-5.94c-2.15-.42-5.14 1.66-5.78 5.4-.49.79-3.28-1.18-3.28-1.18s2.39-.18 2.53-2.15c.19-2.68-2.83-2.84-4.44-.37-1.47 2.24-1.45 5.66 1.91 7.97 1.97 1.36 4.29 2.09 6.26 3.45 1.77 1.22 3.98 3.76 3.26 6.07-.94 3.02-3.4 6.52-5.21 8.94-4.77 6.36-9.17 7.35-13.41 11.18-4.23 3.83-1.72 11.39 2.71 11.4 4.23 0 10.76-4.31 15.32-14.71 2.88-6.55 4.51-12.24 4.93-15.93.68-4.17-.31-4.51-1.99-6.25" fill="#f1ebe4"/> <path d="m176.71 175.27c0 .61-.99 1.71-2.22 1.71-1.22 0-2.21-1.11-2.21-1.72s.99-1.11 2.22-1.11c1.22 0 2.21.5 2.21 1.11" fill="#1f1646"/> <path d="m174.41 178.63c-1.11 0-2.14-.53-2.68-1.38l.05-.21.21.05c.48.77 1.41 1.24 2.42 1.24s1.94-.47 2.42-1.24l.21-.05.05.21c-.54.85-1.57 1.38-2.68 1.38" fill="#1f1646"/> <path d="m182.75 172.28c-.04.44-.43.77-.87.73s-.77-.43-.73-.87.43-.77.87-.73.77.43.73.87" fill="#1f1646"/> <path d="m174.81 171.89c-.04.4-.39.7-.79.66-.4-.03-.7-.39-.66-.79.03-.4.39-.7.79-.66s.7.39.66.79" fill="#1f1646"/> <path d="m179.33 189.69s1.57 3.38 2.47 5.18c.9 1.81 2.13 7.89.33 8.12-1.8.22-.79-2.71-1.91-5.19s-2.36-3.05-2.36-3.05l1.47-5.07z" fill="#df4e38"/> <path d="m159 221.13s6.2-2.11 6.2-6.95-3.32-6.86-3.32-6.86l-5.54 4.63z" fill="#df4e38"/> <path d="m188.04 171.1c2.32-.9 3.77.72 3.77 2.5s-1.91 4.66-4.55 3.67l.79-6.17z" fill="#1f1646"/> <path d="m188.05 170.71s-.06 1.72.75 2.88c-.44 0-.82-.39-.82-.39s-.25 2.05.37 2.77c-.56-.11-.75-.45-.75-.45s.45 2.58.83 3.03c-.5.06-.96-.75-.96-.75s0 1.55.25 2.05c-.56-.17-.75-.44-.75-.44s0 1.22.25 1.61-1 .44-1-.17.76-9.48 1.83-10.15" fill="#df4e38"/> <path d="m153.71 213.38 8.05 7.35s-5.58 2.41-5.88 3.93c-.3 1.51 5.49 1.06 7.45 1.42 1.96.35 2.92 1.72 2.92 1.72l-13.95-.01s2.61-7.9.46-11.61.94-2.79.94-2.79" fill="#df4e38"/> <path d="m152.9 203.43c.95 1.61.43 3.68-1.17 4.64-1.6.95-3.68.43-4.63-1.18s-.43-3.68 1.17-4.64c1.6-.95 3.68-.43 4.63 1.18" fill="#fefefe" animation="scaleUp 2.5s linear -0.5s infinite both" transform-origin="149.994px 205.161px 0px"/> <g style="animation:brush-motion 3s ease-in-out both infinite"> <path d="m123.32 199.86c-0.58375-1.013-0.23817-2.3084 0.77428-2.893l27.47-15.877c1.0125-0.58459 2.3051-0.23851 2.8888 0.7754 0.58375 1.013 0.23724 2.3075-0.77522 2.893l-27.469 15.877c-1.0115 0.58459-2.306 0.23758-2.8889-0.7754" fill="#70C7B3"/> <path d="m141.08 190.27l-0.42777-0.74173c-1.2955-2.2458-0.5193-5.1435 1.7232-6.4398l10.161-5.873c2.2416-1.2964 5.136-0.51912 6.4287 1.7266l0.4287 0.74266c1.2945 2.2448 0.51837 5.1435-1.7232 6.4389l-10.161 5.873c-2.2425 1.2955-5.136 0.51912-6.4296-1.7266" fill="#70C7B3"/> <path d="m123.78 200.65c-0.58375-1.0139-0.23817-2.3094 0.77428-2.893l27.47-15.878c1.0125-0.58459 2.3051-0.23758 2.8889 0.7754 0.58375 1.013 0.23724 2.3084-0.77428 2.893l-27.47 15.877c-1.0115 0.58459-2.306 0.23758-2.8889-0.77446" fill="#B2DFE0"/> <path d="m119 209.48c-0.39788 0-0.78923-0.067344-1.1675-0.2039-1.1572-0.41903-1.9707-1.4301-2.0725-2.5787-0.11395-1.2786 0.64819-2.4899 2.0903-3.3223l5.6236-3.2522 0.6043 1.0485-5.6245 3.2513c-1.0321 0.59675-1.5616 1.3675-1.4907 2.1691 0.06071 0.68093 0.5632 1.287 1.2796 1.5452 1.0022 0.36291 2.1482-0.009353 3.1485-1.0195 3.4661-3.5029 4.2347-7.3453 4.2422-7.3836l1.1862 0.22729c-0.03269 0.1721-0.84714 4.2455-4.57 8.0084-0.97696 0.98679-2.1332 1.5115-3.2494 1.5106" fill="#70C7B3"/> <path d="m141.54 191.05l-0.42777-0.7436c-1.2945-2.2439-0.5193-5.1425 1.7242-6.4389l10.16-5.873c2.2416-1.2964 5.136-0.52005 6.4287 1.7266l0.4287 0.74173c1.2945 2.2458 0.51837 5.1444-1.7232 6.4389l-10.161 5.874c-2.2425 1.2955-5.136 0.51818-6.4296-1.7257" fill="#B2DFE0"/> <path d="m143.86 192.26l-0.4287-0.74173c-1.2936-2.2458-0.51743-5.1435 1.7251-6.4398l7.4664-4.3157c2.2425-1.2964 5.137-0.52005 6.4306 1.7257l0.42777 0.74266c1.2945 2.2458 0.51837 5.1435-1.7232 6.4389l-7.4673 4.3166c-2.2435 1.2955-5.136 0.51912-6.4306-1.7266" fill="#DCD8D3"/> <path d="m147.8 188.67c-0.15598 0-0.30822-0.081375-0.39228-0.22635l-1.3076-2.271c-0.12609-0.217-0.052303-0.49386 0.16532-0.62013 0.21669-0.1244 0.49408-0.050508 0.6183 0.16649l1.3095 2.2701c0.12422 0.21794 0.050436 0.49573-0.16625 0.62013l-0.22696 0.060798z" fill="#F1EBE4"/> <path d="m145.07 194.37l-0.34838-0.60423c-1.0676-1.852-0.42777-4.2399 1.4197-5.3081l8.9019-5.1444c1.8474-1.0691 4.2329-0.42839 5.2995 1.4217l0.34932 0.60517c1.0657 1.851 0.42684 4.239-1.4215 5.3081l-8.9019 5.1444c-1.8484 1.0682-4.2319 0.42839-5.2986-1.4227" fill="#F1EBE4"/> <path d="m155.13 184.43c-0.15691 0-0.30915-0.081375-0.39321-0.22729l-1.3076-2.2701c-0.12516-0.21606-0.05137-0.49386 0.16625-0.6192 0.21669-0.12627 0.49408-0.051444 0.6183 0.16649l1.3085 2.2691c0.12516 0.217 0.050436 0.4948-0.16625 0.62107l-0.22603 0.059862z" fill="#F1EBE4"/> <path d="m151.47 186.55c-0.15598-9.35e-4 -0.30822-0.08231-0.39134-0.22729l-1.3085-2.271c-0.12516-0.217-0.05137-0.4948 0.16532-0.6192 0.21669-0.12534 0.49502-0.05238 0.62017 0.16556l1.3076 2.2701c0.12516 0.217 0.052303 0.4948-0.16625 0.62107l-0.22696 0.060797z" fill="#F1EBE4"/> <path d="m127.73 199.58c-0.86768 0.50041-1.7727 0.5556-2.0221 0.1216-0.25124-0.434 0.24938-1.1935 1.1161-1.6939 0.86675-0.50134 1.7727-0.5556 2.023-0.1216 0.24938 0.434-0.24938 1.1926-1.1171 1.6939" fill="#FEFEFE"/> </g> <path d="m128.82 188.33s1.4066 3.9331 2.2098 5.5485c0.80417 1.6135 1.9072 5.5485 0.29608 5.7477-1.6111 0.20016-0.70143-2.4207-1.7073-4.6402-1.004-2.2205-2.1108-3.0277-2.1108-3.0277l1.3123-3.6282z" fill="#DF4E38" style="animation:leftOtterArm 3s ease-in-out both infinite;transform-origin:127.513px 188.328px"/> <path d="m155.86 194.29c0.95361 1.606 0.42964 3.6815-1.174 4.6365-1.6027 0.95592-3.6753 0.43026-4.6298-1.1748-0.95454-1.6051-0.42964-3.6815 1.174-4.6374 1.6027-0.95592 3.6762-0.42932 4.6298 1.1757" fill="#FEFEFE" style="animation:scaleUp 2.4s linear -0.8s infinite both;transform-origin:152.961px 196.022px 0px"/> <path d="m167.39 196.61c0.95454 1.606 0.4287 3.6825-1.174 4.6374-1.6027 0.95499-3.6762 0.42932-4.6308-1.1757-0.95361-1.606-0.42777-3.6806 1.175-4.6374 1.6027-0.95499 3.6753-0.42932 4.6298 1.1757" fill="#FEFEFE" style="animation:scaleUp 2.6s linear -0.6s infinite both;transform-origin:164.485px 198.337px 0px"/> <path d="m173.69 189.35c0.95361 1.6051 0.42964 3.6806-1.174 4.6356-1.6037 0.95686-3.6753 0.43026-4.6308-1.1748-0.95361-1.6051-0.4287-3.6815 1.174-4.6374 1.6037-0.95499 3.6771-0.42932 4.6308 1.1767" fill="#FEFEFE" style="animation:scaleUp 2.5s linear -0.3s infinite both;transform-origin:170.787px 191.079px 0px"/> <path d="m162.57 199.52c0.63792 1.0728 0.28674 2.4609-0.78549 3.0997-1.0713 0.63884-2.4573 0.28809-3.0953-0.78569-0.63792-1.0738-0.28767-2.4609 0.78549-3.1007 1.0713-0.63791 2.4564-0.28622 3.0953 0.78662" fill="#FEFEFE" style="animation:scaleUp 2.8s linear -0.1s infinite both;transform-origin:160.632px 200.674px 0px"/> <path d="m159.36 200.35c1.217 2.0447 0.54639 4.6898-1.4963 5.9067-2.0408 1.2178-4.6821 0.54718-5.8973-1.4975-1.217-2.0447-0.54732-4.6898 1.4953-5.9076 2.0417-1.2169 4.6821-0.54718 5.8982 1.4984" fill="#FEFEFE" style="animation:scaleUp 2.5s linear -0.5s infinite both;transform-origin:155.668px 202.55px 0px"/> <path d="m169.85 190.73c1.2161 2.0456 0.54639 4.6898-1.4963 5.9067-2.0408 1.2178-4.6812 0.54718-5.8982-1.4966-1.2151-2.0456-0.54545-4.6908 1.4963-5.9086 2.0417-1.2169 4.6821-0.54718 5.8982 1.4984" fill="#FEFEFE" style="animation:scaleUp 2.7s linear -0.5s infinite both;transform-origin:166.148px 192.935px 0px"/> <path d="m163.95 192.23c1.5682 2.6367 0.70423 6.0461-1.9278 7.6165-2.6329 1.5686-6.0374 0.70432-7.6046-1.9315-1.5682-2.6358-0.70517-6.0461 1.9278-7.6146 2.6329-1.5704 6.0364-0.70619 7.6046 1.9296" fill="#FEFEFE" style="animation:scaleUp 2.6s linear -0.3s infinite both;transform-origin:159.185px 195.069px 0px"/> <path d="m160.26 188.41c1.217 2.0447 0.54732 4.6908-1.4963 5.9067-2.0408 1.2178-4.6812 0.54718-5.8973-1.4975-1.217-2.0447-0.54639-4.6889 1.4953-5.9076 2.0417-1.2169 4.6831-0.54718 5.8982 1.4984" fill="#FEFEFE" style="animation:scaleUp 2.6s linear -0.6s infinite both;transform-origin:156.564px 190.61px 0px"/> <path d="m153.73 199.34c0.63885 1.0728 0.28674 2.4618-0.78456 3.0997-1.0713 0.63884-2.4583 0.28715-3.0962-0.78476-0.63792-1.0738-0.28674-2.4618 0.78549-3.1007 1.0713-0.63884 2.4564-0.28809 3.0953 0.78569" fill="#FEFEFE" style="animation:scaleUp 2.8s linear -0.3s infinite both;transform-origin:151.792px 200.502px 0px"/> <path d="m164.26 188.22c0.63885 1.0728 0.28767 2.4609-0.78456 3.0997-1.0713 0.63884-2.4583 0.28809-3.0953-0.78569-0.63792-1.0738-0.28674-2.4609 0.78456-3.1007 1.0713-0.63791 2.4573-0.28622 3.0953 0.78662" fill="#FEFEFE" style="animation:scaleUp 2.4s linear -0.7s infinite both;transform-origin:162.317px 189.38px 0px"/> <path d="m176.38 188.26c0.63885 1.0738 0.28767 2.4618-0.78456 3.0997-1.0713 0.63978-2.4583 0.28809-3.0953-0.78569-0.63792-1.0728-0.28674-2.4609 0.78456-3.0997 1.0713-0.6379 2.4573-0.28715 3.0953 0.78569" fill="#FEFEFE" style="animation:scaleUp 2.5s linear -0.8s infinite both;transform-origin:174.438px 189.421px 0px"/> <g transform="translate(121)"> <path d="m25.038 33.327l-23.617-9.736c-0.55329-0.22711-0.81965-0.86733-0.59067-1.4206 0.22711-0.5533 0.86732-0.81873 1.4206-0.59162l23.617 9.7351c0.55329 0.22898 0.81965 0.86733 0.59161 1.4216-0.22804 0.5533-0.86825 0.81967-1.4215 0.59162" fill="#76C09A"/> <polygon points="25.31 31.713 2.366 22.254 16.626 11.648 21.861 13.806" fill="#76C09A"/> <path d="m10.628 23.056l5.832-4.5535c1.0169-0.79443 1.1972-2.2627 0.40375-3.2796-0.79442-1.0178-2.2627-1.1982-3.2795-0.40376l-5.832 4.5544c-1.0169 0.7935-1.1972 2.2618-0.40375 3.2787 0.79442 1.0169 2.2627 1.1982 3.2795 0.40376" fill="#FEFEFE"/> <path d="m64.759 46.197c-0.0056076 5.4563-4.4328 9.8743-9.8891 9.8696-5.4562-0.0065424-9.8741-4.4348-9.8695-9.8902 0.0065422-5.4563 4.4347-9.8752 9.89-9.8687 5.4562 0.0056078 9.8751 4.4329 9.8685 9.8893" fill="#FEFEFE"/> <path d="m51.92 52.132s0.018692-16.37 0.03645-33.786c0.004673-2.8852-0.53927-5.4853-1.5328-7.7368-1.4851-3.3824-3.9768-5.9367-6.8909-7.5882-2.916-1.6562-6.245-2.4497-9.5694-2.4553-3.4066-0.0018692-6.8282 0.8234-9.8283 2.502-2.9945 1.6748-5.5712 4.2413-7.1208 7.6321l4.3833 2.0048c1.0954-2.387 2.8814-4.1871 5.0945-5.433 2.2094-1.2412 4.845-1.8907 7.4666-1.887 3.416 9.3463e-4 6.7544 1.1103 9.1554 3.216 1.2056 1.0543 2.1954 2.3543 2.901 3.9516 0.70282 1.5982 1.1243 3.5039 1.1225 5.7881-0.018692 17.416-0.03645 33.786-0.03645 33.786l4.8188 0.0056078z" fill="#76C09A"/> <path d="m19.598 15.548l-2.5917-1.0692c-1.2281-0.50563-1.8169-1.9216-1.3113-3.1488l0.099068-0.2402c0.50469-1.2253 1.9216-1.815 3.1478-1.3103l2.5926 1.0692c1.2262 0.50563 1.8169 1.9216 1.3103 3.1488l-0.099068 0.2402c-0.50469 1.2253-1.9216 1.815-3.1478 1.3103" fill="#76C09A"/> <path d="m43.629 64.667c-0.0056077 5.4563-4.4328 9.8743-9.8891 9.8696-5.4562-0.0065424-9.8741-4.4348-9.8695-9.8902 0.0065423-5.4563 4.4347-9.8752 9.89-9.8687 5.4562 0.0056078 9.8751 4.4329 9.8685 9.8893" fill="#FEFEFE"/> <path d="m90.234 69.277c-0.0065423 5.4563-4.4338 9.8743-9.89 9.8696-5.4562-0.0065424-9.8741-4.4348-9.8685-9.8902 0.0056077-5.4563 4.4347-9.8752 9.89-9.8687 5.4562 0.0056077 9.8741 4.4329 9.8685 9.8893" fill="#FEFEFE"/> <path d="m116.93 60.524c-0.005608 5.4563-4.4328 9.8743-9.8891 9.8687-5.4562-0.0056078-9.8751-4.4339-9.8704-9.8893 0.0065422-5.4563 4.4356-9.8752 9.891-9.8696 5.4562 0.0065423 9.8751 4.4339 9.8685 9.8902" fill="#FEFEFE"/> <path d="m73.785 69.359c-0.0037385 3.6478-2.9646 6.6022-6.6123 6.5985-3.6478-0.0037385-6.6011-2.9646-6.5974-6.6134 0.0037384-3.6478 2.9646-6.6013 6.6114-6.5975 3.6487 0.0046731 6.6021 2.9646 6.5983 6.6125" fill="#FEFEFE"/> <path d="m64.49 66.628c-0.0074768 6.9508-5.6478 12.579-12.598 12.572-6.9516-0.007477-12.579-5.6489-12.572-12.599 0.0074769-6.9517 5.6478-12.579 12.599-12.572 6.9497 0.0065424 12.578 5.6479 12.57 12.599" fill="#FEFEFE"/> <path d="m105.2 58.227c-0.007477 6.9508-5.6488 12.58-12.599 12.572-6.9507-0.007477-12.579-5.6489-12.572-12.599 0.0074769-6.9508 5.6488-12.579 12.599-12.572 6.9497 0.007477 12.579 5.6479 12.571 12.599" fill="#FEFEFE"/> <path d="m88.159 53.143c-0.010281 8.9602-7.2806 16.217-16.242 16.207-8.9601-0.010281-16.216-7.2817-16.207-16.242 0.010281-8.9612 7.2815-16.218 16.242-16.207 8.961 0.0093463 16.217 7.2807 16.207 16.242" fill="#FEFEFE"/> <path d="m84.613 38.028c-0.0074768 6.9508-5.6478 12.579-12.598 12.572-6.9516-0.007477-12.579-5.6489-12.572-12.599 0.0074769-6.9508 5.6478-12.579 12.599-12.572 6.9497 0.0065423 12.578 5.6479 12.57 12.599" fill="#FEFEFE"/> <path d="m51.845 55.674c-0.0037384 3.6478-2.9646 6.6022-6.6114 6.5985-3.6487-0.0037385-6.6021-2.9646-6.5983-6.6134 0.0037385-3.6469 2.9646-6.6003 6.6123-6.5966 3.6478 0.0046731 6.6011 2.9646 6.5974 6.6115" fill="#FEFEFE"/> <path d="m94.923 43.561c-0.0037384 3.6469-2.9636 6.6013-6.6114 6.5975-3.6487-0.0037385-6.603-2.9646-6.5993-6.6125 0.0046731-3.6478 2.9646-6.6013 6.6123-6.5975 3.6487 0.0046731 6.603 2.9646 6.5983 6.6125" fill="#FEFEFE"/> <path d="m125.3 61.834c-0.004673 3.6469-2.9646 6.6013-6.6114 6.5975-3.6487-0.0037385-6.603-2.9646-6.5983-6.6125 0.003738-3.6478 2.9646-6.6013 6.6123-6.5975 3.6478 0.0046732 6.6011 2.9646 6.5974 6.6125" fill="#FEFEFE"/> <path d="m61.502 57.665c-0.0065423 5.4563-4.4338 9.8743-9.89 9.8696-5.4562-0.0065424-9.8741-4.4348-9.8685-9.8902 0.0056077-5.4563 4.4338-9.8752 9.8891-9.8687 5.4562 0.0056077 9.8751 4.4329 9.8695 9.8893" fill="#FEFEFE"/> <g stroke="#76C09A" stroke-dasharray="2 5" stroke-dashoffset="115" stroke-linecap="round" stroke-width="1.8"> <path d="m6 30v115" style="animation:water-lines 7s linear -1.7s infinite both"/> <path d="m12 33v115" style="animation:water-lines 5s linear -1.7s infinite both"/> <path d="m18 35v115" style="animation:water-lines 6s linear -1.5s infinite both"/> </g> </g> </svg>